<svg width="577" height="420" viewBox="0 0 577 420" fill="none" xmlns="http://www.w3.org/2000/svg">
<g clip-path="url(#clip0_69_1317)">
<path d="M240.899 74.0409C230.084 74.0409 221.318 65.2672 221.318 54.4443C221.318 43.6214 230.084 34.8477 240.899 34.8477C251.713 34.8477 260.479 43.6214 260.479 54.4443C260.479 65.2672 251.713 74.0409 240.899 74.0409Z" fill="#F2F2F2"/>
<path d="M89.0063 364.877C59.902 342.691 46.0011 305.41 54.7037 269.846C54.9199 268.962 55.1482 268.08 55.3884 267.201C61.1578 246.09 75.4315 226.027 96.2349 219.281C113.703 213.617 132.769 217.973 150.992 215.72C186.765 211.299 214.499 182.331 234.014 152.001C253.528 121.671 268.526 87.7203 294.456 62.6631C337.198 21.3607 406.921 12.4682 459.915 39.353C512.909 66.2379 546.666 125.884 545.226 185.329C543.787 244.774 508.526 301.608 457.318 331.762C438.507 342.839 416.749 350.686 395.096 347.94C376.308 345.558 359.237 335.454 340.537 332.455C311.137 327.739 281.924 341.042 256.496 356.545C231.067 372.048 206.504 390.424 177.608 397.611C149.55 404.589 114.788 384.531 89.0063 364.877Z" fill="#D4D3F6"/>
<path d="M130.822 40.6013C131.46 40.1756 132.105 39.7719 132.743 39.3609C151.186 27.5562 170.953 17.9661 191.637 10.7888L196.433 77.0045H226.837V1.12292C228.751 0.726595 230.68 0.352289 232.609 0V77.0045H268.74C288.63 77.0045 307.706 69.0964 321.771 55.0201C335.836 40.9437 343.738 21.852 343.738 1.94501V1.94495C345.674 2.36329 347.595 2.81099 349.516 3.28805V77.0045H378.945L383.514 13.864C404.769 22.0227 424.949 32.7517 443.603 45.8122C443.925 46.0324 444.248 46.2599 444.563 46.4801C446.184 47.6177 447.783 48.7773 449.374 49.9516V302.565H362.643L364.176 281.317L372.609 164.658H202.777L211.21 281.317L212.743 302.565H126.972V43.1554C128.248 42.2894 129.531 41.438 130.822 40.6013ZM349.516 145.393H374.002L378.527 82.7879H349.516V145.393ZM232.609 145.393H273.734V144.152C273.734 143.556 273.851 142.966 274.079 142.415C274.308 141.864 274.642 141.364 275.064 140.942C275.485 140.521 275.986 140.187 276.536 139.96C277.087 139.732 277.677 139.615 278.273 139.616H296.152C296.747 139.616 297.336 139.733 297.886 139.961C298.436 140.189 298.936 140.523 299.357 140.944C299.778 141.366 300.112 141.866 300.339 142.416C300.567 142.967 300.684 143.556 300.684 144.152V145.393H343.738V82.7879H232.609V145.393ZM226.837 145.393V82.7879H196.851L201.376 145.393H226.837Z" fill="#3F3D56"/>
<path d="M577 318.741C570.629 326.296 563.739 333.396 556.379 339.989L20.6213 340.723C13.2612 334.13 6.37064 327.03 6.69598e-06 319.475L577 318.741Z" fill="#3F3D56"/>
<path d="M213.686 250.706V313.607C213.685 314.409 213.366 315.177 212.8 315.744C212.234 316.311 211.466 316.629 210.665 316.63H117.529C116.728 316.629 115.96 316.311 115.393 315.744C114.827 315.177 114.508 314.409 114.508 313.607V250.706C114.51 249.905 114.829 249.137 115.395 248.571C115.961 248.005 116.728 247.687 117.529 247.686H210.665C211.465 247.687 212.232 248.005 212.799 248.571C213.365 249.137 213.684 249.905 213.686 250.706V250.706Z" fill="#3F3D56"/>
<path d="M211.5 251.489V312.831C211.5 313.26 211.329 313.67 211.027 313.973C210.724 314.276 210.314 314.446 209.886 314.447H118.304C117.876 314.446 117.466 314.276 117.163 313.973C116.86 313.67 116.69 313.26 116.689 312.831V251.489C116.689 251.06 116.859 250.649 117.162 250.345C117.465 250.042 117.875 249.871 118.304 249.87H209.886C210.315 249.871 210.725 250.042 211.028 250.345C211.33 250.649 211.5 251.06 211.5 251.489V251.489Z" fill="#735DFB"/>
<path d="M215.633 325.874C215.463 326.088 215.246 326.261 214.999 326.379C214.752 326.497 214.482 326.558 214.208 326.557H114.481C114.208 326.556 113.939 326.495 113.693 326.378C113.447 326.26 113.23 326.089 113.058 325.877C112.886 325.665 112.764 325.417 112.7 325.152C112.635 324.887 112.631 324.61 112.687 324.343L114.235 316.984C114.299 316.684 114.437 316.405 114.637 316.172C114.837 315.938 115.091 315.759 115.378 315.65C115.585 315.568 115.806 315.527 116.029 315.527H212.666C212.889 315.527 213.11 315.568 213.317 315.65C213.604 315.759 213.859 315.938 214.058 316.172C214.258 316.405 214.396 316.684 214.46 316.984L216.008 324.343C216.063 324.61 216.058 324.886 215.993 325.151C215.928 325.416 215.805 325.663 215.633 325.874V325.874Z" fill="#2F2E41"/>
<path d="M119.451 318.697H117.095C116.898 318.697 116.737 318.536 116.737 318.339V317.211C116.737 317.013 116.898 316.852 117.095 316.852H119.451C119.649 316.852 119.809 317.013 119.809 317.211V318.339C119.809 318.536 119.649 318.697 119.451 318.697Z" fill="#3F3D56"/>
<path d="M125.594 318.697H123.238C123.041 318.697 122.88 318.536 122.88 318.339V317.211C122.88 317.013 123.041 316.852 123.238 316.852H125.594C125.792 316.852 125.952 317.013 125.952 317.211V318.339C125.952 318.536 125.792 318.697 125.594 318.697Z" fill="#3F3D56"/>
<path d="M131.737 318.697H129.381C129.184 318.697 129.023 318.536 129.023 318.339V317.211C129.023 317.013 129.184 316.852 129.381 316.852H131.737C131.935 316.852 132.095 317.013 132.095 317.211V318.339C132.095 318.536 131.935 318.697 131.737 318.697Z" fill="#3F3D56"/>
<path d="M137.88 318.697H135.525C135.327 318.697 135.167 318.536 135.167 318.339V317.211C135.167 317.013 135.327 316.852 135.525 316.852H137.88C138.078 316.852 138.238 317.013 138.238 317.211V318.339C138.238 318.536 138.078 318.697 137.88 318.697Z" fill="#3F3D56"/>
<path d="M144.023 318.697H141.668C141.47 318.697 141.31 318.536 141.31 318.339V317.211C141.31 317.013 141.47 316.852 141.668 316.852H144.023C144.221 316.852 144.381 317.013 144.381 317.211V318.339C144.381 318.536 144.221 318.697 144.023 318.697Z" fill="#3F3D56"/>
<path d="M150.167 318.697H147.811C147.613 318.697 147.453 318.536 147.453 318.339V317.211C147.453 317.013 147.613 316.852 147.811 316.852H150.167C150.364 316.852 150.525 317.013 150.525 317.211V318.339C150.525 318.536 150.364 318.697 150.167 318.697Z" fill="#3F3D56"/>
<path d="M156.31 318.697H153.954C153.756 318.697 153.596 318.536 153.596 318.339V317.211C153.596 317.013 153.756 316.852 153.954 316.852H156.31C156.507 316.852 156.668 317.013 156.668 317.211V318.339C156.668 318.536 156.507 318.697 156.31 318.697Z" fill="#3F3D56"/>
<path d="M162.453 318.697H160.097C159.9 318.697 159.739 318.536 159.739 318.339V317.211C159.739 317.013 159.9 316.852 160.097 316.852H162.453C162.651 316.852 162.811 317.013 162.811 317.211V318.339C162.811 318.536 162.651 318.697 162.453 318.697Z" fill="#3F3D56"/>
<path d="M168.596 318.697H166.24C166.043 318.697 165.882 318.536 165.882 318.339V317.211C165.882 317.013 166.043 316.852 166.24 316.852H168.596C168.794 316.852 168.954 317.013 168.954 317.211V318.339C168.954 318.536 168.794 318.697 168.596 318.697Z" fill="#3F3D56"/>
<path d="M174.739 318.697H172.383C172.186 318.697 172.025 318.536 172.025 318.339V317.211C172.025 317.013 172.186 316.852 172.383 316.852H174.739C174.937 316.852 175.097 317.013 175.097 317.211V318.339C175.097 318.536 174.937 318.697 174.739 318.697Z" fill="#3F3D56"/>
<path d="M180.882 318.697H178.526C178.329 318.697 178.168 318.536 178.168 318.339V317.211C178.168 317.013 178.329 316.852 178.526 316.852H180.882C181.08 316.852 181.24 317.013 181.24 317.211V318.339C181.24 318.536 181.08 318.697 180.882 318.697Z" fill="#3F3D56"/>
<path d="M187.025 318.697H184.67C184.472 318.697 184.312 318.536 184.312 318.339V317.211C184.312 317.013 184.472 316.852 184.67 316.852H187.025C187.223 316.852 187.383 317.013 187.383 317.211V318.339C187.383 318.536 187.223 318.697 187.025 318.697Z" fill="#3F3D56"/>
<path d="M193.168 318.697H190.813C190.615 318.697 190.455 318.536 190.455 318.339V317.211C190.455 317.013 190.615 316.852 190.813 316.852H193.168C193.366 316.852 193.526 317.013 193.526 317.211V318.339C193.526 318.536 193.366 318.697 193.168 318.697Z" fill="#3F3D56"/>
<path d="M199.311 318.697H196.956C196.758 318.697 196.598 318.536 196.598 318.339V317.211C196.598 317.013 196.758 316.852 196.956 316.852H199.311C199.509 316.852 199.669 317.013 199.669 317.211V318.339C199.669 318.536 199.509 318.697 199.311 318.697Z" fill="#3F3D56"/>
<path d="M205.454 318.697H203.099C202.901 318.697 202.741 318.536 202.741 318.339V317.211C202.741 317.013 202.901 316.852 203.099 316.852H205.454C205.652 316.852 205.812 317.013 205.812 317.211V318.339C205.812 318.536 205.652 318.697 205.454 318.697Z" fill="#3F3D56"/>
<path d="M211.597 318.697H209.242C209.044 318.697 208.884 318.536 208.884 318.339V317.211C208.884 317.013 209.044 316.852 209.242 316.852H211.597C211.795 316.852 211.955 317.013 211.955 317.211V318.339C211.955 318.536 211.795 318.697 211.597 318.697Z" fill="#3F3D56"/>
<path d="M119.378 321.771H117.023C116.825 321.771 116.665 321.611 116.665 321.413V320.285C116.665 320.087 116.825 319.927 117.023 319.927H119.378C119.576 319.927 119.736 320.087 119.736 320.285V321.413C119.736 321.611 119.576 321.771 119.378 321.771Z" fill="#3F3D56"/>
<path d="M125.522 321.771H123.166C122.968 321.771 122.808 321.611 122.808 321.413V320.285C122.808 320.087 122.968 319.927 123.166 319.927H125.522C125.719 319.927 125.88 320.087 125.88 320.285V321.413C125.88 321.611 125.719 321.771 125.522 321.771Z" fill="#3F3D56"/>
<path d="M131.665 321.771H129.309C129.111 321.771 128.951 321.611 128.951 321.413V320.285C128.951 320.087 129.111 319.927 129.309 319.927H131.665C131.862 319.927 132.023 320.087 132.023 320.285V321.413C132.023 321.611 131.862 321.771 131.665 321.771Z" fill="#3F3D56"/>
<path d="M137.808 321.771H135.452C135.255 321.771 135.094 321.611 135.094 321.413V320.285C135.094 320.087 135.255 319.927 135.452 319.927H137.808C138.006 319.927 138.166 320.087 138.166 320.285V321.413C138.166 321.611 138.006 321.771 137.808 321.771Z" fill="#3F3D56"/>
<path d="M143.951 321.771H141.595C141.398 321.771 141.237 321.611 141.237 321.413V320.285C141.237 320.087 141.398 319.927 141.595 319.927H143.951C144.149 319.927 144.309 320.087 144.309 320.285V321.413C144.309 321.611 144.149 321.771 143.951 321.771Z" fill="#3F3D56"/>
<path d="M150.094 321.771H147.738C147.541 321.771 147.38 321.611 147.38 321.413V320.285C147.38 320.087 147.541 319.927 147.738 319.927H150.094C150.292 319.927 150.452 320.087 150.452 320.285V321.413C150.452 321.611 150.292 321.771 150.094 321.771Z" fill="#3F3D56"/>
<path d="M156.237 321.771H153.881C153.684 321.771 153.523 321.611 153.523 321.413V320.285C153.523 320.087 153.684 319.927 153.881 319.927H156.237C156.435 319.927 156.595 320.087 156.595 320.285V321.413C156.595 321.611 156.435 321.771 156.237 321.771Z" fill="#3F3D56"/>
<path d="M162.38 321.771H160.025C159.827 321.771 159.667 321.611 159.667 321.413V320.285C159.667 320.087 159.827 319.927 160.025 319.927H162.38C162.578 319.927 162.738 320.087 162.738 320.285V321.413C162.738 321.611 162.578 321.771 162.38 321.771Z" fill="#3F3D56"/>
<path d="M168.523 321.771H166.168C165.97 321.771 165.81 321.611 165.81 321.413V320.285C165.81 320.087 165.97 319.927 166.168 319.927H168.523C168.721 319.927 168.881 320.087 168.881 320.285V321.413C168.881 321.611 168.721 321.771 168.523 321.771Z" fill="#3F3D56"/>
<path d="M174.666 321.771H172.311C172.113 321.771 171.953 321.611 171.953 321.413V320.285C171.953 320.087 172.113 319.927 172.311 319.927H174.666C174.864 319.927 175.024 320.087 175.024 320.285V321.413C175.024 321.611 174.864 321.771 174.666 321.771Z" fill="#3F3D56"/>
<path d="M180.809 321.771H178.454C178.256 321.771 178.096 321.611 178.096 321.413V320.285C178.096 320.087 178.256 319.927 178.454 319.927H180.809C181.007 319.927 181.167 320.087 181.167 320.285V321.413C181.167 321.611 181.007 321.771 180.809 321.771Z" fill="#3F3D56"/>
<path d="M186.952 321.771H184.597C184.399 321.771 184.239 321.611 184.239 321.413V320.285C184.239 320.087 184.399 319.927 184.597 319.927H186.952C187.15 319.927 187.31 320.087 187.31 320.285V321.413C187.31 321.611 187.15 321.771 186.952 321.771Z" fill="#3F3D56"/>
<path d="M193.095 321.771H190.74C190.542 321.771 190.382 321.611 190.382 321.413V320.285C190.382 320.087 190.542 319.927 190.74 319.927H193.095C193.293 319.927 193.453 320.087 193.453 320.285V321.413C193.453 321.611 193.293 321.771 193.095 321.771Z" fill="#3F3D56"/>
<path d="M199.239 321.771H196.883C196.686 321.771 196.525 321.611 196.525 321.413V320.285C196.525 320.087 196.686 319.927 196.883 319.927H199.239C199.437 319.927 199.597 320.087 199.597 320.285V321.413C199.597 321.611 199.437 321.771 199.239 321.771Z" fill="#3F3D56"/>
<path d="M205.382 321.771H203.026C202.829 321.771 202.668 321.611 202.668 321.413V320.285C202.668 320.087 202.829 319.927 203.026 319.927H205.382C205.58 319.927 205.74 320.087 205.74 320.285V321.413C205.74 321.611 205.58 321.771 205.382 321.771Z" fill="#3F3D56"/>
<path d="M211.525 321.771H209.17C208.972 321.771 208.812 321.611 208.812 321.413V320.285C208.812 320.087 208.972 319.927 209.17 319.927H211.525C211.723 319.927 211.883 320.087 211.883 320.285V321.413C211.883 321.611 211.723 321.771 211.525 321.771Z" fill="#3F3D56"/>
<path d="M170.366 325.46H146.51C146.312 325.46 146.152 325.3 146.152 325.102V323.974C146.152 323.776 146.312 323.615 146.51 323.615H170.366C170.564 323.615 170.724 323.776 170.724 323.974V325.102C170.724 325.3 170.564 325.46 170.366 325.46Z" fill="#3F3D56"/>
<path d="M195.641 263.29H197.727C198.359 263.29 198.872 263.803 198.872 264.435C198.872 265.068 198.359 265.581 197.727 265.581H195.641C195.009 265.581 194.497 265.068 194.497 264.435C194.497 263.803 195.009 263.29 195.641 263.29Z" fill="white"/>
<path d="M171.791 263.29H173.877C174.509 263.29 175.021 263.803 175.021 264.435C175.021 265.068 174.509 265.581 173.877 265.581H171.791C171.159 265.581 170.647 265.068 170.647 264.435C170.647 263.803 171.159 263.29 171.791 263.29Z" fill="white"/>
<path d="M165.034 263.29H167.119C167.751 263.29 168.264 263.803 168.264 264.435C168.264 265.068 167.751 265.581 167.119 265.581H165.034C164.401 265.581 163.889 265.068 163.889 264.435C163.889 263.803 164.401 263.29 165.034 263.29Z" fill="white"/>
<path d="M178.279 263.099H191.239C191.872 263.099 192.384 263.612 192.384 264.244C192.384 264.877 191.872 265.39 191.239 265.39H178.279C177.646 265.39 177.134 264.877 177.134 264.244C177.134 263.612 177.646 263.099 178.279 263.099Z" fill="white"/>
<path d="M146.478 263.099H159.439C160.071 263.099 160.584 263.612 160.584 264.244C160.584 264.877 160.071 265.39 159.439 265.39H146.478C145.846 265.39 145.334 264.877 145.334 264.244C145.334 263.612 145.846 263.099 146.478 263.099Z" fill="white"/>
<path d="M189.281 268.461H191.366C191.999 268.461 192.511 268.974 192.511 269.607C192.511 270.24 191.999 270.753 191.366 270.753H189.281C188.649 270.753 188.136 270.24 188.136 269.607C188.136 268.974 188.649 268.461 189.281 268.461Z" fill="white"/>
<path d="M165.431 268.461H167.516C168.149 268.461 168.661 268.974 168.661 269.607C168.661 270.24 168.149 270.753 167.516 270.753H165.431C164.799 270.753 164.286 270.24 164.286 269.607C164.286 268.974 164.799 268.461 165.431 268.461Z" fill="white"/>
<path d="M158.674 268.461H160.759C161.391 268.461 161.904 268.974 161.904 269.607C161.904 270.24 161.391 270.753 160.759 270.753H158.674C158.041 270.753 157.529 270.24 157.529 269.607C157.529 268.974 158.041 268.461 158.674 268.461Z" fill="white"/>
<path d="M171.918 268.271H184.879C185.511 268.271 186.024 268.783 186.024 269.416C186.024 270.049 185.511 270.562 184.879 270.562H171.918C171.286 270.562 170.773 270.049 170.773 269.416C170.773 268.783 171.286 268.271 171.918 268.271Z" fill="white"/>
<path d="M140.118 268.271H153.079C153.711 268.271 154.224 268.783 154.224 269.416C154.224 270.049 153.711 270.562 153.079 270.562H140.118C139.486 270.562 138.973 270.049 138.973 269.416C138.973 268.783 139.486 268.271 140.118 268.271Z" fill="white"/>
<path d="M182.921 273.633H185.007C185.639 273.633 186.151 274.146 186.151 274.779C186.151 275.412 185.639 275.925 185.007 275.925H182.921C182.289 275.925 181.776 275.412 181.776 274.779C181.776 274.146 182.289 273.633 182.921 273.633Z" fill="white"/>
<path d="M159.071 273.633H161.157C161.789 273.633 162.301 274.146 162.301 274.779C162.301 275.412 161.789 275.925 161.157 275.925H159.071C158.439 275.925 157.926 275.412 157.926 274.779C157.926 274.146 158.439 273.633 159.071 273.633Z" fill="white"/>
<path d="M152.313 273.633H154.399C155.031 273.633 155.543 274.146 155.543 274.779C155.543 275.412 155.031 275.925 154.399 275.925H152.313C151.681 275.925 151.169 275.412 151.169 274.779C151.169 274.146 151.681 273.633 152.313 273.633Z" fill="white"/>
<path d="M165.558 273.442H178.519C179.152 273.442 179.664 273.955 179.664 274.588C179.664 275.221 179.152 275.734 178.519 275.734H165.558C164.926 275.734 164.414 275.221 164.414 274.588C164.414 273.955 164.926 273.442 165.558 273.442Z" fill="white"/>
<path d="M133.758 273.442H146.719C147.351 273.442 147.864 273.955 147.864 274.588C147.864 275.221 147.351 275.734 146.719 275.734H133.758C133.126 275.734 132.613 275.221 132.613 274.588C132.613 273.955 133.126 273.442 133.758 273.442Z" fill="white"/>
<path d="M176.561 278.805H178.646C179.278 278.805 179.791 279.318 179.791 279.951C179.791 280.584 179.278 281.097 178.646 281.097H176.561C175.929 281.097 175.416 280.584 175.416 279.951C175.416 279.318 175.929 278.805 176.561 278.805Z" fill="white"/>
<path d="M152.711 278.805H154.796C155.428 278.805 155.941 279.318 155.941 279.951C155.941 280.584 155.428 281.097 154.796 281.097H152.711C152.078 281.097 151.566 280.584 151.566 279.951C151.566 279.318 152.078 278.805 152.711 278.805Z" fill="white"/>
<path d="M145.953 278.805H148.039C148.671 278.805 149.184 279.318 149.184 279.951C149.184 280.584 148.671 281.097 148.039 281.097H145.953C145.321 281.097 144.809 280.584 144.809 279.951C144.809 279.318 145.321 278.805 145.953 278.805Z" fill="white"/>
<path d="M159.198 278.614H172.159C172.791 278.614 173.304 279.127 173.304 279.76C173.304 280.393 172.791 280.906 172.159 280.906H159.198C158.566 280.906 158.053 280.393 158.053 279.76C158.053 279.127 158.566 278.614 159.198 278.614Z" fill="white"/>
<path d="M171.791 299.37H173.877C174.509 299.37 175.021 299.883 175.021 300.516C175.021 301.149 174.509 301.662 173.877 301.662H171.791C171.159 301.662 170.647 301.149 170.647 300.516C170.647 299.883 171.159 299.37 171.791 299.37Z" fill="white"/>
<path d="M165.034 299.37H167.119C167.751 299.37 168.264 299.883 168.264 300.516C168.264 301.149 167.751 301.662 167.119 301.662H165.034C164.401 301.662 163.889 301.149 163.889 300.516C163.889 299.883 164.401 299.37 165.034 299.37Z" fill="white"/>
<path d="M146.478 299.562H159.439C160.071 299.562 160.584 300.074 160.584 300.707C160.584 301.34 160.071 301.853 159.439 301.853H146.478C145.846 301.853 145.334 301.34 145.334 300.707C145.334 300.074 145.846 299.562 146.478 299.562Z" fill="white"/>
<path d="M195.641 299.37H197.727C198.359 299.37 198.872 299.883 198.872 300.516C198.872 301.149 198.359 301.662 197.727 301.662H195.641C195.009 301.662 194.497 301.149 194.497 300.516C194.497 299.883 195.009 299.37 195.641 299.37Z" fill="white"/>
<path d="M178.279 299.562H191.239C191.872 299.562 192.384 300.074 192.384 300.707C192.384 301.34 191.872 301.853 191.239 301.853H178.279C177.646 301.853 177.134 301.34 177.134 300.707C177.134 300.074 177.646 299.562 178.279 299.562Z" fill="white"/>
<path d="M189.281 294.198H191.366C191.999 294.198 192.511 294.711 192.511 295.344C192.511 295.977 191.999 296.49 191.366 296.49H189.281C188.649 296.49 188.136 295.977 188.136 295.344C188.136 294.711 188.649 294.198 189.281 294.198Z" fill="white"/>
<path d="M165.431 294.198H167.516C168.149 294.198 168.661 294.711 168.661 295.344C168.661 295.977 168.149 296.49 167.516 296.49H165.431C164.799 296.49 164.286 295.977 164.286 295.344C164.286 294.711 164.799 294.198 165.431 294.198Z" fill="white"/>
<path d="M158.674 294.198H160.759C161.391 294.198 161.904 294.711 161.904 295.344C161.904 295.977 161.391 296.49 160.759 296.49H158.674C158.041 296.49 157.529 295.977 157.529 295.344C157.529 294.711 158.041 294.198 158.674 294.198Z" fill="white"/>
<path d="M171.918 294.39H184.879C185.511 294.39 186.024 294.903 186.024 295.535C186.024 296.168 185.511 296.681 184.879 296.681H171.918C171.286 296.681 170.773 296.168 170.773 295.535C170.773 294.903 171.286 294.39 171.918 294.39Z" fill="white"/>
<path d="M182.921 289.027H185.007C185.639 289.027 186.151 289.54 186.151 290.173C186.151 290.805 185.639 291.318 185.007 291.318H182.921C182.289 291.318 181.776 290.805 181.776 290.173C181.776 289.54 182.289 289.027 182.921 289.027Z" fill="white"/>
<path d="M159.071 289.027H161.157C161.789 289.027 162.301 289.54 162.301 290.173C162.301 290.805 161.789 291.318 161.157 291.318H159.071C158.439 291.318 157.926 290.805 157.926 290.173C157.926 289.54 158.439 289.027 159.071 289.027Z" fill="white"/>
<path d="M152.313 289.027H154.399C155.031 289.027 155.543 289.54 155.543 290.173C155.543 290.805 155.031 291.318 154.399 291.318H152.313C151.681 291.318 151.169 290.805 151.169 290.173C151.169 289.54 151.681 289.027 152.313 289.027Z" fill="white"/>
<path d="M165.558 289.218H178.519C179.152 289.218 179.664 289.731 179.664 290.363C179.664 290.996 179.152 291.509 178.519 291.509H165.558C164.926 291.509 164.414 290.996 164.414 290.363C164.414 289.731 164.926 289.218 165.558 289.218Z" fill="white"/>
<path d="M176.561 283.855H178.646C179.278 283.855 179.791 284.368 179.791 285.001C179.791 285.633 179.278 286.146 178.646 286.146H176.561C175.929 286.146 175.416 285.633 175.416 285.001C175.416 284.368 175.929 283.855 176.561 283.855Z" fill="white"/>
<path d="M152.711 283.855H154.796C155.428 283.855 155.941 284.368 155.941 285.001C155.941 285.633 155.428 286.146 154.796 286.146H152.711C152.078 286.146 151.566 285.633 151.566 285.001C151.566 284.368 152.078 283.855 152.711 283.855Z" fill="white"/>
<path d="M145.953 283.855H148.039C148.671 283.855 149.184 284.368 149.184 285.001C149.184 285.633 148.671 286.146 148.039 286.146H145.953C145.321 286.146 144.809 285.633 144.809 285.001C144.809 284.368 145.321 283.855 145.953 283.855Z" fill="white"/>
<path d="M159.198 284.046H172.159C172.791 284.046 173.304 284.559 173.304 285.192C173.304 285.824 172.791 286.337 172.159 286.337H159.198C158.566 286.337 158.053 285.824 158.053 285.192C158.053 284.559 158.566 284.046 159.198 284.046Z" fill="white"/>
<path d="M206.728 359.982L216.518 344.495L185.79 319.979L173.107 305.916C171.459 304.089 169.361 302.727 167.022 301.966C164.684 301.204 162.186 301.071 159.78 301.578C157.373 302.085 155.142 303.215 153.309 304.856C151.476 306.497 150.105 308.59 149.334 310.927C148.19 314.391 148.436 318.163 150.019 321.448C151.602 324.733 154.399 327.274 157.818 328.535L177.874 335.93L206.728 359.982Z" fill="#FFB6B6"/>
<path d="M436.428 247.689V322.961H383.738V247.689C383.737 247.148 383.91 246.62 384.23 246.184C384.551 245.748 385.003 245.427 385.52 245.267C385.763 245.186 386.019 245.147 386.275 245.15H433.883C434.217 245.149 434.547 245.214 434.856 245.341C435.165 245.469 435.445 245.656 435.681 245.891C435.918 246.127 436.105 246.407 436.233 246.716C436.361 247.024 436.427 247.355 436.428 247.689V247.689ZM415.865 273.553C415.851 272.069 415.253 270.65 414.199 269.606C413.146 268.561 411.723 267.976 410.24 267.976C408.758 267.976 407.335 268.561 406.282 269.606C405.228 270.65 404.63 272.069 404.616 273.553V282.287C404.623 283.775 405.219 285.199 406.273 286.249C407.327 287.298 408.754 287.887 410.24 287.887C411.727 287.887 413.154 287.298 414.208 286.249C415.262 285.199 415.858 283.775 415.865 282.287V273.553Z" fill="#2F2E41"/>
<path d="M436.589 320.554V327.813C436.588 328.189 436.438 328.549 436.173 328.816C435.908 329.082 435.549 329.233 435.174 329.237H384.992C384.616 329.235 384.256 329.084 383.99 328.817C383.725 328.55 383.576 328.189 383.576 327.813V320.554H436.589Z" fill="#3F3D56"/>
<path d="M519.316 134.281V271.718C519.315 273.469 518.619 275.149 517.381 276.387C516.144 277.625 514.466 278.322 512.716 278.323H309.216C307.466 278.322 305.788 277.625 304.551 276.387C303.314 275.149 302.618 273.469 302.616 271.718V134.281C302.621 132.531 303.318 130.854 304.555 129.618C305.792 128.381 307.468 127.685 309.216 127.683H512.716C514.464 127.685 516.141 128.381 517.378 129.618C518.615 130.854 519.312 132.531 519.316 134.281Z" fill="#3F3D56"/>
<path d="M514.542 135.991V270.022C514.54 270.958 514.168 271.855 513.507 272.517C512.846 273.179 511.95 273.551 511.015 273.553H310.91C309.975 273.551 309.079 273.179 308.418 272.517C307.757 271.855 307.385 270.958 307.383 270.022V135.991C307.383 135.054 307.755 134.156 308.416 133.492C309.077 132.829 309.974 132.456 310.91 132.454H511.015C511.951 132.456 512.848 132.829 513.509 133.492C514.17 134.156 514.542 135.054 514.542 135.991Z" fill="white"/>
<path d="M477.406 328.745C477.203 329 476.944 329.206 476.649 329.347C476.354 329.489 476.032 329.561 475.705 329.559H356.656C356.33 329.559 356.009 329.486 355.715 329.346C355.421 329.205 355.162 329.001 354.957 328.748C354.752 328.495 354.606 328.199 354.53 327.883C354.453 327.566 354.448 327.236 354.515 326.917L356.363 318.132C356.439 317.774 356.604 317.44 356.842 317.162C357.081 316.884 357.385 316.67 357.727 316.539C357.974 316.442 358.238 316.392 358.504 316.393H473.864C474.13 316.392 474.394 316.442 474.642 316.539C474.984 316.67 475.288 316.884 475.526 317.162C475.764 317.44 475.929 317.774 476.006 318.132L477.854 326.917C477.919 327.236 477.913 327.565 477.836 327.881C477.759 328.198 477.612 328.492 477.406 328.745Z" fill="#2F2E41"/>
<path d="M317.405 150.917H504.641C504.836 150.913 505.021 150.832 505.157 150.693C505.293 150.554 505.37 150.367 505.37 150.172C505.37 149.977 505.293 149.79 505.157 149.651C505.021 149.512 504.836 149.431 504.641 149.427H317.405C317.21 149.431 317.025 149.512 316.889 149.651C316.753 149.79 316.676 149.977 316.676 150.172C316.676 150.367 316.753 150.554 316.889 150.693C317.025 150.832 317.21 150.913 317.405 150.917V150.917Z" fill="#3F3D56"/>
<path d="M491.896 145.622C489.486 145.622 487.532 143.623 487.532 141.157C487.532 138.692 489.486 136.693 491.896 136.693C494.306 136.693 496.26 138.692 496.26 141.157C496.26 143.623 494.306 145.622 491.896 145.622Z" fill="#3F3D56"/>
<path d="M476.821 145.622C474.411 145.622 472.458 143.623 472.458 141.157C472.458 138.692 474.411 136.693 476.821 136.693C479.231 136.693 481.185 138.692 481.185 141.157C481.185 143.623 479.231 145.622 476.821 145.622Z" fill="#3F3D56"/>
<path d="M461.747 145.622C459.337 145.622 457.384 143.623 457.384 141.157C457.384 138.692 459.337 136.693 461.747 136.693C464.157 136.693 466.111 138.692 466.111 141.157C466.111 143.623 464.157 145.622 461.747 145.622Z" fill="#3F3D56"/>
<path d="M326.482 137.797H337.189C337.4 137.802 337.602 137.889 337.75 138.041C337.898 138.193 337.98 138.396 337.98 138.608C337.98 138.82 337.898 139.023 337.75 139.175C337.602 139.326 337.4 139.414 337.189 139.419H326.482C326.269 139.416 326.066 139.329 325.916 139.177C325.767 139.026 325.683 138.821 325.683 138.608C325.683 138.395 325.767 138.19 325.916 138.038C326.066 137.887 326.269 137.8 326.482 137.797Z" fill="#3F3D56"/>
<path d="M326.482 140.843H337.188C337.4 140.847 337.602 140.935 337.75 141.087C337.898 141.238 337.981 141.442 337.981 141.654C337.981 141.866 337.898 142.069 337.75 142.221C337.602 142.373 337.4 142.46 337.188 142.465H326.482C326.268 142.462 326.065 142.376 325.915 142.224C325.765 142.072 325.681 141.867 325.681 141.654C325.681 141.44 325.765 141.236 325.915 141.084C326.065 140.932 326.268 140.845 326.482 140.843V140.843Z" fill="#3F3D56"/>
<path d="M326.482 143.889H337.189C337.4 143.894 337.602 143.981 337.75 144.133C337.898 144.284 337.98 144.488 337.98 144.7C337.98 144.912 337.898 145.115 337.75 145.267C337.602 145.418 337.4 145.506 337.189 145.511H326.482C326.269 145.508 326.066 145.421 325.916 145.269C325.767 145.117 325.683 144.913 325.683 144.7C325.683 144.487 325.767 144.282 325.916 144.13C326.066 143.978 326.269 143.892 326.482 143.889V143.889Z" fill="#3F3D56"/>
<path d="M68.364 323.74C68.0409 324.681 67.4281 325.496 66.6134 326.067C65.7988 326.638 64.8242 326.936 63.8298 326.918L44.4025 326.418C43.4007 326.398 42.4321 326.055 41.6416 325.439C40.851 324.823 40.2809 323.967 40.0165 323L37.2673 293.579C36.292 294.021 35.2301 294.239 34.1595 294.218C33.2294 294.194 32.313 293.988 31.4626 293.61C30.6122 293.232 29.8445 292.69 29.2033 292.016C28.5621 291.341 28.0601 290.546 27.7257 289.677C27.3913 288.808 27.2312 287.882 27.2546 286.951C27.2779 286.02 27.4843 285.103 27.8618 284.252C28.2393 283.401 28.7806 282.633 29.4548 281.991C30.129 281.349 30.9229 280.847 31.7911 280.512C32.6594 280.177 33.585 280.017 34.5151 280.041C34.943 280.039 35.3699 280.084 35.7883 280.173C36.2434 279.68 36.7965 279.288 37.4121 279.023C38.0277 278.757 38.6922 278.623 39.3626 278.63L69.2462 279.402C69.4941 279.411 69.7408 279.442 69.9834 279.494C70.6387 279.616 71.2603 279.877 71.8063 280.26C72.3522 280.643 72.8099 281.138 73.1485 281.713C73.4871 282.288 73.6988 282.928 73.7693 283.592C73.8397 284.255 73.7674 284.926 73.5571 285.559L68.364 323.74ZM36.7036 291.581L34.7473 284.57C34.5247 283.76 34.5196 282.906 34.7324 282.093C34.6374 282.093 34.5537 282.048 34.4588 282.048C33.1174 282.02 31.8198 282.526 30.8505 283.454C29.8811 284.382 29.3191 285.657 29.2877 287C29.2563 288.342 29.7581 289.642 30.6829 290.615C31.6078 291.587 32.8803 292.153 34.2215 292.188C35.0887 292.216 35.9468 292.006 36.7036 291.581Z" fill="#2F2E41"/>
<path d="M69.9834 279.493C69.3467 283.137 62.1888 285.698 53.5818 285.253C45.6672 284.888 39.1957 282.106 38.0101 278.81C38.4489 278.68 38.9052 278.619 39.3626 278.63L69.2463 279.402C69.4942 279.411 69.7408 279.442 69.9834 279.493V279.493Z" fill="#3F3D56"/>
<path d="M52.0044 307.572C51.9651 307.562 51.9277 307.546 51.8938 307.523L47.6748 304.76C47.6238 304.726 47.5819 304.681 47.5529 304.627C47.5239 304.574 47.5086 304.514 47.5086 304.453C47.5086 304.392 47.5238 304.332 47.5527 304.278C47.5817 304.225 47.6236 304.179 47.6746 304.146L52.0597 301.271C52.0999 301.245 52.1451 301.226 52.1925 301.217C52.2398 301.208 52.2886 301.208 52.3358 301.218C52.3831 301.228 52.428 301.247 52.4679 301.274C52.5078 301.301 52.542 301.336 52.5684 301.376C52.5949 301.417 52.6131 301.462 52.6221 301.509C52.631 301.557 52.6305 301.605 52.6206 301.653C52.6106 301.7 52.5915 301.745 52.5642 301.785C52.5369 301.824 52.502 301.859 52.4616 301.885L48.5449 304.452L52.2951 306.909C52.3678 306.957 52.4212 307.029 52.4459 307.112C52.4706 307.195 52.465 307.284 52.4302 307.364C52.3953 307.444 52.3334 307.508 52.2554 307.546C52.1775 307.584 52.0886 307.593 52.0045 307.572H52.0044Z" fill="#735DFB"/>
<path d="M58.6683 307.88C58.5975 307.862 58.5336 307.823 58.4849 307.769C58.4362 307.714 58.4049 307.646 58.395 307.574C58.385 307.502 58.3969 307.428 58.4292 307.362C58.4614 307.297 58.5124 307.242 58.5758 307.206L62.4647 304.974L58.7059 302.18C58.6673 302.151 58.6347 302.115 58.61 302.074C58.5853 302.033 58.569 301.987 58.562 301.939C58.5549 301.892 58.5574 301.843 58.5691 301.796C58.5809 301.75 58.6017 301.706 58.6304 301.667C58.659 301.628 58.6951 301.596 58.7364 301.571C58.7777 301.546 58.8234 301.53 58.871 301.523C58.9186 301.516 58.9671 301.518 59.0138 301.53C59.0605 301.542 59.1044 301.563 59.143 301.591L63.3513 304.72C63.4002 304.756 63.4393 304.804 63.465 304.859C63.4908 304.914 63.5025 304.975 63.4989 305.036C63.4953 305.097 63.4766 305.156 63.4445 305.208C63.4125 305.259 63.368 305.302 63.3152 305.333L58.9407 307.842C58.8582 307.89 58.7605 307.903 58.6683 307.88V307.88Z" fill="#735DFB"/>
<path d="M52.4241 309.994C52.3887 309.985 52.3548 309.971 52.3237 309.952C52.2825 309.927 52.2467 309.894 52.2182 309.855C52.1897 309.816 52.1692 309.772 52.1578 309.725C52.1464 309.678 52.1443 309.63 52.1517 309.582C52.1591 309.534 52.1758 309.489 52.2008 309.448L58.1815 299.607C58.2322 299.524 58.3138 299.464 58.4082 299.441C58.5027 299.419 58.6023 299.434 58.6853 299.485C58.7683 299.535 58.8279 299.617 58.8509 299.711C58.8739 299.806 58.8585 299.906 58.8081 299.989L52.8274 309.83C52.7866 309.897 52.7254 309.949 52.6529 309.978C52.5803 310.008 52.5001 310.014 52.4241 309.994Z" fill="#735DFB"/>
<path d="M388.651 191.43H421.058C422.38 191.43 423.452 192.503 423.452 193.826V196.995C423.452 198.318 422.38 199.39 421.058 199.39H388.651C387.329 199.39 386.258 198.318 386.258 196.995V193.826C386.258 192.503 387.329 191.43 388.651 191.43Z" fill="#735DFB"/>
<path d="M369.762 207.35H439.948C441.27 207.35 442.341 208.423 442.341 209.746V212.914C442.341 214.238 441.27 215.31 439.948 215.31H369.762C368.44 215.31 367.368 214.238 367.368 212.914V209.746C367.368 208.423 368.44 207.35 369.762 207.35Z" fill="#E6E6E6"/>
<path d="M369.762 223.271H439.948C441.27 223.271 442.341 224.343 442.341 225.666V228.835C442.341 230.158 441.27 231.231 439.948 231.231H369.762C368.44 231.231 367.368 230.158 367.368 228.835V225.666C367.368 224.343 368.44 223.271 369.762 223.271Z" fill="#E6E6E6"/>
<path d="M363.812 276.58L363.654 277.083L363.645 277.099L358.86 291.659L353.355 308.438L342.999 339.968L342.899 344.866V344.883L342.129 384.284L344.262 389.626L341.861 398.383C341.861 398.383 342.965 385.145 348.888 392.747C352.243 397.068 356.166 401.488 359.387 405.633C354.694 407.533 349.926 409.252 345.082 410.79C344.036 411.125 342.982 411.443 341.928 411.761C341.702 411.828 341.476 411.895 341.25 411.962C325.194 416.714 308.595 419.385 291.86 419.908C290.99 419.933 290.137 419.95 289.308 419.966C289.016 419.975 288.731 419.983 288.447 419.983C287.51 419.992 286.581 420 285.644 420C283.754 420 281.871 419.972 279.998 419.916C266.128 419.525 252.339 417.659 238.864 414.348C238.956 408.781 239.207 402.275 239.567 395.326C239.734 391.919 243.49 388.226 243.716 384.66C243.875 381.98 240.503 379.46 240.679 376.739C241.817 359.986 243.239 366.417 244.293 354.553C244.402 353.389 244.502 352.276 244.594 351.213C245.272 343.594 245.74 338.83 245.74 338.83L241.24 310.439L234.171 265.863L234.714 264.968L235.325 264.666L272.611 246.197L274.635 241.006C275.225 239.51 276.248 238.225 277.574 237.317C278.899 236.408 280.466 235.917 282.072 235.907L306.634 235.806C307.908 235.8 309.166 236.099 310.302 236.677C311.438 237.255 312.421 238.096 313.167 239.13L319.818 248.348L363.812 276.58Z" fill="#3F3D56"/>
<path d="M337.335 332.953L342.898 344.867L346.696 353.005L353.23 387.24L356.501 390.714L359.303 378.414L388.635 384.932C389.597 379.582 388.892 385.113 389.486 379.244C389.319 379.077 389.143 378.909 388.968 378.742C388.499 378.306 388.106 377.896 388.114 377.503C388.449 357.258 387.445 322.805 379.063 301.933C377.75 298.525 376.019 295.293 373.91 292.313C373.742 292.086 373.583 291.86 373.424 291.634C369.559 286.217 367.117 280.884 363.653 277.091V277.083C363.632 277.066 363.612 277.046 363.595 277.024C363.582 277.018 363.571 277.01 363.561 276.999L339.77 264.374L338.749 293.074L338.021 313.704L337.335 332.953Z" fill="#3F3D56"/>
<path d="M251.546 336.336L244.597 351.217L242.172 356.399L235.64 390.631L232.38 394.097L229.571 381.8L228.251 381.529L204.448 376.595L197.511 398.647C195.947 396.04 195.331 392.972 195.767 389.962C196.202 386.952 197.663 384.186 199.902 382.13C200.376 381.701 200.771 381.283 200.76 380.888C200.365 357.077 201.82 313.598 214.962 295.703C219.136 290.024 221.641 284.367 225.284 280.416C225.296 280.405 225.296 280.393 225.307 280.393L234.174 265.863L234.715 264.971L235.324 264.666L251.546 336.336Z" fill="#3F3D56"/>
<path d="M293.643 228.811C275.597 228.811 260.967 214.169 260.967 196.108C260.967 178.046 275.597 163.405 293.643 163.405C311.69 163.405 326.319 178.046 326.319 196.108C326.319 214.169 311.69 228.811 293.643 228.811Z" fill="#FFB6B6"/>
<path d="M249.478 173.265C249.731 172.994 250.036 172.777 250.375 172.627C250.714 172.477 251.08 172.397 251.451 172.392L250.959 171.026C250.799 170.596 250.756 170.131 250.834 169.679C250.912 169.227 251.109 168.804 251.404 168.453C251.7 168.102 252.083 167.836 252.515 167.682C252.947 167.528 253.413 167.492 253.863 167.577L255.653 167.922L255.484 166.726C255.419 166.28 255.472 165.825 255.636 165.406C255.8 164.987 256.07 164.618 256.42 164.335C256.77 164.052 257.188 163.865 257.632 163.793C258.076 163.72 258.531 163.765 258.952 163.922C259.336 164.073 259.749 164.136 260.16 164.107C260.571 164.078 260.97 163.957 261.329 163.753C261.688 163.556 262.001 163.282 262.244 162.951C262.487 162.62 262.655 162.24 262.737 161.838L263.36 158.828L263.426 158.667C266.462 153.603 272.299 149.918 279.442 148.568C285.8 147.357 292.319 147.973 298.604 148.553C301.097 148.788 303.913 149.052 306.26 150.491C308.254 151.724 309.941 154.19 309.596 156.678C315.793 154.777 322.437 158.571 325.73 163.357C329.631 169.052 330.269 176.186 330.372 181.764C330.65 194.96 327.93 205.756 322.305 213.859C321.894 214.446 321.792 215.672 320.978 216.083L321.146 215.811C320.237 216.266 319.313 217 319.658 217.785C320.648 220.046 314.07 225.044 309.435 226.695C300.98 229.712 289.738 229.455 281.832 228.369L281.554 226.497C278.701 226.108 276.692 225.367 276.127 224.207C275.13 223.356 274.279 222.593 273.538 221.888L273.531 221.881C273.516 221.866 273.487 221.844 273.473 221.829C269.901 218.402 269.073 216.45 268.699 213.477C268.339 210.564 268.977 207.606 269.63 204.942C255.887 207.07 275.042 190.292 262.238 187.048C262.091 187.003 261.942 186.966 261.791 186.938C261.417 186.85 261.043 186.762 260.683 186.659C258.951 186.189 257.293 185.48 255.755 184.553C252.177 182.373 250.996 179.481 249.148 176.223C248.881 175.759 248.769 175.222 248.829 174.69C248.888 174.158 249.116 173.659 249.478 173.265V173.265Z" fill="#2F2E41"/>
<path d="M178.073 338.665C178.081 339.949 178.095 341.747 178.154 343.971C178.161 344.279 178.169 344.595 178.176 344.918C178.271 349.006 178.367 352.433 178.521 356.242C178.528 356.507 178.535 356.764 178.55 357.028C178.755 362.341 179.078 368.529 179.635 378.327C180.669 396.425 182.473 380.815 184.285 387.163C184.373 387.479 184.468 387.853 184.556 388.293C184.83 389.891 185.293 391.451 185.935 392.939C186.895 393.512 187.885 394.062 188.861 394.613C191.64 396.161 194.463 397.651 197.309 399.068C198.907 399.86 200.513 400.638 202.127 401.387C202.383 401.504 202.633 401.622 202.882 401.732C211.144 405.556 219.658 408.808 228.365 411.464C230.067 411.978 231.761 412.477 233.477 412.939C235.266 413.438 237.055 413.908 238.867 414.348C252.341 417.659 266.13 419.526 279.999 419.919C281.869 419.977 283.754 419.999 285.646 419.999C286.584 419.999 287.508 419.992 288.447 419.985C288.733 419.985 289.019 419.977 289.305 419.97C290.134 419.948 290.992 419.933 291.857 419.911C308.593 419.389 325.192 416.718 341.247 411.963L341.929 411.765C342.985 411.442 344.034 411.126 345.082 410.789C349.922 409.255 354.691 407.537 359.39 405.636C362.976 404.19 366.52 402.639 370.023 400.983C370.055 400.975 370.085 400.96 370.111 400.939C370.844 400.602 371.585 400.249 372.318 399.89C372.414 399.838 372.516 399.787 372.619 399.735C375.354 398.4 378.06 397 380.737 395.537C382.988 390.363 386.156 389.372 388.122 384.822C388.694 383.47 389.107 382.056 389.354 380.609C389.354 380.594 389.361 380.58 389.361 380.558C389.156 383.288 390.234 375.714 389.368 380.528C389.376 380.44 389.383 380.345 389.39 380.235C389.412 379.971 389.442 379.648 389.486 379.244C392.001 354.665 391.84 326.555 392.932 303.392C393.006 301.895 393.081 300.461 393.16 299.091C393.182 298.636 393.211 298.188 393.24 297.748C393.189 297.616 393.13 297.476 393.064 297.344C393.05 297.306 393.033 297.269 393.013 297.234C392.991 297.189 392.967 297.144 392.94 297.102C392.925 297.08 392.903 297.051 392.888 297.029C392.878 297.003 392.865 296.979 392.852 296.955C392.786 296.852 392.712 296.742 392.632 296.64C392.595 296.596 392.566 296.559 392.529 296.522C392.504 296.485 392.474 296.45 392.441 296.419C392.418 296.384 392.391 296.352 392.36 296.324C392.331 296.295 392.302 296.258 392.265 296.221C392.249 296.198 392.229 296.178 392.206 296.163C392.148 296.096 392.084 296.035 392.016 295.979C391.754 295.738 391.474 295.517 391.18 295.319C391.077 295.253 390.967 295.186 390.864 295.113C390.125 294.671 389.347 294.297 388.54 293.997C388.261 293.895 387.982 293.799 387.682 293.697C387.572 293.667 387.469 293.631 387.359 293.594C387.198 293.542 387.036 293.491 386.868 293.454C386.032 293.205 385.13 292.992 384.154 292.794C384.037 292.772 383.912 292.75 383.788 292.72C383.612 292.684 383.428 292.654 383.245 292.625C382.996 292.581 382.739 292.537 382.482 292.493C380.304 292.148 377.833 291.891 375.105 291.722C374.848 291.708 374.592 291.693 374.335 291.678C374.034 291.664 373.734 291.649 373.426 291.634C373.169 291.62 372.905 291.612 372.641 291.605C372.384 291.59 372.12 291.583 371.849 291.576C371.108 291.553 370.346 291.531 369.568 291.517C367.354 291.473 365.022 291.487 362.572 291.539C361.436 291.568 360.277 291.598 359.089 291.649C359.008 291.649 358.935 291.656 358.862 291.656C357.828 291.693 356.786 291.737 355.716 291.796C354.968 291.832 354.212 291.869 353.457 291.913C352.746 291.957 352.027 292.001 351.301 292.053C350.736 292.082 350.172 292.126 349.6 292.163C349.116 292.199 348.632 292.236 348.148 292.265L347.488 292.309C347.128 292.339 346.769 292.361 346.402 292.398C345.596 292.464 344.789 292.53 343.968 292.596C343.154 292.669 342.325 292.742 341.496 292.816C340.668 292.889 339.832 292.97 338.996 293.051C338.908 293.058 338.827 293.065 338.746 293.073C337.984 293.153 337.221 293.227 336.451 293.308C336.275 293.322 336.092 293.337 335.916 293.359C335.182 293.433 334.433 293.519 333.692 293.598C333.465 293.623 333.239 293.646 333.011 293.671C332.43 293.735 331.858 293.789 331.274 293.858C330.504 293.946 329.719 294.027 328.956 294.13C328.362 294.196 327.768 294.262 327.174 294.335C326.243 294.445 325.297 294.563 324.351 294.687C323.992 294.731 323.632 294.775 323.273 294.827C320.574 295.164 317.846 295.539 315.074 295.928C310.873 296.522 306.605 297.168 302.307 297.865C298.003 298.563 293.673 299.299 289.32 300.074C288.22 300.273 287.12 300.471 286.013 300.676C285.514 300.772 285.015 300.867 284.517 300.962C283.666 301.117 282.815 301.278 281.965 301.44C281.114 301.601 280.263 301.762 279.413 301.931C278.401 302.129 277.381 302.328 276.369 302.526C269.703 303.847 263.074 305.256 256.606 306.731C255.543 306.973 254.479 307.223 253.423 307.465C251.311 307.957 249.219 308.456 247.146 308.962C246.574 309.095 246.009 309.234 245.445 309.373C244.037 309.726 242.629 310.078 241.243 310.438L241.001 310.504C239.981 310.753 238.984 311.01 237.987 311.274C235.633 311.891 233.318 312.515 231.042 313.146C229.531 313.564 228.038 313.987 226.561 314.416C224.354 315.054 222.191 315.7 220.086 316.353C219.565 316.515 219.045 316.676 218.531 316.83C216.991 317.307 215.473 317.792 213.999 318.276C212.826 318.658 211.682 319.047 210.553 319.436C209.423 319.825 208.316 320.214 207.231 320.603C206.534 320.852 205.845 321.116 205.155 321.366C204.165 321.733 203.19 322.1 202.237 322.467C201.943 322.577 201.657 322.694 201.371 322.804C201.188 322.885 201.012 322.951 200.836 323.025C200.491 323.164 200.139 323.296 199.802 323.436C199.457 323.568 199.12 323.707 198.783 323.854C198.453 323.986 198.115 324.125 197.793 324.265C197.463 324.397 197.14 324.536 196.817 324.683C196.546 324.793 196.282 324.911 196.025 325.028C195.505 325.256 194.984 325.483 194.478 325.718C194.229 325.836 193.979 325.946 193.73 326.063L193.158 326.327C193.077 326.371 192.997 326.408 192.916 326.445C192.733 326.533 192.542 326.628 192.359 326.716C191.933 326.914 191.515 327.127 191.105 327.325C190.555 327.604 190.019 327.883 189.506 328.155C188.985 328.434 188.479 328.713 187.995 328.984C187.915 329.028 187.841 329.072 187.761 329.116C187.651 329.175 187.541 329.241 187.431 329.3C187.057 329.513 186.697 329.733 186.338 329.946C185.634 330.379 184.967 330.804 184.343 331.23C184.204 331.325 184.072 331.421 183.933 331.509C183.471 331.839 183.031 332.162 182.62 332.492C182.62 332.5 182.62 332.5 182.613 332.5C182.473 332.602 182.341 332.712 182.209 332.815C182.099 332.918 181.982 333.006 181.872 333.109C181.491 333.439 181.139 333.755 180.816 334.078C180.708 334.177 180.605 334.283 180.508 334.393C180.465 334.429 180.426 334.468 180.391 334.511C180.244 334.657 180.112 334.804 179.987 334.951C179.968 334.971 179.951 334.993 179.936 335.017C179.76 335.223 179.599 335.428 179.445 335.634C179.371 335.736 179.291 335.839 179.225 335.942C179.137 336.067 179.049 336.199 178.975 336.323C178.909 336.426 178.851 336.536 178.792 336.639C178.637 336.904 178.504 337.181 178.396 337.468C178.314 337.663 178.248 337.864 178.198 338.07C178.143 338.265 178.101 338.464 178.073 338.665V338.665Z" fill="#2F2E41"/>
<path opacity="0.2" d="M178.073 338.665C178.081 339.949 178.095 341.747 178.154 343.971C178.161 344.279 178.176 344.595 178.183 344.918C178.257 348.037 178.367 351.89 178.521 356.242C178.528 356.506 178.535 356.763 178.55 357.028C178.755 362.341 179.078 368.528 179.635 378.326C180.669 396.425 182.473 380.814 184.285 387.163C189.315 384.066 194.83 380.822 200.726 377.49C201.789 376.888 202.862 376.284 203.945 375.677C215.737 369.093 228.908 362.194 242.658 355.362C243.201 355.09 243.751 354.818 244.293 354.554C275.79 338.973 310.168 323.817 338.02 313.703C343.396 311.751 348.529 309.99 353.354 308.441C363.518 305.19 372.304 302.914 379.065 301.931C386.105 300.904 390.967 301.27 392.932 303.392C393.006 301.894 393.081 300.461 393.16 299.091C393.189 298.636 393.218 298.188 393.248 297.748C393.202 297.627 393.143 297.511 393.087 297.395C393.078 297.378 393.073 297.361 393.064 297.344C393.05 297.306 393.033 297.269 393.013 297.234C392.991 297.188 392.967 297.144 392.94 297.102C392.916 297.05 392.886 297 392.852 296.955C392.786 296.852 392.712 296.742 392.632 296.639C392.572 296.562 392.509 296.489 392.441 296.419C392.418 296.384 392.391 296.352 392.36 296.324C392.331 296.294 392.302 296.258 392.265 296.221C392.249 296.198 392.229 296.178 392.206 296.162C392.148 296.096 392.084 296.034 392.016 295.979C391.754 295.738 391.474 295.517 391.18 295.318C391.077 295.252 390.967 295.186 390.864 295.113C390.125 294.67 389.347 294.297 388.54 293.997C388.261 293.894 387.982 293.799 387.682 293.696C387.572 293.667 387.469 293.63 387.359 293.594C387.198 293.542 387.036 293.491 386.868 293.454C386.032 293.205 385.13 292.992 384.154 292.794C383.861 292.735 383.553 292.676 383.245 292.625C382.996 292.581 382.739 292.537 382.482 292.493C380.304 292.148 377.833 291.891 375.105 291.722C374.848 291.707 374.592 291.693 374.335 291.678C374.034 291.663 373.734 291.649 373.426 291.634C373.169 291.619 372.905 291.612 372.641 291.605C372.384 291.59 372.12 291.583 371.849 291.575C371.108 291.553 370.346 291.531 369.568 291.516C367.354 291.48 365.022 291.494 362.572 291.546C361.436 291.568 360.277 291.605 359.089 291.656C359.016 291.656 358.935 291.663 358.862 291.663C357.828 291.693 356.779 291.744 355.716 291.795C354.968 291.832 354.212 291.869 353.457 291.913C352.746 291.957 352.027 292.001 351.301 292.052C350.736 292.082 350.172 292.126 349.6 292.162C349.116 292.199 348.632 292.236 348.148 292.265C347.568 292.309 346.989 292.353 346.402 292.397C345.596 292.463 344.789 292.529 343.968 292.595C343.154 292.669 342.325 292.742 341.496 292.816C340.668 292.889 339.832 292.97 338.996 293.05C338.908 293.058 338.827 293.065 338.746 293.072C337.984 293.153 337.221 293.227 336.451 293.307C332.183 293.74 327.79 294.247 323.273 294.827C320.574 295.171 317.842 295.541 315.074 295.935C310.872 296.529 306.604 297.175 302.307 297.865C298.002 298.562 293.673 299.299 289.32 300.074C288.22 300.272 287.12 300.47 286.013 300.676C284.663 300.925 283.314 301.18 281.964 301.439C281.114 301.601 280.263 301.762 279.413 301.931C278.401 302.129 277.381 302.327 276.369 302.526C269.703 303.847 263.074 305.256 256.606 306.731C255.543 306.973 254.479 307.223 253.423 307.465C251.311 307.957 249.219 308.456 247.146 308.962C246.574 309.102 246.009 309.241 245.445 309.38C244.029 309.733 242.629 310.085 241.243 310.437V310.445C241.162 310.459 241.081 310.481 241.001 310.503C239.989 310.76 238.984 311.017 237.987 311.281C235.633 311.898 233.318 312.519 231.042 313.146C229.531 313.571 228.035 313.99 226.561 314.415C224.354 315.061 222.191 315.707 220.086 316.353C219.565 316.514 219.045 316.676 218.531 316.83C216.991 317.314 215.481 317.796 213.999 318.276C212.826 318.657 211.682 319.046 210.553 319.435C209.423 319.824 208.316 320.213 207.231 320.602C206.527 320.852 205.837 321.109 205.155 321.358C204.158 321.725 203.19 322.092 202.237 322.467C201.943 322.577 201.657 322.694 201.371 322.804C200.836 323.01 200.315 323.222 199.802 323.435C199.457 323.567 199.12 323.707 198.783 323.854C198.453 323.986 198.115 324.125 197.793 324.265C197.463 324.397 197.14 324.536 196.817 324.683C196.546 324.793 196.282 324.911 196.025 325.028C195.505 325.255 194.984 325.483 194.478 325.718C194.229 325.835 193.979 325.945 193.73 326.063L193.158 326.327C193.077 326.371 192.997 326.408 192.916 326.444C192.293 326.738 191.691 327.032 191.105 327.325C190.555 327.604 190.019 327.883 189.506 328.155C188.897 328.477 188.318 328.793 187.761 329.116C187.651 329.175 187.541 329.241 187.431 329.299C187.057 329.512 186.697 329.732 186.338 329.945C185.634 330.378 184.967 330.804 184.343 331.23C183.727 331.655 183.155 332.074 182.62 332.492C182.62 332.499 182.62 332.499 182.613 332.499C182.356 332.705 182.107 332.91 181.872 333.109C181.491 333.439 181.139 333.754 180.816 334.077C180.708 334.177 180.605 334.282 180.508 334.393C180.465 334.428 180.426 334.468 180.391 334.51C180.237 334.679 180.083 334.848 179.936 335.017C179.76 335.222 179.599 335.428 179.445 335.633C179.371 335.736 179.291 335.839 179.225 335.942C179.137 336.066 179.049 336.198 178.975 336.323C178.909 336.426 178.851 336.536 178.792 336.639C178.636 336.903 178.504 337.181 178.396 337.468C178.316 337.664 178.25 337.865 178.198 338.07C178.142 338.265 178.101 338.464 178.073 338.665V338.665Z" fill="black"/>
</g>
<defs>
<clipPath id="clip0_69_1317">
<rect width="577" height="420" fill="white" transform="matrix(-1 0 0 1 577 0)"/>
</clipPath>
</defs>
</svg>
