<svg width="1285" height="1276" viewBox="0 0 1285 1276" fill="none" xmlns="http://www.w3.org/2000/svg">
<path d="M999.203 692.077C908.492 955.891 614.479 1037.72 338.876 942.952C63.2723 848.186 66.2449 509.506 205.944 493.115C615.82 634.05 482.666 198.192 680.475 156.098C1099.84 176.128 1089.92 428.263 999.203 692.077Z" fill="#735DFB" fill-opacity="0.07"/>
<g clip-path="url(#clip0_673_2324)">
<path d="M1053.66 731.941C1054.75 732.041 1055.84 731.806 1056.78 731.267C1057.73 730.728 1058.49 729.912 1058.95 728.928C1059.42 727.944 1059.57 726.841 1059.39 725.768C1059.21 724.694 1058.7 723.703 1057.94 722.928C1057.83 722.39 1057.75 722.004 1057.64 721.466C1057.69 721.352 1057.75 721.239 1057.8 721.126C1059.02 718.592 1060.95 716.474 1063.37 715.037C1065.79 713.6 1068.57 712.909 1071.38 713.05C1074.19 713.191 1076.89 714.158 1079.15 715.83C1081.41 717.502 1083.12 719.804 1084.08 722.446C1087.9 732.995 1092.89 743.616 1093.72 754.62C1094.09 759.484 1093.61 764.375 1092.31 769.076C1103.43 747.532 1109.79 723.849 1110.95 699.634C1111.23 693.557 1111.18 687.469 1110.78 681.399C1110.46 676.422 1109.91 671.47 1109.14 666.543C1104.97 639.811 1094.5 614.45 1078.62 592.544C1070.66 587.711 1064.38 580.555 1060.61 572.042C1059.25 568.981 1058.33 565.738 1057.9 562.416C1058.81 562.579 1059.74 562.698 1060.66 562.801C1060.95 562.83 1061.25 562.859 1061.54 562.888L1061.64 562.897C1062.65 562.99 1063.67 562.789 1064.57 562.318C1065.47 561.847 1066.21 561.126 1066.71 560.243C1067.21 559.36 1067.44 558.351 1067.38 557.339C1067.32 556.327 1066.96 555.354 1066.36 554.538C1065.99 554.03 1065.61 553.523 1065.23 553.015C1064.67 552.233 1064.08 551.464 1063.51 550.681C1063.45 550.606 1063.38 550.528 1063.33 550.446C1062.67 549.553 1062.02 548.675 1061.36 547.783C1062.72 545.875 1064.5 544.306 1066.57 543.2C1073.72 539.448 1083.19 542.718 1087.93 549.246C1092.68 555.775 1093.22 564.649 1091.1 572.432C1089.07 579.043 1085.92 585.26 1081.8 590.817C1082.16 591.317 1082.53 591.804 1082.88 592.304C1089.37 601.495 1094.94 611.3 1099.51 621.577C1098.81 610.269 1100.81 598.956 1105.33 588.569C1109.88 578.903 1117.92 570.959 1125.07 562.753C1133.65 552.896 1150.06 558.136 1150.88 571.175C1150.89 571.302 1150.89 571.428 1150.9 571.554C1149.87 572.072 1148.86 572.626 1147.88 573.216C1146.63 573.965 1145.64 575.072 1145.04 576.392C1144.44 577.712 1144.25 579.183 1144.5 580.613C1144.74 582.042 1145.42 583.364 1146.43 584.404C1147.44 585.444 1148.74 586.155 1150.17 586.442L1150.31 586.472C1149.79 590.065 1148.99 593.613 1147.93 597.086C1144.86 606.775 1139.83 615.728 1133.14 623.382C1126.46 631.036 1118.26 637.226 1109.07 641.565C1108.46 641.84 1107.88 642.115 1107.27 642.374C1111.67 656.96 1114.15 672.056 1114.66 687.282C1114.92 696.263 1114.46 705.251 1113.28 714.159L1113.34 713.844C1115.74 703.989 1121.46 695.263 1129.55 689.139C1141.56 680.183 1158.05 677.447 1170.88 670.396C1172.25 669.607 1173.81 669.225 1175.39 669.294C1176.96 669.364 1178.48 669.882 1179.78 670.788C1181.07 671.695 1182.07 672.951 1182.67 674.409C1183.27 675.867 1183.44 677.466 1183.16 679.017C1183.14 679.128 1183.12 679.238 1183.09 679.348C1181.2 680.019 1179.35 680.806 1177.55 681.707C1176.52 682.226 1175.51 682.78 1174.52 683.369C1173.28 684.119 1172.29 685.225 1171.69 686.545C1171.09 687.865 1170.9 689.336 1171.14 690.766C1171.39 692.196 1172.07 693.517 1173.08 694.557C1174.09 695.598 1175.39 696.308 1176.82 696.596L1176.96 696.625C1177.07 696.645 1177.16 696.664 1177.26 696.684C1173.73 704.12 1168.95 710.892 1163.12 716.705C1155.92 723.734 1147.37 729.221 1137.98 732.829C1128.59 736.437 1118.56 738.09 1108.51 737.686L1108.49 737.685C1105.22 749.407 1100.73 760.756 1095.1 771.551L1052.97 769.59C1052.84 769.115 1052.73 768.626 1052.61 768.151C1056.5 768.578 1060.43 768.527 1064.3 768C1061.35 764.02 1058.41 760.011 1055.46 756.031C1055.4 755.957 1055.33 755.878 1055.28 755.796C1053.78 753.76 1052.27 751.738 1050.78 749.702L1050.78 749.7C1050.97 743.681 1051.94 737.713 1053.66 731.942L1053.66 731.941Z" fill="#F2F2F2"/>
<path d="M204.8 367.785C203.724 367.952 202.623 367.785 201.645 367.305C200.667 366.826 199.861 366.058 199.334 365.105C198.808 364.152 198.587 363.06 198.703 361.977C198.818 360.895 199.263 359.874 199.978 359.053C200.054 358.51 200.108 358.119 200.184 357.576C200.123 357.466 200.063 357.356 200.002 357.246C198.633 354.792 196.568 352.798 194.068 351.513C191.569 350.228 188.745 349.71 185.951 350.024C183.158 350.338 180.519 351.471 178.368 353.279C176.216 355.087 174.647 357.49 173.857 360.187C170.7 370.951 166.376 381.86 166.22 392.895C166.153 397.773 166.933 402.625 168.526 407.236C156.094 386.42 148.286 363.175 145.63 339.078C144.969 333.03 144.648 326.951 144.667 320.867C144.687 315.879 144.926 310.903 145.384 305.939C147.902 279 156.776 253.041 171.279 230.196C178.923 224.88 184.753 217.35 187.984 208.62C189.157 205.481 189.869 202.189 190.098 198.845C189.195 199.065 188.271 199.241 187.361 199.401C187.077 199.447 186.778 199.495 186.494 199.541L186.387 199.558C185.384 199.712 184.359 199.574 183.433 199.159C182.507 198.745 181.721 198.072 181.169 197.221C180.617 196.37 180.323 195.378 180.322 194.364C180.321 193.35 180.613 192.357 181.164 191.505C181.506 190.975 181.85 190.446 182.193 189.916C182.712 189.1 183.248 188.297 183.768 187.48C183.829 187.401 183.886 187.319 183.939 187.234C184.537 186.302 185.136 185.386 185.735 184.454C184.26 182.634 182.384 181.178 180.254 180.202C172.885 176.899 163.633 180.747 159.31 187.555C154.972 194.365 154.982 203.256 157.576 210.893C160.015 217.366 163.539 223.377 167.996 228.668C167.672 229.19 167.332 229.698 167.009 230.22C161.101 239.794 156.147 249.924 152.217 260.464C152.219 249.134 149.53 237.966 144.371 227.878C139.236 218.512 130.713 211.08 123.077 203.33C113.904 194.022 97.8509 200.265 97.8351 213.331C97.8349 213.457 97.8351 213.584 97.8356 213.71C98.894 214.164 99.9352 214.655 100.959 215.182C102.246 215.853 103.3 216.897 103.984 218.177C104.667 219.457 104.948 220.914 104.789 222.356C104.63 223.798 104.039 225.159 103.093 226.259C102.148 227.36 100.891 228.15 99.489 228.525L99.3454 228.563C100.092 232.117 101.107 235.609 102.383 239.009C106.039 248.491 111.616 257.116 118.763 264.342C125.911 271.568 134.474 277.241 143.917 281.004C144.536 281.241 145.14 281.479 145.757 281.701C142.27 296.53 140.726 311.75 141.165 326.978C141.453 335.959 142.467 344.901 144.197 353.719L144.117 353.408C141.117 343.721 134.863 335.365 126.413 329.752C113.878 321.555 97.2424 319.843 84.0019 313.597C82.5904 312.894 81.0072 312.609 79.439 312.776C77.8707 312.942 76.3829 313.554 75.1509 314.538C73.9189 315.522 72.9941 316.838 72.4857 318.33C71.9773 319.823 71.9064 321.429 72.2814 322.96C72.31 323.069 72.339 323.178 72.3682 323.286C74.3008 323.839 76.197 324.511 78.046 325.298C79.1044 325.753 80.1455 326.243 81.1693 326.771C82.4564 327.442 83.5107 328.486 84.1941 329.766C84.8775 331.046 85.1581 332.502 84.9992 333.945C84.8403 335.387 84.2493 336.747 83.3036 337.848C82.3579 338.949 81.1016 339.738 79.6994 340.113L79.5557 340.152C79.4521 340.178 79.3636 340.203 79.2602 340.229C83.2433 347.432 88.4371 353.896 94.614 359.338C102.228 365.91 111.105 370.858 120.7 373.879C130.296 376.9 140.407 377.93 150.415 376.906L150.43 376.904C154.428 388.402 159.61 399.452 165.894 409.878L207.821 405.32C207.921 404.838 208.004 404.342 208.089 403.862C204.234 404.528 200.313 404.719 196.412 404.432C199.107 400.278 201.8 396.095 204.495 391.941C204.557 391.862 204.614 391.78 204.666 391.694C206.032 389.57 207.414 387.459 208.779 385.334L208.78 385.332C208.212 379.337 206.875 373.44 204.802 367.786L204.8 367.785Z" fill="#F2F2F2"/>
<path d="M784.068 352.253C786.144 352.824 788.069 353.843 789.707 355.238C791.346 356.632 792.659 358.37 793.554 360.326C794.448 362.283 794.903 364.412 794.885 366.564C794.868 368.715 794.378 370.837 793.452 372.779L815.951 397.783L804.085 415.157L772.807 379.399C769.647 377.627 767.246 374.758 766.061 371.335C764.875 367.912 764.987 364.173 766.375 360.827C767.764 357.481 770.331 354.76 773.592 353.18C776.853 351.599 780.581 351.27 784.068 352.253Z" fill="#BC7882"/>
<path d="M994.706 413.652C992.677 410.352 990.017 407.485 986.878 405.215C983.739 402.945 980.182 401.316 976.411 400.423C972.641 399.53 968.732 399.39 964.907 400.01C961.082 400.631 957.418 402 954.124 404.04L880.128 449.85L800.309 382.028L780.45 400.511L868.627 514.869L983.232 455.149C980.557 456.542 997.937 418.91 994.706 413.652Z" fill="#D7D7D7"/>
<path d="M848.118 565.974C848.125 602.504 840.933 638.678 826.951 672.429C812.969 706.181 792.472 736.848 766.63 762.678C740.789 788.509 710.11 808.998 676.345 822.974C642.58 836.951 606.391 844.14 569.846 844.133C416.163 844.133 291.574 719.595 291.574 565.974C291.548 536.092 296.34 506.402 305.766 478.045C324.273 422.663 359.728 374.499 407.117 340.362C454.507 306.225 511.433 287.843 569.846 287.815C620.224 287.797 669.66 301.455 712.879 327.33C756.097 353.204 791.475 390.325 815.236 434.729C821.127 445.684 826.266 457.028 830.618 468.68C831.221 470.302 831.808 471.925 832.38 473.563V473.579C834.931 480.78 837.178 488.115 839.121 495.584C845.114 518.567 848.137 542.223 848.118 565.974Z" fill="#504E75"/>
<path d="M539.401 378.303C526.895 371.543 513.011 367.727 498.806 367.147C484.601 366.566 470.451 369.235 457.435 374.951C445.974 379.937 433.907 388.88 430.084 405.03C445.546 395.909 465.562 410.321 469.541 433.441L468.612 433.697C466.51 449.711 471.202 467.146 480.284 477.075C481.477 466.761 488.261 459.742 494.935 455.356C501.608 450.972 508.99 447.786 514.084 440.249C520.122 431.313 521.655 418.254 524.054 406.341C526.453 394.427 531.004 381.623 539.401 378.303Z" fill="white"/>
<path d="M452.848 514.576C448.566 521.005 442.846 525.038 437.713 530.06C432.596 535.098 427.726 541.897 426.706 550.629C426.057 556.223 427.062 561.909 426.922 567.566C426.783 573.221 424.897 579.588 421.048 580.994C414.972 583.189 410.334 571.908 404.089 571.12C399.126 570.502 394.659 578.306 396.096 585.074C397.534 591.843 404.29 594.84 408.17 590.421C411.679 596.309 409.206 606.987 403.934 608.795C403.378 612.504 402.821 616.197 402.28 619.906C388.954 610.587 375.489 601.115 364.157 587.469C351.554 572.422 343.737 553.953 341.71 534.434C340.241 518.749 342.421 500.807 335.217 488.738C329.45 479.08 319.556 476.947 310.651 477.55C309.028 477.658 307.389 477.844 305.766 478.045C311.018 462.279 317.687 447.02 325.693 432.457C327.505 431.68 329.189 430.633 330.687 429.351C338.973 422.32 342.653 408.088 349.377 398.244C349.81 397.61 350.259 396.992 350.722 396.389C357.602 387.411 366.816 382.79 375.721 378.494C395.431 368.929 415.714 359.24 436.523 360.569L430.602 361.14C423.692 380.488 416.776 399.835 409.855 419.183C408.804 422.15 407.742 425.122 406.671 428.1C402.744 439.102 398.693 450.816 399.296 463.132C399.652 470.426 402.187 478.215 407.011 480.718C411.509 483.036 416.425 480.193 420.769 477.38C422.609 476.206 424.434 475.031 426.273 473.841C432.874 469.591 440.187 465.234 447.159 468.077C453.544 470.673 458.259 479.343 459.156 488.692C459.978 497.78 457.759 506.884 452.848 514.576Z" fill="white"/>
<path d="M492.109 646.667C472.829 634.801 453.55 622.935 434.27 611.069L434.597 610.227C422.61 614.79 417.634 636.089 419.615 653.508C421.596 670.926 428.313 686.497 431.706 703.468C436.282 726.694 434.555 750.72 426.705 773.053C452.056 744.619 474.492 713.715 493.676 680.807C496.355 676.659 498.398 672.133 499.734 667.38C500.958 662.323 500.77 656.243 498.317 652.187C496.739 649.86 494.605 647.962 492.109 646.667Z" fill="white"/>
<path d="M416.019 430.791C413.972 435.392 413.184 441.528 415.042 446.288C416.939 451.15 420.95 453.348 424.643 455.177L435.296 460.455C438.84 462.211 442.66 463.985 446.273 462.54C450.63 460.798 453.652 453.969 452.87 447.63C452.038 440.883 447.784 436.243 443.85 432.291C438.344 426.762 432.838 421.232 427.333 415.702L424.23 419.501C420.874 422.773 418.097 426.591 416.019 430.791Z" fill="white"/>
<path d="M791.01 502.909C795.803 504.037 800.595 505.165 805.388 506.293C804.553 522.473 796.53 537.447 785.77 542.871C781.286 545.127 776.293 545.962 772.583 550.181C769.228 554.013 767.527 559.978 765.966 565.68C763.23 575.632 760.493 585.584 757.757 595.536C754.82 606.26 751.048 618.175 743.411 622.038C736.856 625.361 729.358 621.296 724.318 614.481C719.278 607.667 716.202 598.503 713.218 589.571C713.404 599.306 708.874 608.857 702.458 612.241C696.027 615.625 688.204 612.565 683.907 605.009C680.815 599.585 679.532 592.43 676.502 586.928C673.472 581.427 667.118 578.275 663.809 583.436C661.63 586.867 661.908 592.121 660.826 596.479C659.141 603.247 654.039 607.497 648.984 607.868C643.944 608.239 639.028 605.333 634.807 601.393C626.104 593.233 619.688 580.284 617.199 565.896C616.101 559.483 615.792 552.499 617.694 546.487C619.595 540.476 624.187 535.84 628.747 536.983C631.746 530.647 625.825 522.241 620.492 522.983C615.143 523.724 610.953 529.457 606.563 533.862C602.188 538.266 596.066 541.465 591.66 537.091C591.691 541.156 588.382 543.845 585.522 543.505C582.677 543.18 580.142 540.893 577.53 539.27C567.435 532.981 554.619 537.153 547.445 549.052C551.929 529.983 558.499 508.101 572.273 503.62C577.901 501.781 584.038 503.295 589.356 500.112C598.771 494.471 600.673 473.161 592.541 464.368C593.577 472.682 593.376 482.387 588.985 488.074C584.595 493.76 575.381 490.051 575.937 481.645C574.67 487.44 568.362 488.321 565.456 483.87C562.534 479.42 562.781 472.141 564.853 466.825C566.924 461.509 570.449 457.692 573.866 454.03C581.209 446.164 588.66 438.206 597.163 433.261C605.681 428.316 615.514 426.647 624.047 431.561C628.546 434.157 632.504 438.484 637.095 440.771C641.687 443.074 647.515 442.78 650.561 437.402C653.977 431.406 652.369 422.505 653.637 415.01C655.91 401.767 669.158 395.57 676.502 404.317C671.014 402.91 665.34 409.401 664.659 417.267C663.964 425.132 667.937 433.075 673.255 435.455C682.191 439.411 690.941 429.459 697.697 420.249C704.746 410.606 711.806 400.969 718.876 391.336C720.005 389.696 721.272 388.155 722.664 386.731C724.878 384.573 727.83 383.338 730.922 383.275C734.013 383.212 737.013 384.326 739.314 386.391C746.456 392.217 749.811 404.162 755.67 412.383C764.173 424.329 776.896 427.234 788.738 429.552C797.565 431.267 806.398 432.993 815.236 434.729C821.127 445.684 826.266 457.027 830.618 468.68C815.653 475.031 801.847 486.915 791.01 502.909Z" fill="white"/>
<path d="M819.549 688.843C812.925 702.286 805.222 715.17 796.514 727.368C790.949 724.988 784.966 729.238 779.756 733.225C774.314 737.397 767.775 741.461 762.194 737.66C756.489 733.766 754.65 722.871 756.458 714.233C758.267 705.61 762.781 698.748 767.156 692.227C771.794 685.304 776.757 678.118 783.203 675.429C789.666 672.74 797.967 676.542 799.853 685.721L804.429 685.567C801.863 682.043 803.208 674.749 806.656 673.467C810.629 671.968 814.076 677.423 816.426 682.244C817.477 684.423 818.544 686.618 819.549 688.843Z" fill="white"/>
<path d="M644.29 623.569C634.455 624.188 626.664 612.084 621.486 600.177C616.309 588.27 611.585 574.653 602.71 568.592C597.639 565.129 591.858 564.654 586.357 562.976C580.857 561.298 575.1 557.825 572.47 550.754L566.231 548.234C557.991 552.866 549.642 557.582 542.542 565.118C534.578 573.574 529.618 584.413 528.426 595.965C527.235 608.449 531.636 622.369 539.86 627.058C546.358 630.764 553.923 628.428 560.505 631.821C568.729 636.059 573.611 648.371 575.459 660.527C577.308 672.683 576.839 685.317 578.161 697.611C579.484 709.905 583.128 722.698 590.67 728.998C600.107 736.882 613.955 730.331 618.19 715.979C620.267 708.939 620.195 700.996 621.748 693.688C624.484 680.819 631.866 671.271 637.721 660.714C643.576 650.158 648.185 635.82 644.29 623.569Z" fill="white"/>
<path d="M547.097 497.113C548.015 497.957 548.871 498.865 549.659 499.831C550.474 501.237 550.891 502.838 550.863 504.463C550.835 506.088 550.365 507.675 549.501 509.052C550.686 508.985 551.844 508.672 552.902 508.135C553.96 507.598 554.895 506.847 555.648 505.93C557.443 503.886 559.022 501.662 560.36 499.294C561.363 497.659 562.43 495.448 561.749 493.506C561.285 492.181 560.186 491.615 559.416 490.618C558.195 489.038 557.892 486.529 557.26 484.36C555.895 479.676 552.626 476.232 549.077 475.739L549.57 475.833C548.087 476.341 547.052 478.694 547.38 480.812C547.678 482.74 548.918 484.341 548.795 486.308C548.617 489.136 545.79 490.463 545.615 493.292C545.588 494.711 546.12 496.083 547.097 497.113Z" fill="white"/>
<path d="M530.245 449.053C530.26 449.049 530.275 449.048 530.289 449.044C530.592 448.769 530.872 448.47 531.128 448.151L530.245 449.053Z" fill="#E6E6E6"/>
<path d="M533.195 462.328C535.37 460.93 536.584 457.064 535.865 453.828C535.151 450.613 532.622 448.45 530.289 449.044C529.612 449.73 528.772 450.233 527.848 450.505C526.924 450.777 525.945 450.809 525.005 450.599C523.563 450.228 521.979 449.273 520.729 450.359C520.013 451.17 519.512 452.147 519.272 453.202C518.809 454.622 518.346 456.043 517.883 457.463C517.663 457.972 517.606 458.536 517.719 459.078C517.808 459.295 517.951 459.486 518.135 459.632C518.318 459.778 518.537 459.875 518.768 459.912C521.546 460.731 524.324 461.549 527.102 462.368C529.126 462.964 531.311 463.539 533.195 462.328Z" fill="white"/>
<path d="M742.891 645.602C741.607 643.501 740.323 641.4 739.039 639.298C737.778 636.865 736.054 634.701 733.963 632.927C733.503 632.543 732.971 632.254 732.398 632.077C731.825 631.901 731.223 631.841 730.626 631.9C730.03 631.96 729.451 632.139 728.925 632.425C728.398 632.712 727.934 633.1 727.56 633.569L727.716 634.769C730.643 638.439 733.739 642.517 734.482 647.964C734.775 650.112 734.673 652.334 734.929 654.491C735.186 656.648 735.916 658.884 737.308 659.814C739.33 661.165 741.704 659.174 743.143 656.745C744.43 654.75 745.007 652.38 744.781 650.017C744.461 648.431 743.817 646.929 742.891 645.602Z" fill="white"/>
<path d="M800.036 565.35C800.407 562.916 800.778 560.482 801.15 558.048C801.753 555.374 801.828 552.609 801.371 549.906C801.267 549.316 801.046 548.752 800.721 548.249C800.397 547.745 799.974 547.311 799.48 546.973C798.985 546.634 798.427 546.398 797.84 546.279C797.252 546.159 796.647 546.158 796.059 546.275L795.405 547.294C795.28 551.986 795.022 557.099 792.081 561.744C790.921 563.575 789.411 565.21 788.218 567.026C787.025 568.841 786.142 571.022 786.609 572.63C787.286 574.964 790.384 574.969 793.05 574.037C795.32 573.339 797.288 571.897 798.638 569.944C799.414 568.525 799.89 566.961 800.036 565.35Z" fill="#E6E6E6"/>
<path d="M763.033 648.337C763.661 646.533 762.755 644.464 762.563 642.47C762.472 639.895 763.154 637.352 764.524 635.169C765.884 633.109 766.915 630.851 767.579 628.474C767.859 627.391 767.808 626.249 767.432 625.195C767.007 624.241 765.978 623.806 765.388 624.561L766.651 625.375C764.945 625.07 763.192 625.155 761.523 625.623C760.571 625.987 759.721 626.575 759.044 627.338C758.368 628.1 757.885 629.014 757.636 630.002C757.428 631.544 757.087 633.064 756.617 634.546C755.863 636.095 754.404 636.61 753.487 637.97C752.862 639.175 752.547 640.516 752.569 641.874C752.592 643.231 752.952 644.561 753.616 645.745C754.768 647.681 756.598 649.12 758.752 649.782C760.295 650.336 762.327 650.365 763.033 648.337Z" fill="white"/>
<path d="M798.903 659.155C799.461 660.606 800.208 661.977 801.126 663.232C802.843 664.962 805.177 663.899 807.26 663.479C809.15 663.18 811.087 663.399 812.863 664.111C814.639 664.823 816.19 666.003 817.35 667.524C816.542 663.496 814.779 659.721 812.208 656.516C809.638 653.311 806.336 650.769 802.579 649.104C797.668 647.102 792.496 646.909 787.389 646.729L786.506 646.955C788.754 653.496 795.813 653.35 798.903 659.155Z" fill="white"/>
<path d="M646.981 672.533L646.994 672.562C647.08 672.397 647.165 672.233 647.251 672.068L646.981 672.533Z" fill="#E6E6E6"/>
<path d="M641.54 683.062C640.353 685.216 639.332 687.457 638.487 689.765C637.367 693.505 636.626 697.348 636.274 701.236C635.998 703.446 635.912 706.27 637.298 707.347C637.696 707.611 638.176 707.721 638.649 707.657C639.122 707.592 639.556 707.358 639.869 706.998C640.639 706.184 641.268 705.248 641.733 704.228C644.456 699.54 646.57 694.524 648.025 689.302C649.351 683.801 649.338 677.325 646.994 672.562C645.176 676.062 643.358 679.562 641.54 683.062Z" fill="white"/>
<path d="M589.044 402.56C589.909 403.405 591.001 403.978 592.188 404.209C593.374 404.441 594.602 404.32 595.721 403.863C598.037 402.85 600.162 401.447 602.003 399.715C603.527 398.587 604.82 397.178 605.811 395.562C606.357 394.597 606.707 393.533 606.841 392.432C606.975 391.331 606.889 390.214 606.59 389.146C605.73 386.631 603.547 385.788 601.621 385.217C598.538 384.303 595.455 383.389 592.372 382.475L594.602 380.466C592.307 379.235 589.769 381.52 588.334 384.348C587.415 386.195 586.774 388.168 586.432 390.203C585.664 394.642 586.415 399.929 589.044 402.56Z" fill="#E6E6E6"/>
<path d="M643.477 384.294C644.346 385.252 645.547 385.843 646.836 385.948C648.125 386.053 649.406 385.663 650.418 384.859C651.29 384.204 652.014 383.374 652.543 382.422C653.072 381.469 653.394 380.416 653.489 379.331C653.707 376.907 652.508 374.212 650.795 374.003L651.187 371.733C647.888 371.138 643.828 371.018 642.06 375.023C641.464 376.557 641.281 378.221 641.53 379.848C641.778 381.475 642.45 383.008 643.477 384.294Z" fill="#E6E6E6"/>
<path d="M636.206 263.596C616.864 261.415 597.449 267.004 582.23 279.133C567.011 291.261 557.236 308.936 555.054 328.269C550.511 368.529 571.729 455.953 610.415 492.143C628.63 422.806 692.459 381.679 700.905 344.715C709.929 305.217 676.481 268.138 636.206 263.596Z" fill="#735DFB"/>
<path d="M622.829 353.097C636.047 353.097 646.763 342.385 646.763 329.172C646.763 315.959 636.047 305.248 622.829 305.248C609.61 305.248 598.895 315.959 598.895 329.172C598.895 342.385 609.61 353.097 622.829 353.097Z" fill="white"/>
<path d="M597.663 526.639C606.321 526.639 613.339 519.623 613.339 510.969C613.339 502.314 606.321 495.299 597.663 495.299C589.005 495.299 581.987 502.314 581.987 510.969C581.987 519.623 589.005 526.639 597.663 526.639Z" fill="#735DFB"/>
<path opacity="0.2" d="M642.632 312.032C645.326 313.65 647.675 315.783 649.544 318.308C651.414 320.834 652.767 323.703 653.528 326.751C654.288 329.8 654.44 332.968 653.976 336.075C653.511 339.182 652.439 342.168 650.82 344.861C649.201 347.554 647.067 349.901 644.541 351.77C642.014 353.639 639.144 354.992 636.094 355.752C629.935 357.287 623.418 356.313 617.977 353.045C623.525 354.278 629.331 353.498 634.355 350.844C639.38 348.19 643.295 343.835 645.401 338.558C647.507 333.282 647.666 327.429 645.848 322.046C644.031 316.663 640.357 312.103 635.483 309.181C638.005 309.739 640.419 310.702 642.632 312.032Z" fill="#231F20"/>
<path opacity="0.2" d="M700.999 344.792C692.553 381.756 628.724 422.883 610.508 492.22C606.87 488.784 603.491 485.084 600.399 481.149C620.868 415.974 680.724 376.372 688.884 340.658C696.188 308.693 675.672 278.315 646.234 265.482C681.869 274.436 709.269 308.596 700.999 344.792Z" fill="#231F20"/>
<path d="M411.918 356.946C397.393 355.308 382.813 359.505 371.384 368.613C359.955 377.722 352.614 390.995 350.976 405.513C347.564 435.747 363.498 501.399 392.55 528.577C406.229 476.507 454.162 445.622 460.505 417.863C467.282 388.202 442.163 360.357 411.918 356.946Z" fill="#735DFB"/>
<path d="M401.872 424.158C411.799 424.158 419.846 416.114 419.846 406.192C419.846 396.269 411.799 388.225 401.872 388.225C391.946 388.225 383.898 396.269 383.898 406.192C383.898 416.114 391.946 424.158 401.872 424.158Z" fill="white"/>
<path d="M382.974 554.482C389.475 554.482 394.746 549.213 394.746 542.714C394.746 536.215 389.475 530.947 382.974 530.947C376.472 530.947 371.201 536.215 371.201 542.714C371.201 549.213 376.472 554.482 382.974 554.482Z" fill="#735DFB"/>
<path opacity="0.2" d="M416.744 393.319C418.767 394.535 420.531 396.136 421.935 398.033C423.339 399.93 424.355 402.084 424.926 404.373C425.497 406.663 425.611 409.042 425.262 411.375C424.913 413.709 424.108 415.951 422.892 417.973C421.677 419.995 420.074 421.758 418.177 423.162C416.28 424.565 414.124 425.581 411.834 426.152C409.544 426.723 407.164 426.837 404.829 426.488C402.495 426.139 400.252 425.334 398.229 424.119C402.395 425.045 406.755 424.459 410.528 422.466C414.301 420.473 417.242 417.202 418.823 413.24C420.404 409.278 420.524 404.882 419.159 400.84C417.794 396.798 415.035 393.373 411.375 391.179C413.269 391.598 415.081 392.321 416.744 393.319Z" fill="#231F20"/>
<path opacity="0.2" d="M460.575 417.922C454.233 445.68 406.299 476.565 392.62 528.635C389.888 526.054 387.35 523.276 385.028 520.321C400.399 471.377 445.349 441.637 451.477 414.817C456.962 390.812 441.556 367.999 419.449 358.362C446.209 365.087 466.786 390.74 460.575 417.922Z" fill="#231F20"/>
<path d="M974.638 1007.79H954.904L945.515 931.703L974.642 931.704L974.638 1007.79Z" fill="#BC7882"/>
<path d="M985.254 1045.25H971.251L968.751 1032.03L962.35 1045.25H925.21C923.429 1045.25 921.696 1044.68 920.262 1043.62C918.828 1042.57 917.768 1041.08 917.239 1039.39C916.709 1037.69 916.736 1035.86 917.317 1034.18C917.897 1032.5 919.001 1031.05 920.466 1030.03L950.125 1009.56V996.199L981.321 998.06L985.254 1045.25Z" fill="#595871"/>
<path d="M898.201 1007.79H878.467L869.078 931.703L898.205 931.704L898.201 1007.79Z" fill="#BC7882"/>
<path d="M908.817 1045.25H894.814L892.314 1032.03L885.913 1045.25H848.773C846.992 1045.25 845.259 1044.68 843.825 1043.62C842.391 1042.57 841.331 1041.08 840.802 1039.39C840.272 1037.69 840.299 1035.86 840.88 1034.18C841.46 1032.5 842.564 1031.05 844.029 1030.03L873.688 1009.56V996.199L904.884 998.06L908.817 1045.25Z" fill="#595871"/>
<path d="M823.227 806.901C827.004 812.563 868.088 968.225 868.088 968.225L904.517 972.378L900.193 933.212L893.584 863.903L883.35 817.641C883.35 817.641 919.491 735.421 921.776 728.871L923.4 724.171L934.692 826.606C936.034 830.263 936.618 834.155 936.41 838.045C936.07 844.443 942.491 940.706 942.491 940.706L945.577 975.228L976.789 979.562L989.452 919.83C1000.03 900.426 993.965 831.476 989.641 825.058C985.317 818.641 987.035 773.945 987.035 773.945C992.557 772.002 1025.48 659.767 1009.01 660.43C1010.07 654.447 1010.9 649.105 1010.9 649.105L982.314 626.059L910.768 607.467L892.717 598.803C892.717 598.803 860.479 658.392 860.8 661.355C861.244 665.108 860.384 668.9 858.364 672.095L825.814 780.985C825.814 780.985 819.413 801.182 823.227 806.901Z" fill="#4E4D69"/>
<path d="M1002.98 417.251L991.593 393.095L952.854 394.583L940.218 419.714C940.218 419.714 904.106 462.828 902.937 476.848C901.467 494.48 913.685 580.895 901.467 575.294C901.467 575.294 872.664 609.089 889.708 609.089C906.751 609.089 983.847 657.466 988.905 662.906C993.964 668.346 1016.55 671.874 1014.65 660.516C1012.76 649.158 1002.98 587.734 1002.98 587.734L1029.46 491.149C1037.08 470.296 1039.46 446.906 1022.23 432.899L1002.98 417.251Z" fill="#D7D7D7"/>
<path d="M859.481 346.153C854.299 344.097 848.763 343.081 843.189 343.164C837.614 343.246 832.111 344.425 826.993 346.634C821.874 348.843 817.241 352.038 813.358 356.036C809.475 360.035 806.417 364.758 804.361 369.938C795.71 391.721 794.277 443.741 810.374 469.812C831.072 433.873 872.948 420.602 883.276 401.251C894.312 380.573 881.273 354.799 859.481 346.153Z" fill="#735DFB"/>
<path d="M842.055 394.566C849.701 394.566 855.9 388.37 855.9 380.727C855.9 373.083 849.701 366.887 842.055 366.887C834.408 366.887 828.21 373.083 828.21 380.727C828.21 388.37 834.408 394.566 842.055 394.566Z" fill="white"/>
<path d="M800.397 487.45C805.406 487.45 809.466 483.392 809.466 478.385C809.466 473.379 805.406 469.321 800.397 469.321C795.389 469.321 791.329 473.379 791.329 478.385C791.329 483.392 795.389 487.45 800.397 487.45Z" fill="#735DFB"/>
<path opacity="0.2" d="M855.712 374.164C858.249 376.815 859.629 380.364 859.549 384.031C859.469 387.698 857.936 391.184 855.287 393.722C852.638 396.26 849.089 397.643 845.42 397.567C841.751 397.491 838.263 395.962 835.721 393.316C838.63 394.847 841.99 395.292 845.197 394.573C848.405 393.854 851.252 392.017 853.229 389.391C855.206 386.766 856.183 383.522 855.986 380.242C855.79 376.962 854.431 373.859 852.155 371.488C853.477 372.183 854.679 373.086 855.712 374.164Z" fill="#231F20"/>
<path opacity="0.2" d="M883.316 401.308C872.988 420.66 831.113 433.93 810.415 469.87C808.906 467.399 807.582 464.821 806.453 462.156C827.777 428.882 867.203 415.859 877.182 397.162C886.114 380.428 879.275 360.358 864.793 348.727C883.323 359.133 893.43 382.359 883.316 401.308Z" fill="#231F20"/>
<path d="M796.31 475.264C798.418 474.83 800.596 474.863 802.69 475.361C804.784 475.859 806.743 476.81 808.43 478.146C810.117 479.483 811.489 481.173 812.452 483.098C813.414 485.022 813.943 487.134 814 489.285L845.411 501.337L842.739 522.203L798.621 504.561C795 504.418 791.557 502.952 788.945 500.441C786.333 497.931 784.733 494.549 784.448 490.938C784.163 487.327 785.213 483.737 787.4 480.848C789.586 477.959 792.756 475.973 796.31 475.264Z" fill="#BC7882"/>
<path d="M1015.78 432.264C1012.47 430.246 1008.8 428.9 1004.97 428.304C1001.14 427.708 997.236 427.873 993.471 428.791C989.707 429.708 986.16 431.359 983.036 433.649C979.911 435.94 977.269 438.824 975.262 442.137L930.177 516.558L828.242 492.405L818.955 517.891L949.494 579.7L1015.61 474.44C1025.51 460.535 1030.35 441.157 1015.78 432.264Z" fill="#D7D7D7"/>
<path d="M1017.47 341.059C1017.47 348.231 1015.71 355.295 1012.34 361.63C1008.98 367.965 1004.11 373.377 998.16 377.391C992.213 381.405 985.371 383.898 978.235 384.652C971.099 385.406 963.887 384.398 957.232 381.715C950.577 379.032 944.683 374.758 940.066 369.267C935.45 363.775 932.252 357.235 930.755 350.22C929.257 343.205 929.505 335.93 931.477 329.033C933.449 322.137 937.084 315.829 942.064 310.665L942.274 310.455C942.625 310.086 942.976 309.718 943.344 309.368C943.346 309.368 943.349 309.367 943.351 309.366C943.353 309.366 943.355 309.364 943.356 309.363C943.358 309.361 943.359 309.359 943.36 309.357C943.361 309.355 943.361 309.353 943.361 309.35C943.817 308.93 944.273 308.509 944.747 308.106C951.081 302.554 958.882 298.946 967.216 297.711C975.549 296.477 984.062 297.67 991.734 301.147C999.407 304.624 1005.91 310.238 1010.48 317.316C1015.04 324.395 1017.47 332.638 1017.47 341.059Z" fill="#47455C"/>
<path d="M962.827 387.942C983.129 387.942 999.587 371.491 999.587 351.197C999.587 330.904 983.129 314.452 962.827 314.452C942.525 314.452 926.067 330.904 926.067 351.197C926.067 371.491 942.525 387.942 962.827 387.942Z" fill="#B67982"/>
<path d="M1001.86 361.676L995.772 360.601C992.369 359.983 989.236 358.34 986.791 355.894C984.347 353.447 982.708 350.313 982.095 346.91L976.152 356.867L975.892 356.953C961.732 361.652 947 360.247 930.862 352.662C926.248 350.474 921.772 348.007 917.459 345.275L917.14 345.076L917.114 344.702C916.292 332.749 918.975 322.762 924.672 316.583C926.859 314.258 929.514 312.421 932.461 311.193C935.408 309.965 938.581 309.374 941.773 309.457C942 309.398 942.209 309.283 942.38 309.122C942.462 309.062 942.544 309.002 942.626 308.946V308.884L943.048 308.685C943.955 308.259 944.879 307.851 945.804 307.478C953.078 304.663 960.998 303.957 968.656 305.441C976.313 306.924 983.396 310.537 989.091 315.865C1000.41 326.67 1005.61 344.804 1002.01 360.99L1001.86 361.676Z" fill="#47455C"/>
<path d="M1079.4 392.983C1066.89 386.529 1082.98 363.105 1079.74 349.41C1076.51 335.714 1053.23 331.309 1051.75 317.316C1050.26 303.322 1046.77 288.89 1037.54 278.272C1031.63 271.486 1022.94 266.478 1013.98 267.327C1010.95 267.615 1008.02 268.552 1005.38 270.074C1002.75 271.597 1000.47 273.669 998.712 276.15C996.95 278.631 995.744 281.462 995.176 284.451C994.608 287.44 994.691 290.516 995.419 293.47C992.869 289.859 986.271 290.642 984.637 294.749C983.185 298.401 986.393 302.824 990.168 303.147C995.108 309.245 1000.76 315.717 1008.5 316.947C1009.74 317.23 1011.02 317.229 1012.25 316.945C1013.48 316.66 1014.63 316.1 1015.62 315.305C1017.44 313.557 1017.58 310.063 1015.42 308.757C1025.15 312.619 1030.85 323.13 1032.29 333.49C1033.73 343.85 1031.74 354.333 1030.42 364.71C1029.11 375.088 1028.54 386.004 1032.61 395.641C1037.42 407.027 1048.49 415.187 1060.58 417.804C1072.66 420.421 1085.53 417.863 1096.47 412.101C1107.41 406.338 1116.53 397.54 1123.98 387.678C1111.14 396.788 1093.39 400.201 1079.4 392.983Z" fill="#47455C"/>
<path d="M1000.3 360.655C1000.3 360.655 989.409 320.025 942.73 310.647C942.678 310.63 942.502 310.56 942.274 310.455C942.134 310.367 941.959 310.279 941.783 310.192C942.309 309.894 942.818 309.631 943.344 309.368L943.351 309.367L943.356 309.363L943.36 309.357L943.361 309.35C943.817 308.93 944.273 308.509 944.747 308.106L946.079 308.158C946.079 308.158 992.916 300.744 1000.3 360.655Z" fill="#7A65FD"/>
<path opacity="0.2" d="M975.918 491.026L949.554 521.558L905.993 508.7L953.482 530.575L975.918 491.026Z" fill="black"/>
<path d="M1134.16 1047.55L728.823 1048C728.36 1048 727.916 1047.81 727.589 1047.49C727.261 1047.16 727.078 1046.71 727.078 1046.25C727.078 1045.79 727.261 1045.34 727.589 1045.02C727.916 1044.69 728.36 1044.5 728.823 1044.5L1134.16 1044.05C1134.62 1044.05 1135.07 1044.23 1135.4 1044.56C1135.73 1044.89 1135.91 1045.33 1135.91 1045.8C1135.91 1046.26 1135.73 1046.71 1135.4 1047.04C1135.07 1047.36 1134.62 1047.55 1134.16 1047.55Z" fill="#CACACA"/>
<path d="M1151.95 775.661C1132.97 775.661 1112.17 774.944 1089.54 773.51C972.515 766.081 820.929 740.254 662.707 700.789C504.485 661.323 358.531 612.93 251.732 564.53C199.707 540.951 159.778 518.633 133.056 498.192C104.764 476.553 92.3882 457.691 96.2719 442.132C103.839 411.821 170.844 405.19 225.721 404.965L225.74 409.373C150.379 409.682 105.919 421.696 100.551 443.2C93.7132 470.589 149.481 513.348 253.553 560.515C360.117 608.809 505.803 657.108 663.775 696.513C821.745 735.915 973.053 761.698 1089.82 769.11C1203.86 776.351 1273.19 764.794 1280.03 737.405C1285.7 714.664 1248.28 681.165 1174.65 643.075L1176.67 639.161C1230.17 666.837 1292.28 706.532 1284.3 738.472C1280.42 754.031 1260.63 764.869 1225.48 770.684C1205.45 773.999 1180.84 775.661 1151.95 775.661Z" fill="#735DFB"/>
</g>
<path d="M32.7958 1082.65H47.3558C51.3424 1082.65 54.5318 1083.71 56.9238 1085.82C59.3505 1087.94 60.5638 1090.83 60.5638 1094.51C60.5638 1098.32 59.3678 1101.23 56.9758 1103.24C54.5838 1105.22 51.3598 1106.21 47.3038 1106.21H39.3998V1119H32.7958V1082.65ZM46.5238 1100.75C51.4811 1100.75 53.9598 1098.67 53.9598 1094.51C53.9598 1090.24 51.4811 1088.11 46.5238 1088.11H39.3998V1100.75H46.5238ZM64.7372 1080.57H71.2892V1119H64.7372V1080.57ZM91.5741 1119.78C86.9287 1119.78 83.2541 1118.62 80.5501 1116.3C77.8461 1113.97 76.4941 1110.73 76.4941 1106.57C76.4941 1102.48 77.6901 1099.24 80.0821 1096.85C82.4741 1094.46 85.8887 1093.26 90.3261 1093.26C93.2381 1093.26 95.7167 1093.81 97.7621 1094.92C99.8421 1096.03 101.402 1097.56 102.442 1099.5C103.482 1101.41 104.002 1103.59 104.002 1106.05V1109.07H82.7341C83.1847 1112.78 86.4087 1114.63 92.4061 1114.63C94.0007 1114.63 95.6301 1114.49 97.2941 1114.22C98.9581 1113.94 100.414 1113.56 101.662 1113.07V1118.12C100.483 1118.6 98.9581 1119 97.0861 1119.31C95.2487 1119.62 93.4114 1119.78 91.5741 1119.78ZM97.8141 1104.6C97.7447 1102.62 97.0341 1101.09 95.6821 1100.02C94.3647 1098.95 92.5447 1098.41 90.2221 1098.41C87.9341 1098.41 86.1314 1098.96 84.8141 1100.07C83.4967 1101.18 82.8034 1102.69 82.7341 1104.6H97.8141ZM118.374 1119.78C115.392 1119.78 112.948 1119 111.042 1117.44C109.135 1115.85 108.182 1113.71 108.182 1111.04C108.182 1108.27 109.083 1106.1 110.886 1104.54C112.688 1102.98 115.219 1102.2 118.478 1102.2C121.632 1102.2 124.354 1102.85 126.642 1104.13V1103.45C126.642 1101.68 126.087 1100.4 124.978 1099.6C123.903 1098.81 122.152 1098.41 119.726 1098.41C118.2 1098.41 116.692 1098.56 115.202 1098.88C113.711 1099.15 112.394 1099.55 111.25 1100.07V1094.92C112.29 1094.44 113.676 1094.04 115.41 1093.73C117.178 1093.42 118.876 1093.26 120.506 1093.26C124.839 1093.26 128.046 1094.2 130.126 1096.07C132.206 1097.91 133.246 1100.47 133.246 1103.76V1119H127.058V1116.56C125.983 1117.6 124.752 1118.39 123.366 1118.95C122.014 1119.5 120.35 1119.78 118.374 1119.78ZM119.986 1115C121.442 1115 122.759 1114.72 123.938 1114.16C125.116 1113.57 126.018 1112.78 126.642 1111.77V1109.02C124.735 1107.66 122.551 1106.99 120.09 1106.99C116.588 1106.99 114.838 1108.34 114.838 1111.04C114.838 1112.36 115.271 1113.35 116.138 1114.01C117.039 1114.67 118.322 1115 119.986 1115ZM148.196 1119.78C146.393 1119.78 144.469 1119.57 142.424 1119.16C140.378 1118.74 138.784 1118.17 137.64 1117.44V1111.88C138.992 1112.71 140.604 1113.38 142.476 1113.9C144.348 1114.39 146.116 1114.63 147.78 1114.63C149.444 1114.63 150.657 1114.49 151.42 1114.22C152.182 1113.9 152.564 1113.35 152.564 1112.55C152.564 1111.93 152.356 1111.43 151.94 1111.04C151.558 1110.63 150.917 1110.26 150.016 1109.95C149.149 1109.61 147.797 1109.19 145.96 1108.7C143.88 1108.11 142.233 1107.51 141.02 1106.88C139.841 1106.26 138.94 1105.48 138.316 1104.54C137.726 1103.57 137.432 1102.33 137.432 1100.8C137.432 1098.3 138.42 1096.43 140.396 1095.18C142.372 1093.9 145.041 1093.26 148.404 1093.26C150.137 1093.26 151.853 1093.43 153.552 1093.78C155.285 1094.09 156.637 1094.54 157.608 1095.13V1100.49C156.568 1099.86 155.302 1099.36 153.812 1098.98C152.321 1098.6 150.796 1098.41 149.236 1098.41C147.537 1098.41 146.254 1098.58 145.388 1098.93C144.521 1099.24 144.088 1099.86 144.088 1100.8C144.088 1101.42 144.313 1101.93 144.764 1102.31C145.249 1102.65 145.873 1102.97 146.636 1103.24C147.398 1103.49 148.785 1103.87 150.796 1104.39C152.945 1104.98 154.626 1105.62 155.84 1106.31C157.053 1107.01 157.92 1107.84 158.44 1108.81C158.96 1109.78 159.22 1110.99 159.22 1112.45C159.22 1114.67 158.266 1116.45 156.36 1117.8C154.488 1119.12 151.766 1119.78 148.196 1119.78ZM178.461 1119.78C173.815 1119.78 170.141 1118.62 167.437 1116.3C164.733 1113.97 163.381 1110.73 163.381 1106.57C163.381 1102.48 164.577 1099.24 166.969 1096.85C169.361 1094.46 172.775 1093.26 177.213 1093.26C180.125 1093.26 182.603 1093.81 184.649 1094.92C186.729 1096.03 188.289 1097.56 189.329 1099.5C190.369 1101.41 190.889 1103.59 190.889 1106.05V1109.07H169.621C170.071 1112.78 173.295 1114.63 179.293 1114.63C180.887 1114.63 182.517 1114.49 184.181 1114.22C185.845 1113.94 187.301 1113.56 188.549 1113.07V1118.12C187.37 1118.6 185.845 1119 183.973 1119.31C182.135 1119.62 180.298 1119.78 178.461 1119.78ZM184.701 1104.6C184.631 1102.62 183.921 1101.09 182.569 1100.02C181.251 1098.95 179.431 1098.41 177.109 1098.41C174.821 1098.41 173.018 1098.96 171.701 1100.07C170.383 1101.18 169.69 1102.69 169.621 1104.6H184.701ZM224.623 1119.78C221.26 1119.78 218.747 1118.88 217.083 1117.08C215.419 1115.24 214.587 1112.81 214.587 1109.8V1094.04H221.139V1109.17C221.139 1112.81 222.837 1114.63 226.235 1114.63C227.725 1114.63 229.129 1114.29 230.447 1113.59C231.764 1112.86 232.873 1111.79 233.775 1110.37V1094.04H240.327V1119H233.983V1115.62C232.804 1117.04 231.4 1118.1 229.771 1118.79C228.141 1119.45 226.425 1119.78 224.623 1119.78ZM246.585 1094.04H252.929V1097.06C254.281 1095.77 255.754 1094.82 257.349 1094.2C258.944 1093.57 260.764 1093.26 262.809 1093.26C265.34 1093.26 267.593 1093.81 269.569 1094.92C271.58 1096 273.14 1097.54 274.249 1099.55C275.393 1101.53 275.965 1103.83 275.965 1106.47C275.965 1109.07 275.393 1111.37 274.249 1113.38C273.14 1115.39 271.58 1116.97 269.569 1118.12C267.593 1119.23 265.34 1119.78 262.809 1119.78C260.902 1119.78 259.1 1119.52 257.401 1119C255.737 1118.45 254.316 1117.63 253.137 1116.56V1130.39H246.585V1094.04ZM261.197 1114.63C263.554 1114.63 265.496 1113.87 267.021 1112.34C268.546 1110.82 269.309 1108.86 269.309 1106.47C269.309 1104.08 268.546 1102.13 267.021 1100.64C265.496 1099.15 263.554 1098.41 261.197 1098.41C259.325 1098.41 257.661 1098.91 256.205 1099.92C254.749 1100.92 253.726 1102.27 253.137 1103.97V1109.02C253.692 1110.71 254.697 1112.08 256.153 1113.12C257.644 1114.13 259.325 1114.63 261.197 1114.63ZM281.167 1080.57H287.719V1119H281.167V1080.57ZM307.536 1119.78C304.624 1119.78 302.058 1119.26 299.84 1118.22C297.656 1117.15 295.957 1115.62 294.744 1113.64C293.53 1111.63 292.924 1109.26 292.924 1106.52C292.924 1103.85 293.513 1101.53 294.692 1099.55C295.905 1097.54 297.621 1096 299.84 1094.92C302.058 1093.81 304.624 1093.26 307.536 1093.26C310.448 1093.26 312.996 1093.81 315.18 1094.92C317.398 1096 319.114 1097.54 320.328 1099.55C321.541 1101.53 322.148 1103.85 322.148 1106.52C322.148 1109.26 321.541 1111.63 320.328 1113.64C319.114 1115.62 317.398 1117.15 315.18 1118.22C312.996 1119.26 310.448 1119.78 307.536 1119.78ZM307.536 1114.63C309.928 1114.63 311.834 1113.89 313.256 1112.4C314.677 1110.87 315.388 1108.91 315.388 1106.52C315.388 1103.99 314.677 1102.01 313.256 1100.59C311.869 1099.14 309.962 1098.41 307.536 1098.41C305.109 1098.41 303.185 1099.14 301.764 1100.59C300.377 1102.01 299.684 1103.99 299.684 1106.52C299.684 1108.91 300.394 1110.87 301.816 1112.4C303.237 1113.89 305.144 1114.63 307.536 1114.63ZM335.159 1119.78C332.177 1119.78 329.733 1119 327.827 1117.44C325.92 1115.85 324.967 1113.71 324.967 1111.04C324.967 1108.27 325.868 1106.1 327.671 1104.54C329.473 1102.98 332.004 1102.2 335.263 1102.2C338.417 1102.2 341.139 1102.85 343.427 1104.13V1103.45C343.427 1101.68 342.872 1100.4 341.763 1099.6C340.688 1098.81 338.937 1098.41 336.511 1098.41C334.985 1098.41 333.477 1098.56 331.987 1098.88C330.496 1099.15 329.179 1099.55 328.035 1100.07V1094.92C329.075 1094.44 330.461 1094.04 332.195 1093.73C333.963 1093.42 335.661 1093.26 337.291 1093.26C341.624 1093.26 344.831 1094.2 346.911 1096.07C348.991 1097.91 350.031 1100.47 350.031 1103.76V1119H343.843V1116.56C342.768 1117.6 341.537 1118.39 340.151 1118.95C338.799 1119.5 337.135 1119.78 335.159 1119.78ZM336.771 1115C338.227 1115 339.544 1114.72 340.723 1114.16C341.901 1113.57 342.803 1112.78 343.427 1111.77V1109.02C341.52 1107.66 339.336 1106.99 336.875 1106.99C333.373 1106.99 331.623 1108.34 331.623 1111.04C331.623 1112.36 332.056 1113.35 332.923 1114.01C333.824 1114.67 335.107 1115 336.771 1115ZM368.134 1119.78C365.604 1119.78 363.333 1119.24 361.322 1118.17C359.346 1117.06 357.786 1115.52 356.642 1113.54C355.533 1111.53 354.978 1109.21 354.978 1106.57C354.978 1103.97 355.533 1101.67 356.642 1099.66C357.786 1097.65 359.346 1096.09 361.322 1094.98C363.333 1093.83 365.604 1093.26 368.134 1093.26C372.225 1093.26 375.449 1094.33 377.806 1096.48V1080.57H384.358V1119H378.014V1116.09C376.593 1117.41 375.12 1118.36 373.594 1118.95C372.069 1119.5 370.249 1119.78 368.134 1119.78ZM369.746 1114.63C371.618 1114.63 373.282 1114.13 374.738 1113.12C376.194 1112.12 377.217 1110.77 377.806 1109.07V1104.02C377.252 1102.33 376.229 1100.97 374.738 1099.97C373.282 1098.93 371.618 1098.41 369.746 1098.41C367.389 1098.41 365.448 1099.17 363.922 1100.7C362.397 1102.22 361.634 1104.18 361.634 1106.57C361.634 1108.96 362.397 1110.91 363.922 1112.4C365.448 1113.89 367.389 1114.63 369.746 1114.63ZM421.455 1119.78C418.924 1119.78 416.653 1119.24 414.643 1118.17C412.667 1117.06 411.107 1115.52 409.963 1113.54C408.853 1111.53 408.299 1109.21 408.299 1106.57C408.299 1103.97 408.853 1101.67 409.963 1099.66C411.107 1097.65 412.667 1096.09 414.643 1094.98C416.653 1093.83 418.924 1093.26 421.455 1093.26C425.545 1093.26 428.769 1094.33 431.127 1096.48V1080.57H437.679V1119H431.335V1116.09C429.913 1117.41 428.44 1118.36 426.915 1118.95C425.389 1119.5 423.569 1119.78 421.455 1119.78ZM423.067 1114.63C424.939 1114.63 426.603 1114.13 428.059 1113.12C429.515 1112.12 430.537 1110.77 431.127 1109.07V1104.02C430.572 1102.33 429.549 1100.97 428.059 1099.97C426.603 1098.93 424.939 1098.41 423.067 1098.41C420.709 1098.41 418.768 1099.17 417.243 1100.7C415.717 1102.22 414.955 1104.18 414.955 1106.57C414.955 1108.96 415.717 1110.91 417.243 1112.4C418.768 1113.89 420.709 1114.63 423.067 1114.63ZM452.311 1119.78C449.33 1119.78 446.886 1119 444.979 1117.44C443.072 1115.85 442.119 1113.71 442.119 1111.04C442.119 1108.27 443.02 1106.1 444.823 1104.54C446.626 1102.98 449.156 1102.2 452.415 1102.2C455.57 1102.2 458.291 1102.85 460.579 1104.13V1103.45C460.579 1101.68 460.024 1100.4 458.915 1099.6C457.84 1098.81 456.09 1098.41 453.663 1098.41C452.138 1098.41 450.63 1098.56 449.139 1098.88C447.648 1099.15 446.331 1099.55 445.187 1100.07V1094.92C446.227 1094.44 447.614 1094.04 449.347 1093.73C451.115 1093.42 452.814 1093.26 454.443 1093.26C458.776 1093.26 461.983 1094.2 464.063 1096.07C466.143 1097.91 467.183 1100.47 467.183 1103.76V1119H460.995V1116.56C459.92 1117.6 458.69 1118.39 457.303 1118.95C455.951 1119.5 454.287 1119.78 452.311 1119.78ZM453.923 1115C455.379 1115 456.696 1114.72 457.875 1114.16C459.054 1113.57 459.955 1112.78 460.579 1111.77V1109.02C458.672 1107.66 456.488 1106.99 454.027 1106.99C450.526 1106.99 448.775 1108.34 448.775 1111.04C448.775 1112.36 449.208 1113.35 450.075 1114.01C450.976 1114.67 452.259 1115 453.923 1115ZM481.886 1119.78C479.148 1119.78 477.068 1119.02 475.646 1117.49C474.225 1115.97 473.514 1113.82 473.514 1111.04V1099.03H469.77V1094.04H473.514V1086.55H480.066V1094.04H486.046V1099.03H480.066V1110.21C480.066 1111.81 480.361 1112.95 480.95 1113.64C481.54 1114.3 482.614 1114.63 484.174 1114.63C485.249 1114.63 486.306 1114.39 487.346 1113.9V1118.9C485.856 1119.49 484.036 1119.78 481.886 1119.78ZM500.401 1119.78C497.42 1119.78 494.976 1119 493.069 1117.44C491.162 1115.85 490.209 1113.71 490.209 1111.04C490.209 1108.27 491.11 1106.1 492.913 1104.54C494.716 1102.98 497.246 1102.2 500.505 1102.2C503.66 1102.2 506.381 1102.85 508.669 1104.13V1103.45C508.669 1101.68 508.114 1100.4 507.005 1099.6C505.93 1098.81 504.18 1098.41 501.753 1098.41C500.228 1098.41 498.72 1098.56 497.229 1098.88C495.738 1099.15 494.421 1099.55 493.277 1100.07V1094.92C494.317 1094.44 495.704 1094.04 497.437 1093.73C499.205 1093.42 500.904 1093.26 502.533 1093.26C506.866 1093.26 510.073 1094.2 512.153 1096.07C514.233 1097.91 515.273 1100.47 515.273 1103.76V1119H509.085V1116.56C508.01 1117.6 506.78 1118.39 505.393 1118.95C504.041 1119.5 502.377 1119.78 500.401 1119.78ZM502.013 1115C503.469 1115 504.786 1114.72 505.965 1114.16C507.144 1113.57 508.045 1112.78 508.669 1111.77V1109.02C506.762 1107.66 504.578 1106.99 502.117 1106.99C498.616 1106.99 496.865 1108.34 496.865 1111.04C496.865 1112.36 497.298 1113.35 498.165 1114.01C499.066 1114.67 500.349 1115 502.013 1115ZM543.691 1089.67C542.651 1089.67 541.767 1089.33 541.039 1088.63C540.346 1087.94 539.999 1087.07 539.999 1086.03C539.999 1084.99 540.346 1084.13 541.039 1083.43C541.767 1082.7 542.651 1082.34 543.691 1082.34C544.731 1082.34 545.615 1082.7 546.343 1083.43C547.071 1084.13 547.435 1084.99 547.435 1086.03C547.435 1087.07 547.071 1087.94 546.343 1088.63C545.615 1089.33 544.731 1089.67 543.691 1089.67ZM540.363 1094.04H547.019V1119H540.363V1094.04ZM553.659 1094.04H560.003V1097.42C561.182 1096 562.586 1094.96 564.215 1094.3C565.844 1093.61 567.56 1093.26 569.363 1093.26C572.726 1093.26 575.239 1094.18 576.903 1096.02C578.567 1097.82 579.399 1100.23 579.399 1103.24V1119H572.847V1103.87C572.847 1100.23 571.148 1098.41 567.751 1098.41C566.26 1098.41 564.856 1098.77 563.539 1099.5C562.222 1100.19 561.112 1101.25 560.211 1102.67V1119H553.659V1094.04ZM603.096 1082.65H608.036V1092.69H603.096V1082.65ZM612.144 1082.65H617.084V1092.69H612.144V1082.65ZM637.553 1119.78C632.422 1119.78 628.539 1118.45 625.905 1115.78C623.305 1113.07 622.005 1109.43 622.005 1104.86V1082.65H628.609V1104.96C628.609 1107.84 629.406 1110.04 631.001 1111.56C632.63 1113.05 634.814 1113.8 637.553 1113.8C640.257 1113.8 642.406 1113.05 644.001 1111.56C645.63 1110.04 646.445 1107.84 646.445 1104.96V1082.65H653.049V1104.86C653.049 1109.43 651.749 1113.07 649.149 1115.78C646.549 1118.45 642.683 1119.78 637.553 1119.78ZM659.03 1094.04H665.374V1097.06C666.726 1095.77 668.199 1094.82 669.794 1094.2C671.389 1093.57 673.209 1093.26 675.254 1093.26C677.785 1093.26 680.038 1093.81 682.014 1094.92C684.025 1096 685.585 1097.54 686.694 1099.55C687.838 1101.53 688.41 1103.83 688.41 1106.47C688.41 1109.07 687.838 1111.37 686.694 1113.38C685.585 1115.39 684.025 1116.97 682.014 1118.12C680.038 1119.23 677.785 1119.78 675.254 1119.78C673.347 1119.78 671.545 1119.52 669.846 1119C668.182 1118.45 666.761 1117.63 665.582 1116.56V1130.39H659.03V1094.04ZM673.642 1114.63C675.999 1114.63 677.941 1113.87 679.466 1112.34C680.991 1110.82 681.754 1108.86 681.754 1106.47C681.754 1104.08 680.991 1102.13 679.466 1100.64C677.941 1099.15 675.999 1098.41 673.642 1098.41C671.77 1098.41 670.106 1098.91 668.65 1099.92C667.194 1100.92 666.171 1102.27 665.582 1103.97V1109.02C666.137 1110.71 667.142 1112.08 668.598 1113.12C670.089 1114.13 671.77 1114.63 673.642 1114.63ZM693.612 1080.57H700.164V1119H693.612V1080.57ZM719.981 1119.78C717.069 1119.78 714.504 1119.26 712.285 1118.22C710.101 1117.15 708.402 1115.62 707.189 1113.64C705.976 1111.63 705.369 1109.26 705.369 1106.52C705.369 1103.85 705.958 1101.53 707.137 1099.55C708.35 1097.54 710.066 1096 712.285 1094.92C714.504 1093.81 717.069 1093.26 719.981 1093.26C722.893 1093.26 725.441 1093.81 727.625 1094.92C729.844 1096 731.56 1097.54 732.773 1099.55C733.986 1101.53 734.593 1103.85 734.593 1106.52C734.593 1109.26 733.986 1111.63 732.773 1113.64C731.56 1115.62 729.844 1117.15 727.625 1118.22C725.441 1119.26 722.893 1119.78 719.981 1119.78ZM719.981 1114.63C722.373 1114.63 724.28 1113.89 725.701 1112.4C727.122 1110.87 727.833 1108.91 727.833 1106.52C727.833 1103.99 727.122 1102.01 725.701 1100.59C724.314 1099.14 722.408 1098.41 719.981 1098.41C717.554 1098.41 715.63 1099.14 714.209 1100.59C712.822 1102.01 712.129 1103.99 712.129 1106.52C712.129 1108.91 712.84 1110.87 714.261 1112.4C715.682 1113.89 717.589 1114.63 719.981 1114.63ZM747.604 1119.78C744.623 1119.78 742.179 1119 740.272 1117.44C738.365 1115.85 737.412 1113.71 737.412 1111.04C737.412 1108.27 738.313 1106.1 740.116 1104.54C741.919 1102.98 744.449 1102.2 747.708 1102.2C750.863 1102.2 753.584 1102.85 755.872 1104.13V1103.45C755.872 1101.68 755.317 1100.4 754.208 1099.6C753.133 1098.81 751.383 1098.41 748.956 1098.41C747.431 1098.41 745.923 1098.56 744.432 1098.88C742.941 1099.15 741.624 1099.55 740.48 1100.07V1094.92C741.52 1094.44 742.907 1094.04 744.64 1093.73C746.408 1093.42 748.107 1093.26 749.736 1093.26C754.069 1093.26 757.276 1094.2 759.356 1096.07C761.436 1097.91 762.476 1100.47 762.476 1103.76V1119H756.288V1116.56C755.213 1117.6 753.983 1118.39 752.596 1118.95C751.244 1119.5 749.58 1119.78 747.604 1119.78ZM749.216 1115C750.672 1115 751.989 1114.72 753.168 1114.16C754.347 1113.57 755.248 1112.78 755.872 1111.77V1109.02C753.965 1107.66 751.781 1106.99 749.32 1106.99C745.819 1106.99 744.068 1108.34 744.068 1111.04C744.068 1112.36 744.501 1113.35 745.368 1114.01C746.269 1114.67 747.552 1115 749.216 1115ZM780.58 1119.78C778.049 1119.78 775.778 1119.24 773.768 1118.17C771.792 1117.06 770.232 1115.52 769.088 1113.54C767.978 1111.53 767.424 1109.21 767.424 1106.57C767.424 1103.97 767.978 1101.67 769.088 1099.66C770.232 1097.65 771.792 1096.09 773.768 1094.98C775.778 1093.83 778.049 1093.26 780.58 1093.26C784.67 1093.26 787.894 1094.33 790.252 1096.48V1080.57H796.804V1119H790.46V1116.09C789.038 1117.41 787.565 1118.36 786.04 1118.95C784.514 1119.5 782.694 1119.78 780.58 1119.78ZM782.192 1114.63C784.064 1114.63 785.728 1114.13 787.184 1113.12C788.64 1112.12 789.662 1110.77 790.252 1109.07V1104.02C789.697 1102.33 788.674 1100.97 787.184 1099.97C785.728 1098.93 784.064 1098.41 782.192 1098.41C779.834 1098.41 777.893 1099.17 776.368 1100.7C774.842 1102.22 774.08 1104.18 774.08 1106.57C774.08 1108.96 774.842 1110.91 776.368 1112.4C777.893 1113.89 779.834 1114.63 782.192 1114.63ZM821.784 1082.65H833.952C837.904 1082.65 841.336 1083.38 844.248 1084.84C847.16 1086.29 849.396 1088.37 850.956 1091.08C852.516 1093.78 853.296 1096.97 853.296 1100.64C853.296 1106.68 851.545 1111.25 848.044 1114.37C844.543 1117.46 839.655 1119 833.38 1119H821.784V1082.65ZM833.484 1113.54C837.713 1113.54 840.955 1112.41 843.208 1110.16C845.496 1107.87 846.64 1104.7 846.64 1100.64C846.64 1098.18 846.137 1096.02 845.132 1094.14C844.127 1092.24 842.688 1090.76 840.816 1089.72C838.944 1088.65 836.725 1088.11 834.16 1088.11H828.388V1113.54H833.484ZM866.077 1119.78C863.095 1119.78 860.651 1119 858.745 1117.44C856.838 1115.85 855.885 1113.71 855.885 1111.04C855.885 1108.27 856.786 1106.1 858.589 1104.54C860.391 1102.98 862.922 1102.2 866.181 1102.2C869.335 1102.2 872.057 1102.85 874.345 1104.13V1103.45C874.345 1101.68 873.79 1100.4 872.681 1099.6C871.606 1098.81 869.855 1098.41 867.429 1098.41C865.903 1098.41 864.395 1098.56 862.905 1098.88C861.414 1099.15 860.097 1099.55 858.953 1100.07V1094.92C859.993 1094.44 861.379 1094.04 863.113 1093.73C864.881 1093.42 866.579 1093.26 868.209 1093.26C872.542 1093.26 875.749 1094.2 877.829 1096.07C879.909 1097.91 880.949 1100.47 880.949 1103.76V1119H874.761V1116.56C873.686 1117.6 872.455 1118.39 871.069 1118.95C869.717 1119.5 868.053 1119.78 866.077 1119.78ZM867.689 1115C869.145 1115 870.462 1114.72 871.641 1114.16C872.819 1113.57 873.721 1112.78 874.345 1111.77V1109.02C872.438 1107.66 870.254 1106.99 867.793 1106.99C864.291 1106.99 862.541 1108.34 862.541 1111.04C862.541 1112.36 862.974 1113.35 863.841 1114.01C864.742 1114.67 866.025 1115 867.689 1115ZM895.652 1119.78C892.913 1119.78 890.833 1119.02 889.412 1117.49C887.991 1115.97 887.28 1113.82 887.28 1111.04V1099.03H883.536V1094.04H887.28V1086.55H893.832V1094.04H899.812V1099.03H893.832V1110.21C893.832 1111.81 894.127 1112.95 894.716 1113.64C895.305 1114.3 896.38 1114.63 897.94 1114.63C899.015 1114.63 900.072 1114.39 901.112 1113.9V1118.9C899.621 1119.49 897.801 1119.78 895.652 1119.78ZM914.167 1119.78C911.185 1119.78 908.741 1119 906.835 1117.44C904.928 1115.85 903.975 1113.71 903.975 1111.04C903.975 1108.27 904.876 1106.1 906.679 1104.54C908.481 1102.98 911.012 1102.2 914.271 1102.2C917.425 1102.2 920.147 1102.85 922.435 1104.13V1103.45C922.435 1101.68 921.88 1100.4 920.771 1099.6C919.696 1098.81 917.945 1098.41 915.519 1098.41C913.993 1098.41 912.485 1098.56 910.995 1098.88C909.504 1099.15 908.187 1099.55 907.043 1100.07V1094.92C908.083 1094.44 909.469 1094.04 911.203 1093.73C912.971 1093.42 914.669 1093.26 916.299 1093.26C920.632 1093.26 923.839 1094.2 925.919 1096.07C927.999 1097.91 929.039 1100.47 929.039 1103.76V1119H922.851V1116.56C921.776 1117.6 920.545 1118.39 919.159 1118.95C917.807 1119.5 916.143 1119.78 914.167 1119.78ZM915.779 1115C917.235 1115 918.552 1114.72 919.731 1114.16C920.909 1113.57 921.811 1112.78 922.435 1111.77V1109.02C920.528 1107.66 918.344 1106.99 915.883 1106.99C912.381 1106.99 910.631 1108.34 910.631 1111.04C910.631 1112.36 911.064 1113.35 911.931 1114.01C912.832 1114.67 914.115 1115 915.779 1115ZM933.986 1082.65H938.926V1092.69H933.986V1082.65ZM943.034 1082.65H947.974V1092.69H943.034V1082.65ZM971.893 1094.04H978.237V1097.06C979.589 1095.77 981.063 1094.82 982.657 1094.2C984.252 1093.57 986.072 1093.26 988.117 1093.26C990.648 1093.26 992.901 1093.81 994.877 1094.92C996.888 1096 998.448 1097.54 999.557 1099.55C1000.7 1101.53 1001.27 1103.83 1001.27 1106.47C1001.27 1109.07 1000.7 1111.37 999.557 1113.38C998.448 1115.39 996.888 1116.97 994.877 1118.12C992.901 1119.23 990.648 1119.78 988.117 1119.78C986.211 1119.78 984.408 1119.52 982.709 1119C981.045 1118.45 979.624 1117.63 978.445 1116.56V1130.39H971.893V1094.04ZM986.505 1114.63C988.863 1114.63 990.804 1113.87 992.329 1112.34C993.855 1110.82 994.617 1108.86 994.617 1106.47C994.617 1104.08 993.855 1102.13 992.329 1100.64C990.804 1099.15 988.863 1098.41 986.505 1098.41C984.633 1098.41 982.969 1098.91 981.513 1099.92C980.057 1100.92 979.035 1102.27 978.445 1103.97V1109.02C979 1110.71 980.005 1112.08 981.461 1113.12C982.952 1114.13 984.633 1114.63 986.505 1114.63ZM1014.31 1119.78C1011.33 1119.78 1008.88 1119 1006.98 1117.44C1005.07 1115.85 1004.12 1113.71 1004.12 1111.04C1004.12 1108.27 1005.02 1106.1 1006.82 1104.54C1008.62 1102.98 1011.15 1102.2 1014.41 1102.2C1017.57 1102.2 1020.29 1102.85 1022.58 1104.13V1103.45C1022.58 1101.68 1022.02 1100.4 1020.91 1099.6C1019.84 1098.81 1018.09 1098.41 1015.66 1098.41C1014.13 1098.41 1012.63 1098.56 1011.14 1098.88C1009.64 1099.15 1008.33 1099.55 1007.18 1100.07V1094.92C1008.22 1094.44 1009.61 1094.04 1011.34 1093.73C1013.11 1093.42 1014.81 1093.26 1016.44 1093.26C1020.77 1093.26 1023.98 1094.2 1026.06 1096.07C1028.14 1097.91 1029.18 1100.47 1029.18 1103.76V1119H1022.99V1116.56C1021.92 1117.6 1020.69 1118.39 1019.3 1118.95C1017.95 1119.5 1016.28 1119.78 1014.31 1119.78ZM1015.92 1115C1017.38 1115 1018.69 1114.72 1019.87 1114.16C1021.05 1113.57 1021.95 1112.78 1022.58 1111.77V1109.02C1020.67 1107.66 1018.48 1106.99 1016.02 1106.99C1012.52 1106.99 1010.77 1108.34 1010.77 1111.04C1010.77 1112.36 1011.2 1113.35 1012.07 1114.01C1012.97 1114.67 1014.26 1115 1015.92 1115ZM1048.37 1130.96C1046.71 1130.96 1045.05 1130.8 1043.38 1130.49C1041.72 1130.18 1040.33 1129.76 1039.22 1129.24V1124.04C1041.93 1125.22 1044.98 1125.81 1048.37 1125.81C1051.43 1125.81 1053.61 1125.17 1054.93 1123.89C1056.28 1122.61 1056.95 1120.7 1056.95 1118.17V1116.56C1055.78 1117.63 1054.37 1118.45 1052.74 1119C1051.11 1119.52 1049.36 1119.78 1047.49 1119.78C1044.96 1119.78 1042.67 1119.23 1040.63 1118.12C1038.58 1116.97 1036.99 1115.39 1035.84 1113.38C1034.7 1111.37 1034.13 1109.07 1034.13 1106.47C1034.13 1103.83 1034.68 1101.53 1035.79 1099.55C1036.93 1097.54 1038.49 1096 1040.47 1094.92C1042.48 1093.81 1044.75 1093.26 1047.28 1093.26C1049.4 1093.26 1051.22 1093.55 1052.74 1094.14C1054.27 1094.7 1055.74 1095.63 1057.16 1096.95V1094.04H1063.51V1117.49C1063.51 1121.79 1062.26 1125.1 1059.76 1127.42C1057.3 1129.78 1053.51 1130.96 1048.37 1130.96ZM1048.89 1114.63C1050.77 1114.63 1052.43 1114.13 1053.89 1113.12C1055.38 1112.08 1056.4 1110.71 1056.95 1109.02V1103.97C1056.37 1102.27 1055.34 1100.92 1053.89 1099.92C1052.43 1098.91 1050.77 1098.41 1048.89 1098.41C1046.54 1098.41 1044.6 1099.15 1043.07 1100.64C1041.55 1102.13 1040.78 1104.08 1040.78 1106.47C1040.78 1108.86 1041.55 1110.82 1043.07 1112.34C1044.6 1113.87 1046.54 1114.63 1048.89 1114.63ZM1083.79 1119.78C1079.14 1119.78 1075.47 1118.62 1072.76 1116.3C1070.06 1113.97 1068.71 1110.73 1068.71 1106.57C1068.71 1102.48 1069.9 1099.24 1072.3 1096.85C1074.69 1094.46 1078.1 1093.26 1082.54 1093.26C1085.45 1093.26 1087.93 1093.81 1089.98 1094.92C1092.06 1096.03 1093.62 1097.56 1094.66 1099.5C1095.7 1101.41 1096.22 1103.59 1096.22 1106.05V1109.07H1074.95C1075.4 1112.78 1078.62 1114.63 1084.62 1114.63C1086.22 1114.63 1087.84 1114.49 1089.51 1114.22C1091.17 1113.94 1092.63 1113.56 1093.88 1113.07V1118.12C1092.7 1118.6 1091.17 1119 1089.3 1119.31C1087.46 1119.62 1085.63 1119.78 1083.79 1119.78ZM1090.03 1104.6C1089.96 1102.62 1089.25 1101.09 1087.9 1100.02C1086.58 1098.95 1084.76 1098.41 1082.44 1098.41C1080.15 1098.41 1078.35 1098.96 1077.03 1100.07C1075.71 1101.18 1075.02 1102.69 1074.95 1104.6H1090.03ZM1130.21 1119.78C1127.47 1119.78 1125.39 1119.02 1123.97 1117.49C1122.55 1115.97 1121.84 1113.82 1121.84 1111.04V1099.03H1118.09V1094.04H1121.84V1086.55H1128.39V1094.04H1134.37V1099.03H1128.39V1110.21C1128.39 1111.81 1128.69 1112.95 1129.27 1113.64C1129.86 1114.3 1130.94 1114.63 1132.5 1114.63C1133.57 1114.63 1134.63 1114.39 1135.67 1113.9V1118.9C1134.18 1119.49 1132.36 1119.78 1130.21 1119.78ZM1153.65 1119.78C1150.74 1119.78 1148.18 1119.26 1145.96 1118.22C1143.77 1117.15 1142.07 1115.62 1140.86 1113.64C1139.65 1111.63 1139.04 1109.26 1139.04 1106.52C1139.04 1103.85 1139.63 1101.53 1140.81 1099.55C1142.02 1097.54 1143.74 1096 1145.96 1094.92C1148.18 1093.81 1150.74 1093.26 1153.65 1093.26C1156.56 1093.26 1159.11 1093.81 1161.3 1094.92C1163.52 1096 1165.23 1097.54 1166.44 1099.55C1167.66 1101.53 1168.26 1103.85 1168.26 1106.52C1168.26 1109.26 1167.66 1111.63 1166.44 1113.64C1165.23 1115.62 1163.52 1117.15 1161.3 1118.22C1159.11 1119.26 1156.56 1119.78 1153.65 1119.78ZM1153.65 1114.63C1156.04 1114.63 1157.95 1113.89 1159.37 1112.4C1160.79 1110.87 1161.5 1108.91 1161.5 1106.52C1161.5 1103.99 1160.79 1102.01 1159.37 1100.59C1157.99 1099.14 1156.08 1098.41 1153.65 1098.41C1151.23 1098.41 1149.3 1099.14 1147.88 1100.59C1146.49 1102.01 1145.8 1103.99 1145.8 1106.52C1145.8 1108.91 1146.51 1110.87 1147.93 1112.4C1149.35 1113.89 1151.26 1114.63 1153.65 1114.63ZM300.799 1198.78C298.268 1198.78 295.997 1198.24 293.987 1197.17C292.011 1196.06 290.451 1194.52 289.307 1192.54C288.197 1190.53 287.643 1188.21 287.643 1185.57C287.643 1182.97 288.197 1180.67 289.307 1178.66C290.451 1176.65 292.011 1175.09 293.987 1173.98C295.997 1172.83 298.268 1172.26 300.799 1172.26C304.889 1172.26 308.113 1173.33 310.471 1175.48V1159.57H317.023V1198H310.679V1195.09C309.257 1196.41 307.784 1197.36 306.259 1197.95C304.733 1198.5 302.913 1198.78 300.799 1198.78ZM302.411 1193.63C304.283 1193.63 305.947 1193.13 307.403 1192.12C308.859 1191.12 309.881 1189.77 310.471 1188.07V1183.02C309.916 1181.33 308.893 1179.97 307.403 1178.97C305.947 1177.93 304.283 1177.41 302.411 1177.41C300.053 1177.41 298.112 1178.17 296.587 1179.7C295.061 1181.22 294.299 1183.18 294.299 1185.57C294.299 1187.96 295.061 1189.91 296.587 1191.4C298.112 1192.89 300.053 1193.63 302.411 1193.63ZM326.957 1168.67C325.917 1168.67 325.033 1168.33 324.305 1167.63C323.611 1166.94 323.265 1166.07 323.265 1165.03C323.265 1163.99 323.611 1163.13 324.305 1162.43C325.033 1161.7 325.917 1161.34 326.957 1161.34C327.997 1161.34 328.881 1161.7 329.609 1162.43C330.337 1163.13 330.701 1163.99 330.701 1165.03C330.701 1166.07 330.337 1166.94 329.609 1167.63C328.881 1168.33 327.997 1168.67 326.957 1168.67ZM323.629 1173.04H330.285V1198H323.629V1173.04ZM346.649 1198.78C344.846 1198.78 342.922 1198.57 340.877 1198.16C338.831 1197.74 337.237 1197.17 336.093 1196.44V1190.88C337.445 1191.71 339.057 1192.38 340.929 1192.9C342.801 1193.39 344.569 1193.63 346.233 1193.63C347.897 1193.63 349.11 1193.49 349.873 1193.22C350.635 1192.9 351.017 1192.35 351.017 1191.55C351.017 1190.93 350.809 1190.43 350.393 1190.04C350.011 1189.63 349.37 1189.26 348.469 1188.95C347.602 1188.61 346.25 1188.19 344.413 1187.7C342.333 1187.11 340.686 1186.51 339.473 1185.88C338.294 1185.26 337.393 1184.48 336.769 1183.54C336.179 1182.57 335.885 1181.33 335.885 1179.8C335.885 1177.3 336.873 1175.43 338.849 1174.18C340.825 1172.9 343.494 1172.26 346.857 1172.26C348.59 1172.26 350.306 1172.43 352.005 1172.78C353.738 1173.09 355.09 1173.54 356.061 1174.13V1179.49C355.021 1178.86 353.755 1178.36 352.265 1177.98C350.774 1177.6 349.249 1177.41 347.689 1177.41C345.99 1177.41 344.707 1177.58 343.841 1177.93C342.974 1178.24 342.541 1178.86 342.541 1179.8C342.541 1180.42 342.766 1180.93 343.217 1181.31C343.702 1181.65 344.326 1181.97 345.089 1182.24C345.851 1182.49 347.238 1182.87 349.249 1183.39C351.398 1183.98 353.079 1184.62 354.293 1185.31C355.506 1186.01 356.373 1186.84 356.893 1187.81C357.413 1188.78 357.673 1189.99 357.673 1191.45C357.673 1193.67 356.719 1195.45 354.813 1196.8C352.941 1198.12 350.219 1198.78 346.649 1198.78ZM362.874 1173.04H369.218V1176.06C370.57 1174.77 372.043 1173.82 373.638 1173.2C375.233 1172.57 377.053 1172.26 379.098 1172.26C381.629 1172.26 383.882 1172.81 385.858 1173.92C387.869 1175 389.429 1176.54 390.538 1178.55C391.682 1180.53 392.254 1182.83 392.254 1185.47C392.254 1188.07 391.682 1190.37 390.538 1192.38C389.429 1194.39 387.869 1195.97 385.858 1197.12C383.882 1198.23 381.629 1198.78 379.098 1198.78C377.191 1198.78 375.389 1198.52 373.69 1198C372.026 1197.45 370.605 1196.63 369.426 1195.56V1209.39H362.874V1173.04ZM377.486 1193.63C379.843 1193.63 381.785 1192.87 383.31 1191.34C384.835 1189.82 385.598 1187.86 385.598 1185.47C385.598 1183.08 384.835 1181.13 383.31 1179.64C381.785 1178.15 379.843 1177.41 377.486 1177.41C375.614 1177.41 373.95 1177.91 372.494 1178.92C371.038 1179.92 370.015 1181.27 369.426 1182.97V1188.02C369.981 1189.71 370.986 1191.08 372.442 1192.12C373.933 1193.13 375.614 1193.63 377.486 1193.63ZM397.456 1159.57H404.008V1198H397.456V1159.57ZM419.405 1198.78C416.423 1198.78 413.979 1198 412.073 1196.44C410.166 1194.85 409.213 1192.71 409.213 1190.04C409.213 1187.27 410.114 1185.1 411.917 1183.54C413.719 1181.98 416.25 1181.2 419.509 1181.2C422.663 1181.2 425.385 1181.85 427.673 1183.13V1182.45C427.673 1180.68 427.118 1179.4 426.009 1178.6C424.934 1177.81 423.183 1177.41 420.757 1177.41C419.231 1177.41 417.723 1177.56 416.233 1177.88C414.742 1178.15 413.425 1178.55 412.281 1179.07V1173.92C413.321 1173.44 414.707 1173.04 416.441 1172.73C418.209 1172.42 419.907 1172.26 421.537 1172.26C425.87 1172.26 429.077 1173.2 431.157 1175.07C433.237 1176.91 434.277 1179.47 434.277 1182.76V1198H428.089V1195.56C427.014 1196.6 425.783 1197.39 424.397 1197.95C423.045 1198.5 421.381 1198.78 419.405 1198.78ZM421.017 1194C422.473 1194 423.79 1193.72 424.969 1193.16C426.147 1192.57 427.049 1191.78 427.673 1190.77V1188.02C425.766 1186.66 423.582 1185.99 421.121 1185.99C417.619 1185.99 415.869 1187.34 415.869 1190.04C415.869 1191.36 416.302 1192.35 417.169 1193.01C418.07 1193.67 419.353 1194 421.017 1194ZM443.909 1208.3C443.007 1208.3 442.054 1208.23 441.049 1208.09C440.078 1207.98 439.315 1207.83 438.761 1207.62V1202.63C439.627 1202.97 440.702 1203.15 441.985 1203.15C443.302 1203.15 444.29 1202.85 444.949 1202.26C445.607 1201.67 446.179 1200.74 446.665 1199.46L447.653 1196.86L436.889 1173.04H443.493L451.189 1191.24L458.417 1173.04H464.969L454.049 1200.24C452.939 1202.97 451.587 1205 449.993 1206.32C448.433 1207.64 446.405 1208.3 443.909 1208.3ZM487.847 1173.04H493.983V1176.32C495.092 1175 496.392 1173.99 497.883 1173.3C499.373 1172.61 500.881 1172.26 502.407 1172.26C504.348 1172.26 505.908 1172.59 507.087 1173.25C508.265 1173.87 509.149 1174.83 509.739 1176.11C510.848 1174.86 512.183 1173.91 513.743 1173.25C515.337 1172.59 516.915 1172.26 518.475 1172.26C521.595 1172.26 523.831 1173.04 525.183 1174.6C526.535 1176.16 527.211 1178.45 527.211 1181.46V1198H520.919V1182.35C520.919 1180.58 520.555 1179.31 519.827 1178.55C519.133 1177.79 518.007 1177.41 516.447 1177.41C515.337 1177.41 514.315 1177.63 513.379 1178.08C512.477 1178.5 511.645 1179.23 510.883 1180.27C510.952 1181.38 510.987 1182.28 510.987 1182.97V1198H504.643V1182.24C504.643 1180.44 504.348 1179.19 503.759 1178.5C503.169 1177.77 502.095 1177.41 500.535 1177.41C498.177 1177.41 496.063 1178.74 494.191 1181.41V1198H487.847V1173.04ZM541.585 1198.78C538.603 1198.78 536.159 1198 534.253 1196.44C532.346 1194.85 531.393 1192.71 531.393 1190.04C531.393 1187.27 532.294 1185.1 534.097 1183.54C535.899 1181.98 538.43 1181.2 541.689 1181.2C544.843 1181.2 547.565 1181.85 549.853 1183.13V1182.45C549.853 1180.68 549.298 1179.4 548.189 1178.6C547.114 1177.81 545.363 1177.41 542.937 1177.41C541.411 1177.41 539.903 1177.56 538.413 1177.88C536.922 1178.15 535.605 1178.55 534.461 1179.07V1173.92C535.501 1173.44 536.887 1173.04 538.621 1172.73C540.389 1172.42 542.087 1172.26 543.717 1172.26C548.05 1172.26 551.257 1173.2 553.337 1175.07C555.417 1176.91 556.457 1179.47 556.457 1182.76V1198H550.269V1195.56C549.194 1196.6 547.963 1197.39 546.577 1197.95C545.225 1198.5 543.561 1198.78 541.585 1198.78ZM543.197 1194C544.653 1194 545.97 1193.72 547.149 1193.16C548.327 1192.57 549.229 1191.78 549.853 1190.77V1188.02C547.946 1186.66 545.762 1185.99 543.301 1185.99C539.799 1185.99 538.049 1187.34 538.049 1190.04C538.049 1191.36 538.482 1192.35 539.349 1193.01C540.25 1193.67 541.533 1194 543.197 1194ZM562.444 1173.04H568.788V1176.06C570.14 1174.77 571.614 1173.82 573.208 1173.2C574.803 1172.57 576.623 1172.26 578.668 1172.26C581.199 1172.26 583.452 1172.81 585.428 1173.92C587.439 1175 588.999 1176.54 590.108 1178.55C591.252 1180.53 591.824 1182.83 591.824 1185.47C591.824 1188.07 591.252 1190.37 590.108 1192.38C588.999 1194.39 587.439 1195.97 585.428 1197.12C583.452 1198.23 581.199 1198.78 578.668 1198.78C576.762 1198.78 574.959 1198.52 573.26 1198C571.596 1197.45 570.175 1196.63 568.996 1195.56V1209.39H562.444V1173.04ZM577.056 1193.63C579.414 1193.63 581.355 1192.87 582.88 1191.34C584.406 1189.82 585.168 1187.86 585.168 1185.47C585.168 1183.08 584.406 1181.13 582.88 1179.64C581.355 1178.15 579.414 1177.41 577.056 1177.41C575.184 1177.41 573.52 1177.91 572.064 1178.92C570.608 1179.92 569.586 1181.27 568.996 1182.97V1188.02C569.551 1189.71 570.556 1191.08 572.012 1192.12C573.503 1193.13 575.184 1193.63 577.056 1193.63ZM627.881 1198.78C625.35 1198.78 623.079 1198.24 621.069 1197.17C619.093 1196.06 617.533 1194.52 616.389 1192.54C615.279 1190.53 614.725 1188.21 614.725 1185.57C614.725 1182.97 615.279 1180.67 616.389 1178.66C617.533 1176.65 619.093 1175.09 621.069 1173.98C623.079 1172.83 625.35 1172.26 627.881 1172.26C631.971 1172.26 635.195 1173.33 637.553 1175.48V1159.57H644.105V1198H637.761V1195.09C636.339 1196.41 634.866 1197.36 633.341 1197.95C631.815 1198.5 629.995 1198.78 627.881 1198.78ZM629.493 1193.63C631.365 1193.63 633.029 1193.13 634.485 1192.12C635.941 1191.12 636.963 1189.77 637.553 1188.07V1183.02C636.998 1181.33 635.975 1179.97 634.485 1178.97C633.029 1177.93 631.365 1177.41 629.493 1177.41C627.135 1177.41 625.194 1178.17 623.669 1179.7C622.143 1181.22 621.381 1183.18 621.381 1185.57C621.381 1187.96 622.143 1189.91 623.669 1191.4C625.194 1192.89 627.135 1193.63 629.493 1193.63ZM654.039 1168.67C652.999 1168.67 652.115 1168.33 651.387 1167.63C650.693 1166.94 650.347 1166.07 650.347 1165.03C650.347 1163.99 650.693 1163.13 651.387 1162.43C652.115 1161.7 652.999 1161.34 654.039 1161.34C655.079 1161.34 655.963 1161.7 656.691 1162.43C657.419 1163.13 657.783 1163.99 657.783 1165.03C657.783 1166.07 657.419 1166.94 656.691 1167.63C655.963 1168.33 655.079 1168.67 654.039 1168.67ZM650.711 1173.04H657.367V1198H650.711V1173.04ZM673.731 1198.78C671.928 1198.78 670.004 1198.57 667.959 1198.16C665.913 1197.74 664.319 1197.17 663.175 1196.44V1190.88C664.527 1191.71 666.139 1192.38 668.011 1192.9C669.883 1193.39 671.651 1193.63 673.315 1193.63C674.979 1193.63 676.192 1193.49 676.955 1193.22C677.717 1192.9 678.099 1192.35 678.099 1191.55C678.099 1190.93 677.891 1190.43 677.475 1190.04C677.093 1189.63 676.452 1189.26 675.551 1188.95C674.684 1188.61 673.332 1188.19 671.495 1187.7C669.415 1187.11 667.768 1186.51 666.555 1185.88C665.376 1185.26 664.475 1184.48 663.851 1183.54C663.261 1182.57 662.967 1181.33 662.967 1179.8C662.967 1177.3 663.955 1175.43 665.931 1174.18C667.907 1172.9 670.576 1172.26 673.939 1172.26C675.672 1172.26 677.388 1172.43 679.087 1172.78C680.82 1173.09 682.172 1173.54 683.143 1174.13V1179.49C682.103 1178.86 680.837 1178.36 679.347 1177.98C677.856 1177.6 676.331 1177.41 674.771 1177.41C673.072 1177.41 671.789 1177.58 670.923 1177.93C670.056 1178.24 669.623 1178.86 669.623 1179.8C669.623 1180.42 669.848 1180.93 670.299 1181.31C670.784 1181.65 671.408 1181.97 672.171 1182.24C672.933 1182.49 674.32 1182.87 676.331 1183.39C678.48 1183.98 680.161 1184.62 681.375 1185.31C682.588 1186.01 683.455 1186.84 683.975 1187.81C684.495 1188.78 684.755 1189.99 684.755 1191.45C684.755 1193.67 683.801 1195.45 681.895 1196.8C680.023 1198.12 677.301 1198.78 673.731 1198.78ZM699.23 1198.78C696.492 1198.78 694.412 1198.02 692.99 1196.49C691.569 1194.97 690.858 1192.82 690.858 1190.04V1178.03H687.114V1173.04H690.858V1165.55H697.41V1173.04H703.39V1178.03H697.41V1189.21C697.41 1190.81 697.705 1191.95 698.294 1192.64C698.884 1193.3 699.958 1193.63 701.518 1193.63C702.593 1193.63 703.65 1193.39 704.69 1192.9V1197.9C703.2 1198.49 701.38 1198.78 699.23 1198.78ZM709.354 1173.04H715.698V1177.04C716.704 1175.69 718.125 1174.69 719.962 1174.03C721.834 1173.37 723.966 1173.04 726.358 1173.04V1178.03C723.828 1178.03 721.626 1178.43 719.754 1179.23C717.917 1179.99 716.634 1181.2 715.906 1182.87V1198H709.354V1173.04ZM734.222 1168.67C733.182 1168.67 732.298 1168.33 731.57 1167.63C730.877 1166.94 730.53 1166.07 730.53 1165.03C730.53 1163.99 730.877 1163.13 731.57 1162.43C732.298 1161.7 733.182 1161.34 734.222 1161.34C735.262 1161.34 736.146 1161.7 736.874 1162.43C737.602 1163.13 737.966 1163.99 737.966 1165.03C737.966 1166.07 737.602 1166.94 736.874 1167.63C736.146 1168.33 735.262 1168.67 734.222 1168.67ZM730.894 1173.04H737.55V1198H730.894V1173.04ZM760.414 1198.78C758.3 1198.78 756.48 1198.5 754.954 1197.95C753.429 1197.36 751.956 1196.41 750.534 1195.09V1198H744.19V1159.57H750.742V1175.48C751.921 1174.41 753.342 1173.61 755.006 1173.09C756.705 1172.54 758.508 1172.26 760.414 1172.26C762.945 1172.26 765.198 1172.83 767.174 1173.98C769.185 1175.09 770.745 1176.65 771.854 1178.66C772.998 1180.67 773.57 1182.97 773.57 1185.57C773.57 1188.21 772.998 1190.53 771.854 1192.54C770.745 1194.52 769.185 1196.06 767.174 1197.17C765.198 1198.24 762.945 1198.78 760.414 1198.78ZM758.802 1193.63C761.16 1193.63 763.101 1192.89 764.626 1191.4C766.152 1189.91 766.914 1187.96 766.914 1185.57C766.914 1183.18 766.152 1181.22 764.626 1179.7C763.101 1178.17 761.16 1177.41 758.802 1177.41C756.93 1177.41 755.249 1177.93 753.758 1178.97C752.302 1179.97 751.297 1181.33 750.742 1183.02V1188.07C751.332 1189.77 752.354 1191.12 753.81 1192.12C755.266 1193.13 756.93 1193.63 758.802 1193.63ZM787.228 1198.78C783.865 1198.78 781.352 1197.88 779.688 1196.08C778.024 1194.24 777.192 1191.81 777.192 1188.8V1173.04H783.744V1188.17C783.744 1191.81 785.443 1193.63 788.84 1193.63C790.331 1193.63 791.735 1193.29 793.052 1192.59C794.369 1191.86 795.479 1190.79 796.38 1189.37V1173.04H802.932V1198H796.588V1194.62C795.409 1196.04 794.005 1197.1 792.376 1197.79C790.747 1198.45 789.031 1198.78 787.228 1198.78ZM819.226 1198.78C816.488 1198.78 814.408 1198.02 812.986 1196.49C811.565 1194.97 810.854 1192.82 810.854 1190.04V1178.03H807.11V1173.04H810.854V1165.55H817.406V1173.04H823.386V1178.03H817.406V1189.21C817.406 1190.81 817.701 1191.95 818.29 1192.64C818.88 1193.3 819.954 1193.63 821.514 1193.63C822.589 1193.63 823.646 1193.39 824.686 1192.9V1197.9C823.196 1198.49 821.376 1198.78 819.226 1198.78ZM833.042 1168.67C832.002 1168.67 831.118 1168.33 830.39 1167.63C829.697 1166.94 829.35 1166.07 829.35 1165.03C829.35 1163.99 829.697 1163.13 830.39 1162.43C831.118 1161.7 832.002 1161.34 833.042 1161.34C834.082 1161.34 834.966 1161.7 835.694 1162.43C836.422 1163.13 836.786 1163.99 836.786 1165.03C836.786 1166.07 836.422 1166.94 835.694 1167.63C834.966 1168.33 834.082 1168.67 833.042 1168.67ZM829.714 1173.04H836.37V1198H829.714V1173.04ZM856.583 1198.78C853.671 1198.78 851.105 1198.26 848.887 1197.22C846.703 1196.15 845.004 1194.62 843.791 1192.64C842.577 1190.63 841.971 1188.26 841.971 1185.52C841.971 1182.85 842.56 1180.53 843.739 1178.55C844.952 1176.54 846.668 1175 848.887 1173.92C851.105 1172.81 853.671 1172.26 856.583 1172.26C859.495 1172.26 862.043 1172.81 864.227 1173.92C866.445 1175 868.161 1176.54 869.375 1178.55C870.588 1180.53 871.195 1182.85 871.195 1185.52C871.195 1188.26 870.588 1190.63 869.375 1192.64C868.161 1194.62 866.445 1196.15 864.227 1197.22C862.043 1198.26 859.495 1198.78 856.583 1198.78ZM856.583 1193.63C858.975 1193.63 860.881 1192.89 862.303 1191.4C863.724 1189.87 864.435 1187.91 864.435 1185.52C864.435 1182.99 863.724 1181.01 862.303 1179.59C860.916 1178.14 859.009 1177.41 856.583 1177.41C854.156 1177.41 852.232 1178.14 850.811 1179.59C849.424 1181.01 848.731 1182.99 848.731 1185.52C848.731 1187.91 849.441 1189.87 850.863 1191.4C852.284 1192.89 854.191 1193.63 856.583 1193.63ZM876.374 1173.04H882.718V1176.42C883.897 1175 885.301 1173.96 886.93 1173.3C888.559 1172.61 890.275 1172.26 892.078 1172.26C895.441 1172.26 897.954 1173.18 899.618 1175.02C901.282 1176.82 902.114 1179.23 902.114 1182.24V1198H895.562V1182.87C895.562 1179.23 893.863 1177.41 890.466 1177.41C888.975 1177.41 887.571 1177.77 886.254 1178.5C884.937 1179.19 883.827 1180.25 882.926 1181.67V1198H876.374V1173.04ZM909.724 1198C908.996 1198 908.372 1197.76 907.852 1197.27C907.332 1196.75 907.072 1196.13 907.072 1195.4C907.072 1194.64 907.332 1194 907.852 1193.48C908.372 1192.96 908.996 1192.7 909.724 1192.7C910.452 1192.7 911.076 1192.96 911.596 1193.48C912.116 1194 912.376 1194.64 912.376 1195.4C912.376 1196.13 912.116 1196.75 911.596 1197.27C911.076 1197.76 910.452 1198 909.724 1198Z" fill="#735DFB"/>
<defs>
<clipPath id="clip0_673_2324">
<rect width="1213" height="869" fill="white" transform="translate(72 179)"/>
</clipPath>
</defs>
</svg>
