<svg width="1200" height="1124" viewBox="0 0 1200 1124" fill="none" xmlns="http://www.w3.org/2000/svg">
<path d="M32.7958 930.652H47.3558C51.3424 930.652 54.5318 931.709 56.9238 933.824C59.3505 935.939 60.5638 938.833 60.5638 942.508C60.5638 946.321 59.3678 949.233 56.9758 951.244C54.5838 953.22 51.3598 954.208 47.3038 954.208H39.3998V967H32.7958V930.652ZM46.5238 948.748C51.4811 948.748 53.9598 946.668 53.9598 942.508C53.9598 938.244 51.4811 936.112 46.5238 936.112H39.3998V948.748H46.5238ZM64.7372 928.572H71.2892V967H64.7372V928.572ZM91.5741 967.78C86.9287 967.78 83.2541 966.619 80.5501 964.296C77.8461 961.973 76.4941 958.732 76.4941 954.572C76.4941 950.481 77.6901 947.24 80.0821 944.848C82.4741 942.456 85.8887 941.26 90.3261 941.26C93.2381 941.26 95.7167 941.815 97.7621 942.924C99.8421 944.033 101.402 945.559 102.442 947.5C103.482 949.407 104.002 951.591 104.002 954.052V957.068H82.7341C83.1847 960.777 86.4087 962.632 92.4061 962.632C94.0007 962.632 95.6301 962.493 97.2941 962.216C98.9581 961.939 100.414 961.557 101.662 961.072V966.116C100.483 966.601 98.9581 967 97.0861 967.312C95.2487 967.624 93.4114 967.78 91.5741 967.78ZM97.8141 952.596C97.7447 950.62 97.0341 949.095 95.6821 948.02C94.3647 946.945 92.5447 946.408 90.2221 946.408C87.9341 946.408 86.1314 946.963 84.8141 948.072C83.4967 949.181 82.8034 950.689 82.7341 952.596H97.8141ZM118.374 967.78C115.392 967.78 112.948 967 111.042 965.44C109.135 963.845 108.182 961.713 108.182 959.044C108.182 956.271 109.083 954.104 110.886 952.544C112.688 950.984 115.219 950.204 118.478 950.204C121.632 950.204 124.354 950.845 126.642 952.128V951.452C126.642 949.684 126.087 948.401 124.978 947.604C123.903 946.807 122.152 946.408 119.726 946.408C118.2 946.408 116.692 946.564 115.202 946.876C113.711 947.153 112.394 947.552 111.25 948.072V942.924C112.29 942.439 113.676 942.04 115.41 941.728C117.178 941.416 118.876 941.26 120.506 941.26C124.839 941.26 128.046 942.196 130.126 944.068C132.206 945.905 133.246 948.471 133.246 951.764V967H127.058V964.556C125.983 965.596 124.752 966.393 123.366 966.948C122.014 967.503 120.35 967.78 118.374 967.78ZM119.986 962.996C121.442 962.996 122.759 962.719 123.938 962.164C125.116 961.575 126.018 960.777 126.642 959.772V957.016C124.735 955.664 122.551 954.988 120.09 954.988C116.588 954.988 114.838 956.34 114.838 959.044C114.838 960.361 115.271 961.349 116.138 962.008C117.039 962.667 118.322 962.996 119.986 962.996ZM148.196 967.78C146.393 967.78 144.469 967.572 142.424 967.156C140.378 966.74 138.784 966.168 137.64 965.44V959.876C138.992 960.708 140.604 961.384 142.476 961.904C144.348 962.389 146.116 962.632 147.78 962.632C149.444 962.632 150.657 962.493 151.42 962.216C152.182 961.904 152.564 961.349 152.564 960.552C152.564 959.928 152.356 959.425 151.94 959.044C151.558 958.628 150.917 958.264 150.016 957.952C149.149 957.605 147.797 957.189 145.96 956.704C143.88 956.115 142.233 955.508 141.02 954.884C139.841 954.26 138.94 953.48 138.316 952.544C137.726 951.573 137.432 950.325 137.432 948.8C137.432 946.304 138.42 944.432 140.396 943.184C142.372 941.901 145.041 941.26 148.404 941.26C150.137 941.26 151.853 941.433 153.552 941.78C155.285 942.092 156.637 942.543 157.608 943.132V948.488C156.568 947.864 155.302 947.361 153.812 946.98C152.321 946.599 150.796 946.408 149.236 946.408C147.537 946.408 146.254 946.581 145.388 946.928C144.521 947.24 144.088 947.864 144.088 948.8C144.088 949.424 144.313 949.927 144.764 950.308C145.249 950.655 145.873 950.967 146.636 951.244C147.398 951.487 148.785 951.868 150.796 952.388C152.945 952.977 154.626 953.619 155.84 954.312C157.053 955.005 157.92 955.837 158.44 956.808C158.96 957.779 159.22 958.992 159.22 960.448C159.22 962.667 158.266 964.452 156.36 965.804C154.488 967.121 151.766 967.78 148.196 967.78ZM178.461 967.78C173.815 967.78 170.141 966.619 167.437 964.296C164.733 961.973 163.381 958.732 163.381 954.572C163.381 950.481 164.577 947.24 166.969 944.848C169.361 942.456 172.775 941.26 177.213 941.26C180.125 941.26 182.603 941.815 184.649 942.924C186.729 944.033 188.289 945.559 189.329 947.5C190.369 949.407 190.889 951.591 190.889 954.052V957.068H169.621C170.071 960.777 173.295 962.632 179.293 962.632C180.887 962.632 182.517 962.493 184.181 962.216C185.845 961.939 187.301 961.557 188.549 961.072V966.116C187.37 966.601 185.845 967 183.973 967.312C182.135 967.624 180.298 967.78 178.461 967.78ZM184.701 952.596C184.631 950.62 183.921 949.095 182.569 948.02C181.251 946.945 179.431 946.408 177.109 946.408C174.821 946.408 173.018 946.963 171.701 948.072C170.383 949.181 169.69 950.689 169.621 952.596H184.701ZM224.623 967.78C221.26 967.78 218.747 966.879 217.083 965.076C215.419 963.239 214.587 960.812 214.587 957.796V942.04H221.139V957.172C221.139 960.812 222.837 962.632 226.235 962.632C227.725 962.632 229.129 962.285 230.447 961.592C231.764 960.864 232.873 959.789 233.775 958.368V942.04H240.327V967H233.983V963.62C232.804 965.041 231.4 966.099 229.771 966.792C228.141 967.451 226.425 967.78 224.623 967.78ZM246.585 942.04H252.929V945.056C254.281 943.773 255.754 942.82 257.349 942.196C258.944 941.572 260.764 941.26 262.809 941.26C265.34 941.26 267.593 941.815 269.569 942.924C271.58 943.999 273.14 945.541 274.249 947.552C275.393 949.528 275.965 951.833 275.965 954.468C275.965 957.068 275.393 959.373 274.249 961.384C273.14 963.395 271.58 964.972 269.569 966.116C267.593 967.225 265.34 967.78 262.809 967.78C260.902 967.78 259.1 967.52 257.401 967C255.737 966.445 254.316 965.631 253.137 964.556V978.388H246.585V942.04ZM261.197 962.632C263.554 962.632 265.496 961.869 267.021 960.344C268.546 958.819 269.309 956.86 269.309 954.468C269.309 952.076 268.546 950.135 267.021 948.644C265.496 947.153 263.554 946.408 261.197 946.408C259.325 946.408 257.661 946.911 256.205 947.916C254.749 948.921 253.726 950.273 253.137 951.972V957.016C253.692 958.715 254.697 960.084 256.153 961.124C257.644 962.129 259.325 962.632 261.197 962.632ZM281.167 928.572H287.719V967H281.167V928.572ZM307.536 967.78C304.624 967.78 302.058 967.26 299.84 966.22C297.656 965.145 295.957 963.62 294.744 961.644C293.53 959.633 292.924 957.259 292.924 954.52C292.924 951.851 293.513 949.528 294.692 947.552C295.905 945.541 297.621 943.999 299.84 942.924C302.058 941.815 304.624 941.26 307.536 941.26C310.448 941.26 312.996 941.815 315.18 942.924C317.398 943.999 319.114 945.541 320.328 947.552C321.541 949.528 322.148 951.851 322.148 954.52C322.148 957.259 321.541 959.633 320.328 961.644C319.114 963.62 317.398 965.145 315.18 966.22C312.996 967.26 310.448 967.78 307.536 967.78ZM307.536 962.632C309.928 962.632 311.834 961.887 313.256 960.396C314.677 958.871 315.388 956.912 315.388 954.52C315.388 951.989 314.677 950.013 313.256 948.592C311.869 947.136 309.962 946.408 307.536 946.408C305.109 946.408 303.185 947.136 301.764 948.592C300.377 950.013 299.684 951.989 299.684 954.52C299.684 956.912 300.394 958.871 301.816 960.396C303.237 961.887 305.144 962.632 307.536 962.632ZM335.159 967.78C332.177 967.78 329.733 967 327.827 965.44C325.92 963.845 324.967 961.713 324.967 959.044C324.967 956.271 325.868 954.104 327.671 952.544C329.473 950.984 332.004 950.204 335.263 950.204C338.417 950.204 341.139 950.845 343.427 952.128V951.452C343.427 949.684 342.872 948.401 341.763 947.604C340.688 946.807 338.937 946.408 336.511 946.408C334.985 946.408 333.477 946.564 331.987 946.876C330.496 947.153 329.179 947.552 328.035 948.072V942.924C329.075 942.439 330.461 942.04 332.195 941.728C333.963 941.416 335.661 941.26 337.291 941.26C341.624 941.26 344.831 942.196 346.911 944.068C348.991 945.905 350.031 948.471 350.031 951.764V967H343.843V964.556C342.768 965.596 341.537 966.393 340.151 966.948C338.799 967.503 337.135 967.78 335.159 967.78ZM336.771 962.996C338.227 962.996 339.544 962.719 340.723 962.164C341.901 961.575 342.803 960.777 343.427 959.772V957.016C341.52 955.664 339.336 954.988 336.875 954.988C333.373 954.988 331.623 956.34 331.623 959.044C331.623 960.361 332.056 961.349 332.923 962.008C333.824 962.667 335.107 962.996 336.771 962.996ZM368.134 967.78C365.604 967.78 363.333 967.243 361.322 966.168C359.346 965.059 357.786 963.516 356.642 961.54C355.533 959.529 354.978 957.207 354.978 954.572C354.978 951.972 355.533 949.667 356.642 947.656C357.786 945.645 359.346 944.085 361.322 942.976C363.333 941.832 365.604 941.26 368.134 941.26C372.225 941.26 375.449 942.335 377.806 944.484V928.572H384.358V967H378.014V964.088C376.593 965.405 375.12 966.359 373.594 966.948C372.069 967.503 370.249 967.78 368.134 967.78ZM369.746 962.632C371.618 962.632 373.282 962.129 374.738 961.124C376.194 960.119 377.217 958.767 377.806 957.068V952.024C377.252 950.325 376.229 948.973 374.738 947.968C373.282 946.928 371.618 946.408 369.746 946.408C367.389 946.408 365.448 947.171 363.922 948.696C362.397 950.221 361.634 952.18 361.634 954.572C361.634 956.964 362.397 958.905 363.922 960.396C365.448 961.887 367.389 962.632 369.746 962.632ZM421.455 967.78C418.924 967.78 416.653 967.243 414.643 966.168C412.667 965.059 411.107 963.516 409.963 961.54C408.853 959.529 408.299 957.207 408.299 954.572C408.299 951.972 408.853 949.667 409.963 947.656C411.107 945.645 412.667 944.085 414.643 942.976C416.653 941.832 418.924 941.26 421.455 941.26C425.545 941.26 428.769 942.335 431.127 944.484V928.572H437.679V967H431.335V964.088C429.913 965.405 428.44 966.359 426.915 966.948C425.389 967.503 423.569 967.78 421.455 967.78ZM423.067 962.632C424.939 962.632 426.603 962.129 428.059 961.124C429.515 960.119 430.537 958.767 431.127 957.068V952.024C430.572 950.325 429.549 948.973 428.059 947.968C426.603 946.928 424.939 946.408 423.067 946.408C420.709 946.408 418.768 947.171 417.243 948.696C415.717 950.221 414.955 952.18 414.955 954.572C414.955 956.964 415.717 958.905 417.243 960.396C418.768 961.887 420.709 962.632 423.067 962.632ZM452.311 967.78C449.33 967.78 446.886 967 444.979 965.44C443.072 963.845 442.119 961.713 442.119 959.044C442.119 956.271 443.02 954.104 444.823 952.544C446.626 950.984 449.156 950.204 452.415 950.204C455.57 950.204 458.291 950.845 460.579 952.128V951.452C460.579 949.684 460.024 948.401 458.915 947.604C457.84 946.807 456.09 946.408 453.663 946.408C452.138 946.408 450.63 946.564 449.139 946.876C447.648 947.153 446.331 947.552 445.187 948.072V942.924C446.227 942.439 447.614 942.04 449.347 941.728C451.115 941.416 452.814 941.26 454.443 941.26C458.776 941.26 461.983 942.196 464.063 944.068C466.143 945.905 467.183 948.471 467.183 951.764V967H460.995V964.556C459.92 965.596 458.69 966.393 457.303 966.948C455.951 967.503 454.287 967.78 452.311 967.78ZM453.923 962.996C455.379 962.996 456.696 962.719 457.875 962.164C459.054 961.575 459.955 960.777 460.579 959.772V957.016C458.672 955.664 456.488 954.988 454.027 954.988C450.526 954.988 448.775 956.34 448.775 959.044C448.775 960.361 449.208 961.349 450.075 962.008C450.976 962.667 452.259 962.996 453.923 962.996ZM481.886 967.78C479.148 967.78 477.068 967.017 475.646 965.492C474.225 963.967 473.514 961.817 473.514 959.044V947.032H469.77V942.04H473.514V934.552H480.066V942.04H486.046V947.032H480.066V958.212C480.066 959.807 480.361 960.951 480.95 961.644C481.54 962.303 482.614 962.632 484.174 962.632C485.249 962.632 486.306 962.389 487.346 961.904V966.896C485.856 967.485 484.036 967.78 481.886 967.78ZM500.401 967.78C497.42 967.78 494.976 967 493.069 965.44C491.162 963.845 490.209 961.713 490.209 959.044C490.209 956.271 491.11 954.104 492.913 952.544C494.716 950.984 497.246 950.204 500.505 950.204C503.66 950.204 506.381 950.845 508.669 952.128V951.452C508.669 949.684 508.114 948.401 507.005 947.604C505.93 946.807 504.18 946.408 501.753 946.408C500.228 946.408 498.72 946.564 497.229 946.876C495.738 947.153 494.421 947.552 493.277 948.072V942.924C494.317 942.439 495.704 942.04 497.437 941.728C499.205 941.416 500.904 941.26 502.533 941.26C506.866 941.26 510.073 942.196 512.153 944.068C514.233 945.905 515.273 948.471 515.273 951.764V967H509.085V964.556C508.01 965.596 506.78 966.393 505.393 966.948C504.041 967.503 502.377 967.78 500.401 967.78ZM502.013 962.996C503.469 962.996 504.786 962.719 505.965 962.164C507.144 961.575 508.045 960.777 508.669 959.772V957.016C506.762 955.664 504.578 954.988 502.117 954.988C498.616 954.988 496.865 956.34 496.865 959.044C496.865 960.361 497.298 961.349 498.165 962.008C499.066 962.667 500.349 962.996 502.013 962.996ZM543.691 937.672C542.651 937.672 541.767 937.325 541.039 936.632C540.346 935.939 539.999 935.072 539.999 934.032C539.999 932.992 540.346 932.125 541.039 931.432C541.767 930.704 542.651 930.34 543.691 930.34C544.731 930.34 545.615 930.704 546.343 931.432C547.071 932.125 547.435 932.992 547.435 934.032C547.435 935.072 547.071 935.939 546.343 936.632C545.615 937.325 544.731 937.672 543.691 937.672ZM540.363 942.04H547.019V967H540.363V942.04ZM553.659 942.04H560.003V945.42C561.182 943.999 562.586 942.959 564.215 942.3C565.844 941.607 567.56 941.26 569.363 941.26C572.726 941.26 575.239 942.179 576.903 944.016C578.567 945.819 579.399 948.228 579.399 951.244V967H572.847V951.868C572.847 948.228 571.148 946.408 567.751 946.408C566.26 946.408 564.856 946.772 563.539 947.5C562.222 948.193 561.112 949.251 560.211 950.672V967H553.659V942.04ZM603.096 930.652H608.036V940.688H603.096V930.652ZM612.144 930.652H617.084V940.688H612.144V930.652ZM637.553 967.78C632.422 967.78 628.539 966.445 625.905 963.776C623.305 961.072 622.005 957.432 622.005 952.856V930.652H628.609V952.96C628.609 955.837 629.406 958.039 631.001 959.564C632.63 961.055 634.814 961.8 637.553 961.8C640.257 961.8 642.406 961.055 644.001 959.564C645.63 958.039 646.445 955.837 646.445 952.96V930.652H653.049V952.856C653.049 957.432 651.749 961.072 649.149 963.776C646.549 966.445 642.683 967.78 637.553 967.78ZM659.03 942.04H665.374V945.056C666.726 943.773 668.199 942.82 669.794 942.196C671.389 941.572 673.209 941.26 675.254 941.26C677.785 941.26 680.038 941.815 682.014 942.924C684.025 943.999 685.585 945.541 686.694 947.552C687.838 949.528 688.41 951.833 688.41 954.468C688.41 957.068 687.838 959.373 686.694 961.384C685.585 963.395 684.025 964.972 682.014 966.116C680.038 967.225 677.785 967.78 675.254 967.78C673.347 967.78 671.545 967.52 669.846 967C668.182 966.445 666.761 965.631 665.582 964.556V978.388H659.03V942.04ZM673.642 962.632C675.999 962.632 677.941 961.869 679.466 960.344C680.991 958.819 681.754 956.86 681.754 954.468C681.754 952.076 680.991 950.135 679.466 948.644C677.941 947.153 675.999 946.408 673.642 946.408C671.77 946.408 670.106 946.911 668.65 947.916C667.194 948.921 666.171 950.273 665.582 951.972V957.016C666.137 958.715 667.142 960.084 668.598 961.124C670.089 962.129 671.77 962.632 673.642 962.632ZM693.612 928.572H700.164V967H693.612V928.572ZM719.981 967.78C717.069 967.78 714.504 967.26 712.285 966.22C710.101 965.145 708.402 963.62 707.189 961.644C705.976 959.633 705.369 957.259 705.369 954.52C705.369 951.851 705.958 949.528 707.137 947.552C708.35 945.541 710.066 943.999 712.285 942.924C714.504 941.815 717.069 941.26 719.981 941.26C722.893 941.26 725.441 941.815 727.625 942.924C729.844 943.999 731.56 945.541 732.773 947.552C733.986 949.528 734.593 951.851 734.593 954.52C734.593 957.259 733.986 959.633 732.773 961.644C731.56 963.62 729.844 965.145 727.625 966.22C725.441 967.26 722.893 967.78 719.981 967.78ZM719.981 962.632C722.373 962.632 724.28 961.887 725.701 960.396C727.122 958.871 727.833 956.912 727.833 954.52C727.833 951.989 727.122 950.013 725.701 948.592C724.314 947.136 722.408 946.408 719.981 946.408C717.554 946.408 715.63 947.136 714.209 948.592C712.822 950.013 712.129 951.989 712.129 954.52C712.129 956.912 712.84 958.871 714.261 960.396C715.682 961.887 717.589 962.632 719.981 962.632ZM747.604 967.78C744.623 967.78 742.179 967 740.272 965.44C738.365 963.845 737.412 961.713 737.412 959.044C737.412 956.271 738.313 954.104 740.116 952.544C741.919 950.984 744.449 950.204 747.708 950.204C750.863 950.204 753.584 950.845 755.872 952.128V951.452C755.872 949.684 755.317 948.401 754.208 947.604C753.133 946.807 751.383 946.408 748.956 946.408C747.431 946.408 745.923 946.564 744.432 946.876C742.941 947.153 741.624 947.552 740.48 948.072V942.924C741.52 942.439 742.907 942.04 744.64 941.728C746.408 941.416 748.107 941.26 749.736 941.26C754.069 941.26 757.276 942.196 759.356 944.068C761.436 945.905 762.476 948.471 762.476 951.764V967H756.288V964.556C755.213 965.596 753.983 966.393 752.596 966.948C751.244 967.503 749.58 967.78 747.604 967.78ZM749.216 962.996C750.672 962.996 751.989 962.719 753.168 962.164C754.347 961.575 755.248 960.777 755.872 959.772V957.016C753.965 955.664 751.781 954.988 749.32 954.988C745.819 954.988 744.068 956.34 744.068 959.044C744.068 960.361 744.501 961.349 745.368 962.008C746.269 962.667 747.552 962.996 749.216 962.996ZM780.58 967.78C778.049 967.78 775.778 967.243 773.768 966.168C771.792 965.059 770.232 963.516 769.088 961.54C767.978 959.529 767.424 957.207 767.424 954.572C767.424 951.972 767.978 949.667 769.088 947.656C770.232 945.645 771.792 944.085 773.768 942.976C775.778 941.832 778.049 941.26 780.58 941.26C784.67 941.26 787.894 942.335 790.252 944.484V928.572H796.804V967H790.46V964.088C789.038 965.405 787.565 966.359 786.04 966.948C784.514 967.503 782.694 967.78 780.58 967.78ZM782.192 962.632C784.064 962.632 785.728 962.129 787.184 961.124C788.64 960.119 789.662 958.767 790.252 957.068V952.024C789.697 950.325 788.674 948.973 787.184 947.968C785.728 946.928 784.064 946.408 782.192 946.408C779.834 946.408 777.893 947.171 776.368 948.696C774.842 950.221 774.08 952.18 774.08 954.572C774.08 956.964 774.842 958.905 776.368 960.396C777.893 961.887 779.834 962.632 782.192 962.632ZM821.784 930.652H833.952C837.904 930.652 841.336 931.38 844.248 932.836C847.16 934.292 849.396 936.372 850.956 939.076C852.516 941.78 853.296 944.969 853.296 948.644C853.296 954.676 851.545 959.252 848.044 962.372C844.543 965.457 839.655 967 833.38 967H821.784V930.652ZM833.484 961.54C837.713 961.54 840.955 960.413 843.208 958.16C845.496 955.872 846.64 952.7 846.64 948.644C846.64 946.183 846.137 944.016 845.132 942.144C844.127 940.237 842.688 938.764 840.816 937.724C838.944 936.649 836.725 936.112 834.16 936.112H828.388V961.54H833.484ZM866.077 967.78C863.095 967.78 860.651 967 858.745 965.44C856.838 963.845 855.885 961.713 855.885 959.044C855.885 956.271 856.786 954.104 858.589 952.544C860.391 950.984 862.922 950.204 866.181 950.204C869.335 950.204 872.057 950.845 874.345 952.128V951.452C874.345 949.684 873.79 948.401 872.681 947.604C871.606 946.807 869.855 946.408 867.429 946.408C865.903 946.408 864.395 946.564 862.905 946.876C861.414 947.153 860.097 947.552 858.953 948.072V942.924C859.993 942.439 861.379 942.04 863.113 941.728C864.881 941.416 866.579 941.26 868.209 941.26C872.542 941.26 875.749 942.196 877.829 944.068C879.909 945.905 880.949 948.471 880.949 951.764V967H874.761V964.556C873.686 965.596 872.455 966.393 871.069 966.948C869.717 967.503 868.053 967.78 866.077 967.78ZM867.689 962.996C869.145 962.996 870.462 962.719 871.641 962.164C872.819 961.575 873.721 960.777 874.345 959.772V957.016C872.438 955.664 870.254 954.988 867.793 954.988C864.291 954.988 862.541 956.34 862.541 959.044C862.541 960.361 862.974 961.349 863.841 962.008C864.742 962.667 866.025 962.996 867.689 962.996ZM895.652 967.78C892.913 967.78 890.833 967.017 889.412 965.492C887.991 963.967 887.28 961.817 887.28 959.044V947.032H883.536V942.04H887.28V934.552H893.832V942.04H899.812V947.032H893.832V958.212C893.832 959.807 894.127 960.951 894.716 961.644C895.305 962.303 896.38 962.632 897.94 962.632C899.015 962.632 900.072 962.389 901.112 961.904V966.896C899.621 967.485 897.801 967.78 895.652 967.78ZM914.167 967.78C911.185 967.78 908.741 967 906.835 965.44C904.928 963.845 903.975 961.713 903.975 959.044C903.975 956.271 904.876 954.104 906.679 952.544C908.481 950.984 911.012 950.204 914.271 950.204C917.425 950.204 920.147 950.845 922.435 952.128V951.452C922.435 949.684 921.88 948.401 920.771 947.604C919.696 946.807 917.945 946.408 915.519 946.408C913.993 946.408 912.485 946.564 910.995 946.876C909.504 947.153 908.187 947.552 907.043 948.072V942.924C908.083 942.439 909.469 942.04 911.203 941.728C912.971 941.416 914.669 941.26 916.299 941.26C920.632 941.26 923.839 942.196 925.919 944.068C927.999 945.905 929.039 948.471 929.039 951.764V967H922.851V964.556C921.776 965.596 920.545 966.393 919.159 966.948C917.807 967.503 916.143 967.78 914.167 967.78ZM915.779 962.996C917.235 962.996 918.552 962.719 919.731 962.164C920.909 961.575 921.811 960.777 922.435 959.772V957.016C920.528 955.664 918.344 954.988 915.883 954.988C912.381 954.988 910.631 956.34 910.631 959.044C910.631 960.361 911.064 961.349 911.931 962.008C912.832 962.667 914.115 962.996 915.779 962.996ZM933.986 930.652H938.926V940.688H933.986V930.652ZM943.034 930.652H947.974V940.688H943.034V930.652ZM971.893 942.04H978.237V945.056C979.589 943.773 981.063 942.82 982.657 942.196C984.252 941.572 986.072 941.26 988.117 941.26C990.648 941.26 992.901 941.815 994.877 942.924C996.888 943.999 998.448 945.541 999.557 947.552C1000.7 949.528 1001.27 951.833 1001.27 954.468C1001.27 957.068 1000.7 959.373 999.557 961.384C998.448 963.395 996.888 964.972 994.877 966.116C992.901 967.225 990.648 967.78 988.117 967.78C986.211 967.78 984.408 967.52 982.709 967C981.045 966.445 979.624 965.631 978.445 964.556V978.388H971.893V942.04ZM986.505 962.632C988.863 962.632 990.804 961.869 992.329 960.344C993.855 958.819 994.617 956.86 994.617 954.468C994.617 952.076 993.855 950.135 992.329 948.644C990.804 947.153 988.863 946.408 986.505 946.408C984.633 946.408 982.969 946.911 981.513 947.916C980.057 948.921 979.035 950.273 978.445 951.972V957.016C979 958.715 980.005 960.084 981.461 961.124C982.952 962.129 984.633 962.632 986.505 962.632ZM1014.31 967.78C1011.33 967.78 1008.88 967 1006.98 965.44C1005.07 963.845 1004.12 961.713 1004.12 959.044C1004.12 956.271 1005.02 954.104 1006.82 952.544C1008.62 950.984 1011.15 950.204 1014.41 950.204C1017.57 950.204 1020.29 950.845 1022.58 952.128V951.452C1022.58 949.684 1022.02 948.401 1020.91 947.604C1019.84 946.807 1018.09 946.408 1015.66 946.408C1014.13 946.408 1012.63 946.564 1011.14 946.876C1009.64 947.153 1008.33 947.552 1007.18 948.072V942.924C1008.22 942.439 1009.61 942.04 1011.34 941.728C1013.11 941.416 1014.81 941.26 1016.44 941.26C1020.77 941.26 1023.98 942.196 1026.06 944.068C1028.14 945.905 1029.18 948.471 1029.18 951.764V967H1022.99V964.556C1021.92 965.596 1020.69 966.393 1019.3 966.948C1017.95 967.503 1016.28 967.78 1014.31 967.78ZM1015.92 962.996C1017.38 962.996 1018.69 962.719 1019.87 962.164C1021.05 961.575 1021.95 960.777 1022.58 959.772V957.016C1020.67 955.664 1018.48 954.988 1016.02 954.988C1012.52 954.988 1010.77 956.34 1010.77 959.044C1010.77 960.361 1011.2 961.349 1012.07 962.008C1012.97 962.667 1014.26 962.996 1015.92 962.996ZM1048.37 978.96C1046.71 978.96 1045.05 978.804 1043.38 978.492C1041.72 978.18 1040.33 977.764 1039.22 977.244V972.044C1041.93 973.223 1044.98 973.812 1048.37 973.812C1051.43 973.812 1053.61 973.171 1054.93 971.888C1056.28 970.605 1056.95 968.699 1056.95 966.168V964.556C1055.78 965.631 1054.37 966.445 1052.74 967C1051.11 967.52 1049.36 967.78 1047.49 967.78C1044.96 967.78 1042.67 967.225 1040.63 966.116C1038.58 964.972 1036.99 963.395 1035.84 961.384C1034.7 959.373 1034.13 957.068 1034.13 954.468C1034.13 951.833 1034.68 949.528 1035.79 947.552C1036.93 945.541 1038.49 943.999 1040.47 942.924C1042.48 941.815 1044.75 941.26 1047.28 941.26C1049.4 941.26 1051.22 941.555 1052.74 942.144C1054.27 942.699 1055.74 943.635 1057.16 944.952V942.04H1063.51V965.492C1063.51 969.791 1062.26 973.101 1059.76 975.424C1057.3 977.781 1053.51 978.96 1048.37 978.96ZM1048.89 962.632C1050.77 962.632 1052.43 962.129 1053.89 961.124C1055.38 960.084 1056.4 958.715 1056.95 957.016V951.972C1056.37 950.273 1055.34 948.921 1053.89 947.916C1052.43 946.911 1050.77 946.408 1048.89 946.408C1046.54 946.408 1044.6 947.153 1043.07 948.644C1041.55 950.135 1040.78 952.076 1040.78 954.468C1040.78 956.86 1041.55 958.819 1043.07 960.344C1044.6 961.869 1046.54 962.632 1048.89 962.632ZM1083.79 967.78C1079.14 967.78 1075.47 966.619 1072.76 964.296C1070.06 961.973 1068.71 958.732 1068.71 954.572C1068.71 950.481 1069.9 947.24 1072.3 944.848C1074.69 942.456 1078.1 941.26 1082.54 941.26C1085.45 941.26 1087.93 941.815 1089.98 942.924C1092.06 944.033 1093.62 945.559 1094.66 947.5C1095.7 949.407 1096.22 951.591 1096.22 954.052V957.068H1074.95C1075.4 960.777 1078.62 962.632 1084.62 962.632C1086.22 962.632 1087.84 962.493 1089.51 962.216C1091.17 961.939 1092.63 961.557 1093.88 961.072V966.116C1092.7 966.601 1091.17 967 1089.3 967.312C1087.46 967.624 1085.63 967.78 1083.79 967.78ZM1090.03 952.596C1089.96 950.62 1089.25 949.095 1087.9 948.02C1086.58 946.945 1084.76 946.408 1082.44 946.408C1080.15 946.408 1078.35 946.963 1077.03 948.072C1075.71 949.181 1075.02 950.689 1074.95 952.596H1090.03ZM1130.21 967.78C1127.47 967.78 1125.39 967.017 1123.97 965.492C1122.55 963.967 1121.84 961.817 1121.84 959.044V947.032H1118.09V942.04H1121.84V934.552H1128.39V942.04H1134.37V947.032H1128.39V958.212C1128.39 959.807 1128.69 960.951 1129.27 961.644C1129.86 962.303 1130.94 962.632 1132.5 962.632C1133.57 962.632 1134.63 962.389 1135.67 961.904V966.896C1134.18 967.485 1132.36 967.78 1130.21 967.78ZM1153.65 967.78C1150.74 967.78 1148.18 967.26 1145.96 966.22C1143.77 965.145 1142.07 963.62 1140.86 961.644C1139.65 959.633 1139.04 957.259 1139.04 954.52C1139.04 951.851 1139.63 949.528 1140.81 947.552C1142.02 945.541 1143.74 943.999 1145.96 942.924C1148.18 941.815 1150.74 941.26 1153.65 941.26C1156.56 941.26 1159.11 941.815 1161.3 942.924C1163.52 943.999 1165.23 945.541 1166.44 947.552C1167.66 949.528 1168.26 951.851 1168.26 954.52C1168.26 957.259 1167.66 959.633 1166.44 961.644C1165.23 963.62 1163.52 965.145 1161.3 966.22C1159.11 967.26 1156.56 967.78 1153.65 967.78ZM1153.65 962.632C1156.04 962.632 1157.95 961.887 1159.37 960.396C1160.79 958.871 1161.5 956.912 1161.5 954.52C1161.5 951.989 1160.79 950.013 1159.37 948.592C1157.99 947.136 1156.08 946.408 1153.65 946.408C1151.23 946.408 1149.3 947.136 1147.88 948.592C1146.49 950.013 1145.8 951.989 1145.8 954.52C1145.8 956.912 1146.51 958.871 1147.93 960.396C1149.35 961.887 1151.26 962.632 1153.65 962.632ZM293.181 1046.78C290.651 1046.78 288.38 1046.24 286.369 1045.17C284.393 1044.06 282.833 1042.52 281.689 1040.54C280.58 1038.53 280.025 1036.21 280.025 1033.57C280.025 1030.97 280.58 1028.67 281.689 1026.66C282.833 1024.65 284.393 1023.09 286.369 1021.98C288.38 1020.83 290.651 1020.26 293.181 1020.26C297.272 1020.26 300.496 1021.33 302.853 1023.48V1007.57H309.405V1046H303.061V1043.09C301.64 1044.41 300.167 1045.36 298.641 1045.95C297.116 1046.5 295.296 1046.78 293.181 1046.78ZM294.793 1041.63C296.665 1041.63 298.329 1041.13 299.785 1040.12C301.241 1039.12 302.264 1037.77 302.853 1036.07V1031.02C302.299 1029.33 301.276 1027.97 299.785 1026.97C298.329 1025.93 296.665 1025.41 294.793 1025.41C292.436 1025.41 290.495 1026.17 288.969 1027.7C287.444 1029.22 286.681 1031.18 286.681 1033.57C286.681 1035.96 287.444 1037.91 288.969 1039.4C290.495 1040.89 292.436 1041.63 294.793 1041.63ZM319.339 1016.67C318.299 1016.67 317.415 1016.33 316.687 1015.63C315.994 1014.94 315.647 1014.07 315.647 1013.03C315.647 1011.99 315.994 1011.13 316.687 1010.43C317.415 1009.7 318.299 1009.34 319.339 1009.34C320.379 1009.34 321.263 1009.7 321.991 1010.43C322.719 1011.13 323.083 1011.99 323.083 1013.03C323.083 1014.07 322.719 1014.94 321.991 1015.63C321.263 1016.33 320.379 1016.67 319.339 1016.67ZM316.011 1021.04H322.667V1046H316.011V1021.04ZM339.032 1046.78C337.229 1046.78 335.305 1046.57 333.26 1046.16C331.214 1045.74 329.62 1045.17 328.476 1044.44V1038.88C329.828 1039.71 331.44 1040.38 333.312 1040.9C335.184 1041.39 336.952 1041.63 338.616 1041.63C340.28 1041.63 341.493 1041.49 342.256 1041.22C343.018 1040.9 343.4 1040.35 343.4 1039.55C343.4 1038.93 343.192 1038.43 342.776 1038.04C342.394 1037.63 341.753 1037.26 340.852 1036.95C339.985 1036.61 338.633 1036.19 336.796 1035.7C334.716 1035.11 333.069 1034.51 331.856 1033.88C330.677 1033.26 329.776 1032.48 329.152 1031.54C328.562 1030.57 328.268 1029.33 328.268 1027.8C328.268 1025.3 329.256 1023.43 331.232 1022.18C333.208 1020.9 335.877 1020.26 339.24 1020.26C340.973 1020.26 342.689 1020.43 344.388 1020.78C346.121 1021.09 347.473 1021.54 348.444 1022.13V1027.49C347.404 1026.86 346.138 1026.36 344.648 1025.98C343.157 1025.6 341.632 1025.41 340.072 1025.41C338.373 1025.41 337.09 1025.58 336.224 1025.93C335.357 1026.24 334.924 1026.86 334.924 1027.8C334.924 1028.42 335.149 1028.93 335.6 1029.31C336.085 1029.65 336.709 1029.97 337.472 1030.24C338.234 1030.49 339.621 1030.87 341.632 1031.39C343.781 1031.98 345.462 1032.62 346.676 1033.31C347.889 1034.01 348.756 1034.84 349.276 1035.81C349.796 1036.78 350.056 1037.99 350.056 1039.45C350.056 1041.67 349.102 1043.45 347.196 1044.8C345.324 1046.12 342.602 1046.78 339.032 1046.78ZM355.257 1021.04H361.601V1024.06C362.953 1022.77 364.426 1021.82 366.021 1021.2C367.615 1020.57 369.435 1020.26 371.481 1020.26C374.011 1020.26 376.265 1020.81 378.241 1021.92C380.251 1023 381.811 1024.54 382.921 1026.55C384.065 1028.53 384.637 1030.83 384.637 1033.47C384.637 1036.07 384.065 1038.37 382.921 1040.38C381.811 1042.39 380.251 1043.97 378.241 1045.12C376.265 1046.23 374.011 1046.78 371.481 1046.78C369.574 1046.78 367.771 1046.52 366.073 1046C364.409 1045.45 362.987 1044.63 361.809 1043.56V1057.39H355.257V1021.04ZM369.869 1041.63C372.226 1041.63 374.167 1040.87 375.693 1039.34C377.218 1037.82 377.981 1035.86 377.981 1033.47C377.981 1031.08 377.218 1029.13 375.693 1027.64C374.167 1026.15 372.226 1025.41 369.869 1025.41C367.997 1025.41 366.333 1025.91 364.877 1026.92C363.421 1027.92 362.398 1029.27 361.809 1030.97V1036.02C362.363 1037.71 363.369 1039.08 364.825 1040.12C366.315 1041.13 367.997 1041.63 369.869 1041.63ZM389.839 1007.57H396.391V1046H389.839V1007.57ZM411.788 1046.78C408.806 1046.78 406.362 1046 404.456 1044.44C402.549 1042.85 401.596 1040.71 401.596 1038.04C401.596 1035.27 402.497 1033.1 404.3 1031.54C406.102 1029.98 408.633 1029.2 411.892 1029.2C415.046 1029.2 417.768 1029.85 420.056 1031.13V1030.45C420.056 1028.68 419.501 1027.4 418.392 1026.6C417.317 1025.81 415.566 1025.41 413.14 1025.41C411.614 1025.41 410.106 1025.56 408.616 1025.88C407.125 1026.15 405.808 1026.55 404.664 1027.07V1021.92C405.704 1021.44 407.09 1021.04 408.824 1020.73C410.592 1020.42 412.29 1020.26 413.92 1020.26C418.253 1020.26 421.46 1021.2 423.54 1023.07C425.62 1024.91 426.66 1027.47 426.66 1030.76V1046H420.472V1043.56C419.397 1044.6 418.166 1045.39 416.78 1045.95C415.428 1046.5 413.764 1046.78 411.788 1046.78ZM413.4 1042C414.856 1042 416.173 1041.72 417.352 1041.16C418.53 1040.57 419.432 1039.78 420.056 1038.77V1036.02C418.149 1034.66 415.965 1033.99 413.504 1033.99C410.002 1033.99 408.252 1035.34 408.252 1038.04C408.252 1039.36 408.685 1040.35 409.552 1041.01C410.453 1041.67 411.736 1042 413.4 1042ZM436.291 1056.3C435.39 1056.3 434.437 1056.23 433.431 1056.09C432.461 1055.98 431.698 1055.83 431.143 1055.62V1050.63C432.01 1050.97 433.085 1051.15 434.367 1051.15C435.685 1051.15 436.673 1050.85 437.331 1050.26C437.99 1049.67 438.562 1048.74 439.047 1047.46L440.035 1044.86L429.271 1021.04H435.875L443.571 1039.24L450.799 1021.04H457.351L446.431 1048.24C445.322 1050.97 443.97 1053 442.375 1054.32C440.815 1055.64 438.787 1056.3 436.291 1056.3ZM493.801 1046.78C490.889 1046.78 488.324 1046.26 486.105 1045.22C483.921 1044.18 482.223 1042.67 481.009 1040.7C479.796 1038.72 479.189 1036.35 479.189 1033.57C479.189 1030.8 479.796 1028.42 481.009 1026.45C482.257 1024.44 483.973 1022.91 486.157 1021.87C488.376 1020.8 490.959 1020.26 493.905 1020.26C497.788 1020.26 500.891 1021.02 503.213 1022.55V1027.8C500.96 1026.21 498.083 1025.41 494.581 1025.41C491.912 1025.41 489.78 1026.08 488.185 1027.44C486.625 1028.75 485.845 1030.8 485.845 1033.57C485.845 1036.31 486.625 1038.34 488.185 1039.66C489.78 1040.97 491.877 1041.63 494.477 1041.63C497.979 1041.63 500.995 1040.8 503.525 1039.14V1044.34C502.277 1045.17 500.856 1045.77 499.261 1046.16C497.701 1046.57 495.881 1046.78 493.801 1046.78ZM508.718 1007.57H515.27V1046H508.718V1007.57ZM531.291 1046.78C527.928 1046.78 525.415 1045.88 523.751 1044.08C522.087 1042.24 521.255 1039.81 521.255 1036.8V1021.04H527.807V1036.17C527.807 1039.81 529.505 1041.63 532.903 1041.63C534.393 1041.63 535.797 1041.29 537.115 1040.59C538.432 1039.86 539.541 1038.79 540.443 1037.37V1021.04H546.995V1046H540.651V1042.62C539.472 1044.04 538.068 1045.1 536.439 1045.79C534.809 1046.45 533.093 1046.78 531.291 1046.78ZM562.977 1046.78C561.174 1046.78 559.25 1046.57 557.205 1046.16C555.159 1045.74 553.565 1045.17 552.421 1044.44V1038.88C553.773 1039.71 555.385 1040.38 557.257 1040.9C559.129 1041.39 560.897 1041.63 562.561 1041.63C564.225 1041.63 565.438 1041.49 566.201 1041.22C566.963 1040.9 567.345 1040.35 567.345 1039.55C567.345 1038.93 567.137 1038.43 566.721 1038.04C566.339 1037.63 565.698 1037.26 564.797 1036.95C563.93 1036.61 562.578 1036.19 560.741 1035.7C558.661 1035.11 557.014 1034.51 555.801 1033.88C554.622 1033.26 553.721 1032.48 553.097 1031.54C552.507 1030.57 552.213 1029.33 552.213 1027.8C552.213 1025.3 553.201 1023.43 555.177 1022.18C557.153 1020.9 559.822 1020.26 563.185 1020.26C564.918 1020.26 566.634 1020.43 568.333 1020.78C570.066 1021.09 571.418 1021.54 572.389 1022.13V1027.49C571.349 1026.86 570.083 1026.36 568.593 1025.98C567.102 1025.6 565.577 1025.41 564.017 1025.41C562.318 1025.41 561.035 1025.58 560.169 1025.93C559.302 1026.24 558.869 1026.86 558.869 1027.8C558.869 1028.42 559.094 1028.93 559.545 1029.31C560.03 1029.65 560.654 1029.97 561.417 1030.24C562.179 1030.49 563.566 1030.87 565.577 1031.39C567.726 1031.98 569.407 1032.62 570.621 1033.31C571.834 1034.01 572.701 1034.84 573.221 1035.81C573.741 1036.78 574.001 1037.99 574.001 1039.45C574.001 1041.67 573.047 1043.45 571.141 1044.8C569.269 1046.12 566.547 1046.78 562.977 1046.78ZM588.476 1046.78C585.738 1046.78 583.658 1046.02 582.236 1044.49C580.815 1042.97 580.104 1040.82 580.104 1038.04V1026.03H576.36V1021.04H580.104V1013.55H586.656V1021.04H592.636V1026.03H586.656V1037.21C586.656 1038.81 586.951 1039.95 587.54 1040.64C588.13 1041.3 589.204 1041.63 590.764 1041.63C591.839 1041.63 592.896 1041.39 593.936 1040.9V1045.9C592.446 1046.49 590.626 1046.78 588.476 1046.78ZM612.64 1046.78C607.995 1046.78 604.32 1045.62 601.616 1043.3C598.912 1040.97 597.56 1037.73 597.56 1033.57C597.56 1029.48 598.756 1026.24 601.148 1023.85C603.54 1021.46 606.955 1020.26 611.392 1020.26C614.304 1020.26 616.783 1020.81 618.828 1021.92C620.908 1023.03 622.468 1024.56 623.508 1026.5C624.548 1028.41 625.068 1030.59 625.068 1033.05V1036.07H603.8C604.251 1039.78 607.475 1041.63 613.472 1041.63C615.067 1041.63 616.696 1041.49 618.36 1041.22C620.024 1040.94 621.48 1040.56 622.728 1040.07V1045.12C621.55 1045.6 620.024 1046 618.152 1046.31C616.315 1046.62 614.478 1046.78 612.64 1046.78ZM618.88 1031.6C618.811 1029.62 618.1 1028.09 616.748 1027.02C615.431 1025.95 613.611 1025.41 611.288 1025.41C609 1025.41 607.198 1025.96 605.88 1027.07C604.563 1028.18 603.87 1029.69 603.8 1031.6H618.88ZM630.288 1021.04H636.632V1025.04C637.637 1023.69 639.059 1022.69 640.896 1022.03C642.768 1021.37 644.9 1021.04 647.292 1021.04V1026.03C644.761 1026.03 642.56 1026.43 640.688 1027.23C638.851 1027.99 637.568 1029.2 636.84 1030.87V1046H630.288V1021.04ZM682.318 1046.78C679.787 1046.78 677.517 1046.24 675.506 1045.17C673.53 1044.06 671.97 1042.52 670.826 1040.54C669.717 1038.53 669.162 1036.21 669.162 1033.57C669.162 1030.97 669.717 1028.67 670.826 1026.66C671.97 1024.65 673.53 1023.09 675.506 1021.98C677.517 1020.83 679.787 1020.26 682.318 1020.26C686.409 1020.26 689.633 1021.33 691.99 1023.48V1007.57H698.542V1046H692.198V1043.09C690.777 1044.41 689.303 1045.36 687.778 1045.95C686.253 1046.5 684.433 1046.78 682.318 1046.78ZM683.93 1041.63C685.802 1041.63 687.466 1041.13 688.922 1040.12C690.378 1039.12 691.401 1037.77 691.99 1036.07V1031.02C691.435 1029.33 690.413 1027.97 688.922 1026.97C687.466 1025.93 685.802 1025.41 683.93 1025.41C681.573 1025.41 679.631 1026.17 678.106 1027.7C676.581 1029.22 675.818 1031.18 675.818 1033.57C675.818 1035.96 676.581 1037.91 678.106 1039.4C679.631 1040.89 681.573 1041.63 683.93 1041.63ZM718.824 1046.78C714.179 1046.78 710.504 1045.62 707.8 1043.3C705.096 1040.97 703.744 1037.73 703.744 1033.57C703.744 1029.48 704.94 1026.24 707.332 1023.85C709.724 1021.46 713.139 1020.26 717.576 1020.26C720.488 1020.26 722.967 1020.81 725.012 1021.92C727.092 1023.03 728.652 1024.56 729.692 1026.5C730.732 1028.41 731.252 1030.59 731.252 1033.05V1036.07H709.984C710.435 1039.78 713.659 1041.63 719.656 1041.63C721.251 1041.63 722.88 1041.49 724.544 1041.22C726.208 1040.94 727.664 1040.56 728.912 1040.07V1045.12C727.733 1045.6 726.208 1046 724.336 1046.31C722.499 1046.62 720.661 1046.78 718.824 1046.78ZM725.064 1031.6C724.995 1029.62 724.284 1028.09 722.932 1027.02C721.615 1025.95 719.795 1025.41 717.472 1025.41C715.184 1025.41 713.381 1025.96 712.064 1027.07C710.747 1028.18 710.053 1029.69 709.984 1031.6H725.064ZM746.508 1046.78C743.769 1046.78 741.689 1046.02 740.268 1044.49C738.846 1042.97 738.136 1040.82 738.136 1038.04V1026.03H734.392V1021.04H738.136V1013.55H744.688V1021.04H750.668V1026.03H744.688V1037.21C744.688 1038.81 744.982 1039.95 745.572 1040.64C746.161 1041.3 747.236 1041.63 748.796 1041.63C749.87 1041.63 750.928 1041.39 751.968 1040.9V1045.9C750.477 1046.49 748.657 1046.78 746.508 1046.78ZM770.672 1046.78C766.026 1046.78 762.352 1045.62 759.648 1043.3C756.944 1040.97 755.592 1037.73 755.592 1033.57C755.592 1029.48 756.788 1026.24 759.18 1023.85C761.572 1021.46 764.986 1020.26 769.424 1020.26C772.336 1020.26 774.814 1020.81 776.86 1021.92C778.94 1023.03 780.5 1024.56 781.54 1026.5C782.58 1028.41 783.1 1030.59 783.1 1033.05V1036.07H761.832C762.282 1039.78 765.506 1041.63 771.504 1041.63C773.098 1041.63 774.728 1041.49 776.392 1041.22C778.056 1040.94 779.512 1040.56 780.76 1040.07V1045.12C779.581 1045.6 778.056 1046 776.184 1046.31C774.346 1046.62 772.509 1046.78 770.672 1046.78ZM776.912 1031.6C776.842 1029.62 776.132 1028.09 774.78 1027.02C773.462 1025.95 771.642 1025.41 769.32 1025.41C767.032 1025.41 765.229 1025.96 763.912 1027.07C762.594 1028.18 761.901 1029.69 761.832 1031.6H776.912ZM801.891 1046.78C798.979 1046.78 796.414 1046.26 794.195 1045.22C792.011 1044.18 790.313 1042.67 789.099 1040.7C787.886 1038.72 787.279 1036.35 787.279 1033.57C787.279 1030.8 787.886 1028.42 789.099 1026.45C790.347 1024.44 792.063 1022.91 794.247 1021.87C796.466 1020.8 799.049 1020.26 801.995 1020.26C805.878 1020.26 808.981 1021.02 811.303 1022.55V1027.8C809.05 1026.21 806.173 1025.41 802.671 1025.41C800.002 1025.41 797.87 1026.08 796.275 1027.44C794.715 1028.75 793.935 1030.8 793.935 1033.57C793.935 1036.31 794.715 1038.34 796.275 1039.66C797.87 1040.97 799.967 1041.63 802.567 1041.63C806.069 1041.63 809.085 1040.8 811.615 1039.14V1044.34C810.367 1045.17 808.946 1045.77 807.351 1046.16C805.791 1046.57 803.971 1046.78 801.891 1046.78ZM826.844 1046.78C824.105 1046.78 822.025 1046.02 820.604 1044.49C819.182 1042.97 818.472 1040.82 818.472 1038.04V1026.03H814.728V1021.04H818.472V1013.55H825.024V1021.04H831.004V1026.03H825.024V1037.21C825.024 1038.81 825.318 1039.95 825.908 1040.64C826.497 1041.3 827.572 1041.63 829.132 1041.63C830.206 1041.63 831.264 1041.39 832.304 1040.9V1045.9C830.813 1046.49 828.993 1046.78 826.844 1046.78ZM840.66 1016.67C839.62 1016.67 838.736 1016.33 838.008 1015.63C837.314 1014.94 836.968 1014.07 836.968 1013.03C836.968 1011.99 837.314 1011.13 838.008 1010.43C838.736 1009.7 839.62 1009.34 840.66 1009.34C841.7 1009.34 842.584 1009.7 843.312 1010.43C844.04 1011.13 844.404 1011.99 844.404 1013.03C844.404 1014.07 844.04 1014.94 843.312 1015.63C842.584 1016.33 841.7 1016.67 840.66 1016.67ZM837.332 1021.04H843.988V1046H837.332V1021.04ZM864.2 1046.78C861.288 1046.78 858.722 1046.26 856.504 1045.22C854.32 1044.15 852.621 1042.62 851.408 1040.64C850.194 1038.63 849.588 1036.26 849.588 1033.52C849.588 1030.85 850.177 1028.53 851.356 1026.55C852.569 1024.54 854.285 1023 856.504 1021.92C858.722 1020.81 861.288 1020.26 864.2 1020.26C867.112 1020.26 869.66 1020.81 871.844 1021.92C874.062 1023 875.778 1024.54 876.992 1026.55C878.205 1028.53 878.812 1030.85 878.812 1033.52C878.812 1036.26 878.205 1038.63 876.992 1040.64C875.778 1042.62 874.062 1044.15 871.844 1045.22C869.66 1046.26 867.112 1046.78 864.2 1046.78ZM864.2 1041.63C866.592 1041.63 868.498 1040.89 869.92 1039.4C871.341 1037.87 872.052 1035.91 872.052 1033.52C872.052 1030.99 871.341 1029.01 869.92 1027.59C868.533 1026.14 866.626 1025.41 864.2 1025.41C861.773 1025.41 859.849 1026.14 858.428 1027.59C857.041 1029.01 856.348 1030.99 856.348 1033.52C856.348 1035.91 857.058 1037.87 858.48 1039.4C859.901 1040.89 861.808 1041.63 864.2 1041.63ZM883.991 1021.04H890.335V1024.42C891.514 1023 892.918 1021.96 894.547 1021.3C896.176 1020.61 897.892 1020.26 899.695 1020.26C903.058 1020.26 905.571 1021.18 907.235 1023.02C908.899 1024.82 909.731 1027.23 909.731 1030.24V1046H903.179V1030.87C903.179 1027.23 901.48 1025.41 898.083 1025.41C896.592 1025.41 895.188 1025.77 893.871 1026.5C892.554 1027.19 891.444 1028.25 890.543 1029.67V1046H883.991V1021.04ZM917.341 1046C916.613 1046 915.989 1045.76 915.469 1045.27C914.949 1044.75 914.689 1044.13 914.689 1043.4C914.689 1042.64 914.949 1042 915.469 1041.48C915.989 1040.96 916.613 1040.7 917.341 1040.7C918.069 1040.7 918.693 1040.96 919.213 1041.48C919.733 1042 919.993 1042.64 919.993 1043.4C919.993 1044.13 919.733 1044.75 919.213 1045.27C918.693 1045.76 918.069 1046 917.341 1046Z" fill="#735DFB"/>
<g clip-path="url(#clip0_673_2325)">
<path d="M671.889 396.066C695.359 396.066 714.385 377.04 714.385 353.571C714.385 330.102 695.359 311.076 671.889 311.076C648.42 311.076 629.394 330.102 629.394 353.571C629.394 377.04 648.42 396.066 671.889 396.066Z" fill="#E6E6E6"/>
<path d="M776.037 408.179L731.629 363.771C735.033 358.476 737.339 352.552 738.412 346.35C739.485 340.148 739.302 333.793 737.873 327.663C736.445 321.533 733.801 315.751 730.098 310.662C726.395 305.572 721.707 301.277 716.314 298.032C706.158 291.965 694.094 289.933 682.511 292.339C670.928 294.745 660.671 301.414 653.772 311.023C647.423 319.925 644.374 330.76 645.148 341.666C645.923 352.572 650.473 362.868 658.016 370.783C665.559 378.698 675.624 383.738 686.48 385.036C697.336 386.335 708.306 383.811 717.502 377.898L761.911 422.306C763.785 424.177 766.325 425.228 768.973 425.227C771.621 425.227 774.161 424.174 776.034 422.302C777.906 420.429 778.958 417.889 778.959 415.241C778.96 412.593 777.909 410.053 776.037 408.179ZM715.844 362.113C710.342 367.616 703.101 371.04 695.357 371.803C687.613 372.566 679.844 370.62 673.373 366.297C666.903 361.974 662.132 355.541 659.873 348.094C657.614 340.647 658.007 332.648 660.984 325.459C663.962 318.269 669.341 312.335 676.204 308.666C683.067 304.998 690.989 303.823 698.622 305.341C706.254 306.859 713.124 310.977 718.061 316.992C722.997 323.007 725.696 330.548 725.696 338.33C725.701 342.748 724.834 347.123 723.143 351.205C721.453 355.286 718.972 358.994 715.844 362.113Z" fill="#3F3D56"/>
<path d="M1097.95 473.683C1211.52 599.277 882.3 780.276 616.283 780.276C350.267 780.276 166.226 640.033 134.619 473.683C57.9823 70.339 787.58 -186.024 616.283 167.09C366.6 681.795 1008.51 374.775 1097.95 473.683Z" fill="#E6E6E6"/>
<path d="M1046.99 503.407C1160.56 629.001 831.343 810 565.327 810C299.311 810 115.269 669.758 83.6622 503.407C7.02576 100.063 736.623 -156.3 565.327 196.814C315.643 711.519 957.553 404.499 1046.99 503.407Z" fill="#504E75"/>
<path d="M236.808 208.946C157.117 205.437 95.328 188.247 96.1397 169.811C96.6264 158.758 119.18 149.87 158.016 145.427C158.155 145.41 158.296 145.421 158.431 145.459C158.566 145.497 158.692 145.561 158.802 145.648C158.912 145.735 159.003 145.842 159.072 145.964C159.14 146.087 159.183 146.221 159.199 146.36C159.215 146.5 159.203 146.64 159.164 146.775C159.126 146.909 159.061 147.035 158.973 147.144C158.886 147.254 158.777 147.345 158.655 147.412C158.532 147.479 158.397 147.522 158.258 147.537C121.674 151.722 98.6841 160.293 98.2608 169.905C97.5268 186.576 161.016 203.483 236.901 206.825C312.786 210.166 377.516 198.904 378.25 182.232C378.675 172.581 356.384 161.993 320.077 154.601C319.94 154.574 319.81 154.52 319.694 154.442C319.578 154.364 319.478 154.264 319.401 154.147C319.324 154.031 319.27 153.901 319.244 153.763C319.217 153.626 319.217 153.485 319.245 153.348C319.273 153.212 319.328 153.082 319.406 152.966C319.484 152.85 319.585 152.751 319.701 152.674C319.818 152.597 319.948 152.544 320.086 152.518C320.223 152.491 320.364 152.492 320.501 152.521C359.037 160.366 380.859 171.23 380.371 182.326C379.559 200.762 316.499 212.454 236.808 208.946Z" fill="#735DFB"/>
<path d="M166.03 212.033C172.697 224.697 182.572 235.389 194.669 243.038C206.765 250.687 220.658 255.025 234.958 255.619C249.257 256.212 263.462 253.04 276.151 246.42C288.839 239.8 299.567 229.963 307.26 217.895C260.112 218.53 212.964 216.574 166.03 212.033Z" fill="#735DFB"/>
<path d="M316.075 195.565C320.087 183.53 321.243 170.728 319.452 158.169C317.66 145.611 312.971 133.642 305.753 123.21C298.536 112.777 288.99 104.168 277.87 98.0628C266.75 91.9577 254.362 88.5246 241.686 88.0351C229.01 87.5456 216.394 90.0132 204.836 95.2425C193.279 100.472 183.097 108.319 175.097 118.164C167.097 128.009 161.498 139.581 158.743 151.963C155.988 164.346 156.154 177.2 159.226 189.508C211.027 198.301 263.75 200.337 316.075 195.565Z" fill="#735DFB"/>
<path d="M257.232 140.766C262.509 140.766 266.786 136.489 266.786 131.212C266.786 125.935 262.509 121.658 257.232 121.658C251.955 121.658 247.678 125.935 247.678 131.212C247.678 136.489 251.955 140.766 257.232 140.766Z" fill="white"/>
<path d="M208.059 177.911C216.854 177.911 223.983 170.782 223.983 161.988C223.983 153.193 216.854 146.064 208.059 146.064C199.265 146.064 192.135 153.193 192.135 161.988C192.135 170.782 199.265 177.911 208.059 177.911Z" fill="white"/>
<path d="M448.394 162.313C454.257 162.313 459.01 157.56 459.01 151.698C459.01 145.835 454.257 141.082 448.394 141.082C442.532 141.082 437.779 145.835 437.779 151.698C437.779 157.56 442.532 162.313 448.394 162.313Z" fill="#735DFB"/>
<path d="M208.475 487.157C211.992 487.157 214.844 484.305 214.844 480.787C214.844 477.269 211.992 474.418 208.475 474.418C204.957 474.418 202.105 477.269 202.105 480.787C202.105 484.305 204.957 487.157 208.475 487.157Z" fill="#E6E6E6"/>
<path d="M654.343 705.842C657.861 705.842 660.713 702.99 660.713 699.473C660.713 695.955 657.861 693.103 654.343 693.103C650.825 693.103 647.974 695.955 647.974 699.473C647.974 702.99 650.825 705.842 654.343 705.842Z" fill="#E6E6E6"/>
<path d="M239.261 364.014C241.02 364.014 242.446 362.588 242.446 360.829C242.446 359.07 241.02 357.644 239.261 357.644C237.502 357.644 236.076 359.07 236.076 360.829C236.076 362.588 237.502 364.014 239.261 364.014Z" fill="#E6E6E6"/>
<path d="M502.535 601.807C504.294 601.807 505.72 600.381 505.72 598.623C505.72 596.864 504.294 595.438 502.535 595.438C500.776 595.438 499.351 596.864 499.351 598.623C499.351 600.381 500.776 601.807 502.535 601.807Z" fill="#E6E6E6"/>
<path d="M981.313 571.022C983.072 571.022 984.498 569.596 984.498 567.837C984.498 566.078 983.072 564.652 981.313 564.652C979.554 564.652 978.128 566.078 978.128 567.837C978.128 569.596 979.554 571.022 981.313 571.022Z" fill="#E6E6E6"/>
<path d="M831.629 665.502C833.388 665.502 834.814 664.076 834.814 662.317C834.814 660.558 833.388 659.133 831.629 659.133C829.87 659.133 828.444 660.558 828.444 662.317C828.444 664.076 829.87 665.502 831.629 665.502Z" fill="#E6E6E6"/>
<path d="M675.575 550.852C677.334 550.852 678.76 549.426 678.76 547.667C678.76 545.908 677.334 544.482 675.575 544.482C673.816 544.482 672.39 545.908 672.39 547.667C672.39 549.426 673.816 550.852 675.575 550.852Z" fill="#E6E6E6"/>
<path d="M473.872 236.624C475.631 236.624 477.057 235.198 477.057 233.439C477.057 231.68 475.631 230.254 473.872 230.254C472.113 230.254 470.688 231.68 470.688 233.439C470.688 235.198 472.113 236.624 473.872 236.624Z" fill="#E6E6E6"/>
<path d="M499.351 79.5104C501.11 79.5104 502.536 78.0845 502.536 76.3256C502.536 74.5666 501.11 73.1407 499.351 73.1407C497.592 73.1407 496.166 74.5666 496.166 76.3256C496.166 78.0845 497.592 79.5104 499.351 79.5104Z" fill="#E6E6E6"/>
<path d="M484.489 740.874C486.247 740.874 487.673 739.448 487.673 737.689C487.673 735.931 486.247 734.505 484.489 734.505C482.73 734.505 481.304 735.931 481.304 737.689C481.304 739.448 482.73 740.874 484.489 740.874Z" fill="#E6E6E6"/>
<path d="M327.373 673.995C329.132 673.995 330.558 672.569 330.558 670.81C330.558 669.051 329.132 667.625 327.373 667.625C325.614 667.625 324.188 669.051 324.188 670.81C324.188 672.569 325.614 673.995 327.373 673.995Z" fill="#E6E6E6"/>
<path d="M825.259 559.344C827.018 559.344 828.444 557.918 828.444 556.159C828.444 554.4 827.018 552.975 825.259 552.975C823.5 552.975 822.074 554.4 822.074 556.159C822.074 557.918 823.5 559.344 825.259 559.344Z" fill="#E6E6E6"/>
<path d="M235.512 248.196C240.789 248.196 245.067 243.918 245.067 238.642C245.067 233.365 240.789 229.087 235.512 229.087C230.236 229.087 225.958 233.365 225.958 238.642C225.958 243.918 230.236 248.196 235.512 248.196Z" fill="white"/>
<path d="M451.579 385.245C451.579 413.781 407.46 480.274 394.567 499.096C394.178 499.665 393.656 500.131 393.046 500.452C392.436 500.774 391.758 500.942 391.068 500.942C390.379 500.942 389.7 500.774 389.091 500.452C388.481 500.131 387.959 499.665 387.57 499.096C374.677 480.274 330.558 413.781 330.558 385.245C330.558 377.299 332.123 369.43 335.164 362.089C338.205 354.748 342.662 348.077 348.281 342.458C353.9 336.839 360.57 332.382 367.912 329.341C375.253 326.3 383.122 324.735 391.068 324.735C399.015 324.735 406.883 326.3 414.225 329.341C421.566 332.382 428.237 336.839 433.856 342.458C439.475 348.077 443.932 354.748 446.973 362.089C450.014 369.43 451.579 377.299 451.579 385.245Z" fill="white"/>
<path d="M391.068 411.785C408.071 411.785 421.855 398.001 421.855 380.999C421.855 363.996 408.071 350.213 391.068 350.213C374.066 350.213 360.282 363.996 360.282 380.999C360.282 398.001 374.066 411.785 391.068 411.785Z" fill="#735DFB"/>
<path d="M390.537 533.866C410.179 533.866 426.101 530.777 426.101 526.966C426.101 523.155 410.179 520.066 390.537 520.066C370.896 520.066 354.974 523.155 354.974 526.966C354.974 530.777 370.896 533.866 390.537 533.866Z" fill="white"/>
<path d="M945.164 337.497C944.895 338.019 944.668 338.561 944.484 339.119L893.758 353.214L884.617 344.268L869.313 356.299L883.957 373.708C885.14 375.115 886.747 376.099 888.537 376.515C890.328 376.93 892.204 376.753 893.886 376.011L948.681 351.823C950.54 353.113 952.748 353.807 955.011 353.812C957.274 353.817 959.485 353.133 961.349 351.851C963.214 350.569 964.644 348.749 965.449 346.634C966.255 344.52 966.397 342.21 965.858 340.012C965.318 337.814 964.122 335.833 962.429 334.331C960.736 332.83 958.626 331.879 956.38 331.606C954.133 331.333 951.857 331.751 949.854 332.803C947.85 333.855 946.215 335.492 945.164 337.497Z" fill="#FFB8B8"/>
<path d="M891.97 354.04L872.931 368.859C872.389 369.281 871.763 369.581 871.094 369.739C870.426 369.896 869.732 369.908 869.059 369.774C868.386 369.639 867.75 369.361 867.194 368.958C866.638 368.555 866.175 368.037 865.837 367.44L854.004 346.497C851.862 343.714 850.911 340.194 851.36 336.71C851.81 333.226 853.622 330.063 856.4 327.913C859.179 325.764 862.696 324.804 866.181 325.244C869.666 325.684 872.834 327.489 874.991 330.261L892.336 346.815C892.832 347.29 893.22 347.865 893.474 348.503C893.728 349.141 893.842 349.826 893.807 350.511C893.773 351.197 893.591 351.867 893.274 352.476C892.957 353.085 892.512 353.618 891.97 354.04Z" fill="#735DFB"/>
<path d="M950.029 330.487L969.337 339.174C970.145 339.538 970.776 340.208 971.091 341.037C971.405 341.866 971.378 342.786 971.014 343.594L968.728 348.675C968.997 348.797 969.207 349.021 969.311 349.297C969.416 349.573 969.407 349.879 969.287 350.149L968.373 352.181C968.251 352.45 968.027 352.66 967.751 352.765C967.475 352.869 967.169 352.861 966.899 352.74L965.985 354.773C966.253 354.895 966.463 355.118 966.568 355.394C966.673 355.67 966.664 355.977 966.544 356.246L965.629 358.279C965.507 358.548 965.284 358.757 965.008 358.862C964.732 358.967 964.425 358.958 964.156 358.838L951.811 386.275C951.448 387.084 950.777 387.715 949.948 388.029C949.12 388.344 948.2 388.316 947.391 387.952L928.083 379.266C927.274 378.902 926.643 378.232 926.329 377.403C926.014 376.574 926.042 375.654 926.406 374.845L945.608 332.164C945.972 331.356 946.642 330.725 947.471 330.41C948.3 330.096 949.22 330.124 950.029 330.487Z" fill="#3F3D56"/>
<path d="M931.589 376.562L947.078 383.538C947.854 383.885 948.736 383.911 949.531 383.61C950.327 383.31 950.971 382.707 951.324 381.933L958.478 366.021L960.963 360.505L967.437 346.108C967.783 345.333 967.808 344.453 967.508 343.66C967.207 342.866 966.605 342.224 965.832 341.873L960.963 339.678L950.332 334.898C949.556 334.551 948.674 334.527 947.88 334.829C947.086 335.132 946.445 335.738 946.097 336.513L939.835 350.431L932.703 366.277L929.984 372.328C929.637 373.102 929.611 373.983 929.912 374.776C930.212 375.57 930.815 376.212 931.589 376.562Z" fill="#F2F2F2"/>
<path d="M899.223 573.723L912.238 573.722L918.43 523.522L899.221 523.523L899.223 573.723Z" fill="#FFB8B8"/>
<path d="M895.903 569.474L921.534 569.473C923.679 569.473 925.804 569.895 927.786 570.716C929.768 571.537 931.568 572.74 933.085 574.257C934.602 575.773 935.805 577.574 936.626 579.556C937.447 581.538 937.869 583.662 937.869 585.807V586.337L895.904 586.339L895.903 569.474Z" fill="#2F2E41"/>
<path d="M933.194 570.538L946.209 570.537L952.401 520.337L933.191 520.338L933.194 570.538Z" fill="#FFB8B8"/>
<path d="M929.874 566.289L955.505 566.288C957.65 566.288 959.775 566.711 961.757 567.531C963.739 568.352 965.539 569.555 967.056 571.072C968.573 572.589 969.776 574.389 970.597 576.371C971.418 578.353 971.84 580.477 971.84 582.622V583.153L929.875 583.154L929.874 566.289Z" fill="#2F2E41"/>
<path d="M840.844 455.925C843.617 464.145 848.876 471.299 855.894 476.398C862.912 481.497 871.342 484.289 880.016 484.386L880.675 484.397C887.394 484.588 895.282 482.422 903.021 479.312C918.308 473.165 932.99 463.324 936.886 460.617L930.283 524.089L927.607 549.822C927.54 550.488 927.613 551.16 927.821 551.796C928.029 552.432 928.368 553.017 928.816 553.514C929.264 554.011 929.811 554.409 930.422 554.682C931.033 554.955 931.694 555.096 932.363 555.098H948.85C949.907 555.099 950.935 554.749 951.772 554.103C952.609 553.458 953.209 552.553 953.478 551.531L980.698 447.868C981.514 444.765 981.58 441.512 980.889 438.379C980.199 435.246 978.772 432.322 976.727 429.85C974.682 427.378 972.078 425.428 969.13 424.162C966.182 422.896 962.974 422.35 959.774 422.57L903.233 426.445L907.182 410.649L856.714 407.294L856.566 407.4C855.356 408.281 854.177 409.205 853.052 410.171C850.238 412.551 847.744 415.284 845.631 418.303C841.852 423.72 839.441 429.972 838.608 436.525C837.774 443.077 838.541 449.734 840.844 455.925Z" fill="#2F2E41"/>
<path d="M840.844 455.925C843.617 464.145 848.876 471.299 855.894 476.398C862.912 481.497 871.342 484.289 880.016 484.386C888.311 480.188 896.316 475.439 903.976 470.172L903.021 479.312L894.698 559.376C894.631 560.042 894.703 560.714 894.911 561.35C895.119 561.986 895.458 562.572 895.906 563.069C896.354 563.566 896.902 563.963 897.513 564.236C898.124 564.509 898.785 564.651 899.454 564.652H915.94C916.998 564.653 918.025 564.303 918.863 563.658C919.7 563.012 920.3 562.108 920.569 561.085L930.283 524.089L947.788 457.422C948.605 454.319 948.67 451.067 947.98 447.933C947.289 444.8 945.863 441.876 943.818 439.404C941.773 436.932 939.169 434.982 936.22 433.716C933.272 432.45 930.065 431.905 926.864 432.125L870.324 435.999L874.273 420.203L845.631 418.303C841.851 423.72 839.441 429.972 838.608 436.525C837.774 443.077 838.541 449.734 840.844 455.925Z" fill="#2F2E41"/>
<path d="M852.98 413.833L852.6 413.788L843.794 370.491C843.719 370.115 836.52 332.77 858.589 313.246L858.973 310.574C859.072 309.89 859.317 309.236 859.693 308.656C860.069 308.076 860.566 307.585 861.15 307.216C861.734 306.847 862.391 306.608 863.076 306.518C863.761 306.427 864.457 306.486 865.117 306.691L885.908 313.14C887.085 313.502 888.076 314.306 888.673 315.383C889.271 316.46 889.428 317.726 889.113 318.917L887.092 326.604C889.894 329.895 922.883 369.611 911.392 400.209L906.246 420.328L852.98 413.833Z" fill="#735DFB"/>
<path d="M939.309 380.042C938.812 380.355 938.34 380.706 937.898 381.093L887.051 367.444L883.727 355.093L864.432 357.674L868.192 380.11C868.495 381.922 869.379 383.587 870.71 384.855C872.04 386.123 873.746 386.924 875.571 387.14L935.054 394.167C935.999 396.223 937.548 397.943 939.494 399.097C941.44 400.252 943.692 400.787 945.949 400.631C948.207 400.474 950.363 399.635 952.132 398.223C953.901 396.811 955.197 394.894 955.85 392.728C956.503 390.561 956.48 388.247 955.786 386.093C955.091 383.939 953.757 382.048 951.962 380.671C950.166 379.294 947.994 378.496 945.734 378.384C943.473 378.272 941.232 378.85 939.309 380.042Z" fill="#FFB8B8"/>
<path d="M885.091 367.246L861.162 370.329C860.481 370.417 859.789 370.356 859.134 370.153C858.478 369.949 857.874 369.606 857.363 369.148C856.852 368.69 856.445 368.127 856.171 367.497C855.897 366.868 855.762 366.187 855.775 365.501L856.232 341.451C855.802 337.965 856.773 334.451 858.931 331.679C861.089 328.908 864.258 327.105 867.743 326.667C871.228 326.228 874.745 327.19 877.522 329.34C880.299 331.49 882.11 334.654 882.558 338.138L889.079 361.211C889.265 361.871 889.307 362.565 889.202 363.243C889.096 363.921 888.846 364.569 888.467 365.142C888.089 365.714 887.591 366.199 887.009 366.562C886.426 366.925 885.772 367.159 885.091 367.246Z" fill="#735DFB"/>
<path d="M878.356 300.814C892.756 300.814 904.429 289.141 904.429 274.741C904.429 260.341 892.756 248.667 878.356 248.667C863.955 248.667 852.282 260.341 852.282 274.741C852.282 289.141 863.955 300.814 878.356 300.814Z" fill="#FFB8B8"/>
<path d="M876.984 276.918L873.719 270.974C867.536 296.167 878.458 317.018 878.458 317.018L836.066 297.271L836.47 290.265L832.275 295.025L826.248 291.704L825.452 287.159L820.902 288.286L837.509 258.151C853.627 229.474 877.059 240.423 877.059 240.423C914.337 238.651 909.785 275.429 909.785 275.429L876.984 276.918Z" fill="#2F2E41"/>
<path d="M580.175 471.221C586.187 467.367 578.876 445.237 563.846 421.792C548.816 398.347 531.758 382.465 525.747 386.319C519.735 390.173 527.046 412.303 542.076 435.748C557.106 459.193 574.163 475.075 580.175 471.221Z" fill="#605E7B"/>
</g>
<defs>
<clipPath id="clip0_673_2325">
<rect width="1043" height="810" fill="white" transform="translate(78)"/>
</clipPath>
</defs>
</svg>
