<svg width="423" height="456" viewBox="0 0 423 456" fill="none" xmlns="http://www.w3.org/2000/svg">
<g clip-path="url(#clip0_63_1255)">
<path d="M-0.484795 222.59C-10.0616 336.85 101.895 417.58 238.551 429.034C375.207 440.488 436.555 313.134 379.2 283.198C175.966 266.164 314.126 125.602 236.407 76.1404C51.4297 12.2068 9.09203 108.331 -0.484795 222.59Z" fill="#735DFB" fill-opacity="0.2"/>
<path d="M154.679 258.719L337.527 305.893C343.729 307.486 350.309 306.549 355.822 303.287C361.336 300.025 365.333 294.706 366.937 288.496L422.235 73.3527C423.824 67.1387 422.889 60.5466 419.633 55.0227C416.378 49.4988 411.068 45.4942 404.87 43.8875L234.76 0L191.22 19.5281L137.314 229.254C135.724 235.468 136.66 242.06 139.915 247.584C143.171 253.108 148.48 257.113 154.679 258.719V258.719Z" fill="#F2F2F2"/>
<path d="M403.135 50.6329C407.55 51.7771 411.331 54.6289 413.649 58.5626C415.967 62.4962 416.633 67.1906 415.501 71.6158L360.203 286.759C359.061 291.181 356.215 294.969 352.289 297.292C348.362 299.615 343.677 300.282 339.26 299.148L156.412 251.974C151.998 250.83 148.217 247.978 145.899 244.044C143.581 240.111 142.914 235.416 144.046 230.991L197.117 24.5148L235.381 7.35303L403.135 50.6329Z" fill="white"/>
<path d="M191.684 20.6378L219.982 27.9386C222.048 28.4716 224.241 28.1605 226.078 27.0739C227.914 25.9872 229.245 24.214 229.777 22.1443L235.159 1.20444C235.183 1.11277 235.18 1.0163 235.152 0.92609C235.123 0.835884 235.07 0.755598 234.997 0.694435C234.925 0.633272 234.837 0.593709 234.744 0.580285C234.65 0.566862 234.555 0.580117 234.469 0.618537L191.605 19.6898C191.51 19.7322 191.43 19.8034 191.377 19.8933C191.324 19.9833 191.3 20.0876 191.308 20.1918C191.317 20.296 191.358 20.3949 191.425 20.4749C191.492 20.5548 191.583 20.6117 191.684 20.6378V20.6378Z" fill="#F2F2F2"/>
<path d="M206.572 204.365L289.82 225.843C290.331 225.975 290.863 226.005 291.386 225.93C291.909 225.856 292.413 225.68 292.867 225.411C293.322 225.141 293.72 224.785 294.037 224.362C294.354 223.94 294.585 223.458 294.717 222.946C294.849 222.433 294.879 221.9 294.805 221.376C294.73 220.852 294.554 220.348 294.286 219.892C294.017 219.437 293.662 219.038 293.24 218.72C292.817 218.402 292.337 218.171 291.825 218.039L208.578 196.561C208.066 196.429 207.534 196.4 207.011 196.474C206.488 196.548 205.985 196.725 205.53 196.994C205.075 197.263 204.678 197.619 204.36 198.042C204.043 198.465 203.812 198.946 203.68 199.459C203.548 199.971 203.519 200.504 203.593 201.028C203.667 201.552 203.843 202.056 204.112 202.512C204.38 202.968 204.736 203.366 205.158 203.684C205.58 204.002 206.06 204.233 206.572 204.365Z" fill="#CCCCCC"/>
<path d="M187.121 213.39L286.434 239.012C287.467 239.279 288.564 239.123 289.482 238.58C290.401 238.036 291.066 237.15 291.332 236.115C291.598 235.08 291.443 233.982 290.9 233.062C290.358 232.141 289.473 231.475 288.44 231.208L189.127 205.586C188.094 205.32 186.999 205.477 186.081 206.02C185.163 206.563 184.499 207.45 184.233 208.484C183.967 209.518 184.122 210.616 184.663 211.536C185.205 212.456 186.089 213.123 187.121 213.39V213.39Z" fill="#CCCCCC"/>
<path d="M323.797 251.71C315.946 251.71 309.582 245.334 309.582 237.469C309.582 229.604 315.946 223.228 323.797 223.228C331.647 223.228 338.011 229.604 338.011 237.469C338.011 245.334 331.647 251.71 323.797 251.71Z" fill="#E6E6E6"/>
<path d="M215.423 167.095L325.985 195.609C329.18 196.429 332.569 195.946 335.41 194.266C338.25 192.585 340.309 189.845 341.134 186.645L364.304 96.4678C365.123 93.2665 364.641 89.8706 362.963 87.0251C361.286 84.1796 358.551 82.1169 355.357 81.2895L244.796 52.7758C241.6 51.9555 238.211 52.4387 235.371 54.1191C232.531 55.7995 230.472 58.5401 229.646 61.7395L206.476 151.917C205.658 155.118 206.14 158.514 207.817 161.36C209.494 164.205 212.23 166.268 215.423 167.095Z" fill="white"/>
<path d="M215.423 167.095L325.985 195.609C329.18 196.429 332.569 195.946 335.41 194.266C338.25 192.585 340.309 189.845 341.134 186.645L364.304 96.4678C365.123 93.2665 364.641 89.8706 362.963 87.0251C361.286 84.1796 358.551 82.1169 355.357 81.2895L244.796 52.7758C241.6 51.9555 238.211 52.4387 235.371 54.1191C232.531 55.7995 230.472 58.5401 229.646 61.7395L206.476 151.917C205.658 155.118 206.14 158.514 207.817 161.36C209.494 164.205 212.23 166.268 215.423 167.095ZM354.992 82.7096C357.81 83.4397 360.224 85.2597 361.703 87.7705C363.183 90.2812 363.609 93.2776 362.887 96.1022L339.717 186.28C338.988 189.103 337.172 191.521 334.666 193.003C332.16 194.486 329.169 194.913 326.35 194.189L215.788 165.675C212.97 164.945 210.557 163.125 209.077 160.614C207.597 158.104 207.171 155.107 207.894 152.283L231.063 62.105C231.792 59.2821 233.609 56.8639 236.115 55.3812C238.621 53.8984 241.611 53.4722 244.431 54.1959L354.992 82.7096Z" fill="#E6E6E6"/>
<path d="M250.405 83.0969L306.204 97.4874C306.692 97.6239 307.213 97.5697 307.662 97.3358C308.112 97.1019 308.456 96.7057 308.625 96.2274C308.704 95.9775 308.731 95.7142 308.705 95.4535C308.678 95.1928 308.599 94.9402 308.473 94.7111C308.346 94.482 308.174 94.2812 307.967 94.1209C307.76 93.9607 307.522 93.8443 307.269 93.779L250.469 79.1304C248.175 80.2951 248.779 82.6775 250.406 83.0971L250.405 83.0969Z" fill="#F2F2F2"/>
<path d="M247.885 92.9026L303.684 107.293C304.172 107.43 304.694 107.375 305.143 107.141C305.592 106.908 305.936 106.511 306.106 106.033C306.184 105.783 306.211 105.52 306.185 105.259C306.159 104.998 306.08 104.746 305.953 104.517C305.826 104.288 305.654 104.087 305.447 103.927C305.24 103.766 305.003 103.65 304.75 103.585L247.95 88.936C245.655 90.1008 246.259 92.4831 247.886 92.9028L247.885 92.9026Z" fill="#F2F2F2"/>
<path d="M314.312 115.987L331.341 120.379C331.898 120.522 332.488 120.438 332.982 120.145C333.476 119.853 333.835 119.376 333.978 118.819L339.151 98.6851C339.294 98.1279 339.21 97.5368 338.918 97.0415C338.626 96.5462 338.15 96.1872 337.594 96.0432L320.565 91.6514C320.009 91.5087 319.419 91.5929 318.924 91.8854C318.43 92.1778 318.072 92.6548 317.928 93.2116L312.755 113.345C312.612 113.903 312.696 114.494 312.988 114.989C313.28 115.484 313.756 115.843 314.312 115.987V115.987Z" fill="#E6E6E6"/>
<path d="M242.889 113.022L328.048 134.985C328.536 135.121 329.057 135.067 329.507 134.833C329.956 134.599 330.3 134.203 330.469 133.725C330.548 133.475 330.575 133.212 330.549 132.951C330.523 132.69 330.444 132.438 330.317 132.209C330.19 131.98 330.018 131.779 329.811 131.618C329.604 131.458 329.367 131.342 329.113 131.277L242.952 109.056C240.658 110.22 241.262 112.603 242.889 113.022L242.889 113.022Z" fill="#F2F2F2"/>
<path d="M240.369 122.831L325.528 144.794C326.016 144.93 326.537 144.876 326.987 144.642C327.436 144.408 327.78 144.012 327.949 143.534C328.028 143.284 328.055 143.02 328.029 142.76C328.003 142.499 327.924 142.246 327.797 142.017C327.67 141.788 327.498 141.587 327.291 141.427C327.084 141.267 326.847 141.15 326.593 141.085L240.432 118.864C238.138 120.029 238.742 122.411 240.369 122.831V122.831Z" fill="#F2F2F2"/>
<path d="M237.85 132.633L323.01 154.596C323.497 154.732 324.019 154.678 324.468 154.444C324.918 154.21 325.262 153.814 325.431 153.336C325.509 153.086 325.537 152.823 325.51 152.562C325.484 152.301 325.405 152.049 325.278 151.819C325.151 151.59 324.979 151.39 324.772 151.229C324.565 151.069 324.328 150.953 324.075 150.887L237.914 128.667C235.619 129.831 236.223 132.214 237.85 132.633V132.633Z" fill="#F2F2F2"/>
<path d="M235.33 142.441L320.489 164.404C320.977 164.54 321.499 164.486 321.948 164.252C322.398 164.018 322.742 163.622 322.911 163.144C322.989 162.894 323.017 162.631 322.99 162.37C322.964 162.109 322.885 161.857 322.758 161.628C322.631 161.398 322.459 161.198 322.252 161.037C322.045 160.877 321.808 160.761 321.555 160.695L235.394 138.475C233.099 139.639 233.703 142.022 235.33 142.441L235.33 142.441Z" fill="#F2F2F2"/>
<path d="M232.812 152.245L317.971 174.207C318.459 174.344 318.98 174.289 319.43 174.055C319.879 173.822 320.223 173.425 320.392 172.947C320.471 172.697 320.498 172.434 320.472 172.173C320.446 171.912 320.367 171.66 320.24 171.431C320.113 171.202 319.941 171.001 319.734 170.841C319.527 170.68 319.29 170.564 319.036 170.499L232.875 148.278C230.581 149.443 231.184 151.825 232.812 152.245V152.245Z" fill="#F2F2F2"/>
<path d="M322.748 242.461C323.057 242.542 323.384 242.519 323.68 242.397L323.698 242.389L327.571 240.745C327.75 240.668 327.913 240.557 328.05 240.418C328.187 240.279 328.295 240.114 328.368 239.932C328.442 239.751 328.478 239.557 328.477 239.362C328.475 239.166 328.435 238.973 328.358 238.793C328.282 238.613 328.171 238.45 328.031 238.313C327.892 238.176 327.727 238.068 327.546 237.995C327.365 237.922 327.172 237.886 326.976 237.888C326.781 237.89 326.588 237.93 326.409 238.007L323.9 239.076L320.612 231.327C320.535 231.147 320.425 230.984 320.286 230.848C320.146 230.711 319.982 230.603 319.801 230.53C319.62 230.457 319.427 230.42 319.232 230.422C319.037 230.424 318.845 230.464 318.665 230.54L318.665 230.541L318.685 230.591L318.664 230.54C318.302 230.695 318.016 230.987 317.869 231.353C317.722 231.719 317.726 232.128 317.879 232.491L321.748 241.602C321.837 241.813 321.974 241.999 322.147 242.148C322.321 242.296 322.526 242.403 322.747 242.459L322.748 242.461Z" fill="white"/>
<path d="M84.5456 340.705H273.358C279.761 340.697 285.9 338.146 290.427 333.61C294.955 329.074 297.502 322.924 297.509 316.509V94.3472C297.502 87.9323 294.955 81.7822 290.427 77.2462C285.9 72.7101 279.761 70.1586 273.358 70.1514H97.6989L60.3952 99.9408V316.509C60.4024 322.924 62.9491 329.074 67.4767 333.61C72.0042 338.146 78.1427 340.697 84.5456 340.705V340.705Z" fill="#E6E6E6"/>
<path d="M273.359 77.1167C277.918 77.1218 282.29 78.9388 285.514 82.169C288.738 85.3992 290.551 89.7789 290.557 94.3471V316.509C290.552 321.077 288.738 325.456 285.514 328.687C282.29 331.917 277.918 333.734 273.359 333.739H84.5458C79.9862 333.734 75.6148 331.917 72.3906 328.687C69.1665 325.456 67.3529 321.077 67.3478 316.509V103.296L100.131 77.1167H273.359Z" fill="white"/>
<path d="M121.27 141.716H207.234C208.3 141.716 209.323 141.291 210.077 140.536C210.832 139.78 211.255 138.755 211.255 137.686C211.255 136.618 210.832 135.593 210.077 134.837C209.323 134.082 208.3 133.657 207.234 133.657H121.27C120.203 133.657 119.18 134.082 118.426 134.837C117.672 135.593 117.248 136.618 117.248 137.686C117.248 138.755 117.672 139.78 118.426 140.536C119.18 141.291 120.203 141.716 121.27 141.716V141.716Z" fill="#735DFB"/>
<path d="M104.68 155.314H207.234C208.299 155.313 209.321 154.888 210.074 154.132C210.827 153.377 211.25 152.353 211.25 151.285C211.25 150.217 210.827 149.193 210.074 148.438C209.321 147.682 208.299 147.257 207.234 147.256H104.68C104.152 147.255 103.628 147.359 103.14 147.561C102.651 147.763 102.207 148.06 101.833 148.434C101.459 148.808 101.162 149.253 100.96 149.742C100.758 150.231 100.653 150.756 100.653 151.285C100.653 151.815 100.758 152.339 100.96 152.828C101.162 153.317 101.459 153.762 101.833 154.136C102.207 154.51 102.651 154.807 103.14 155.009C103.628 155.211 104.152 155.315 104.68 155.314V155.314Z" fill="#735DFB"/>
<path d="M121.27 194.597H207.231C208.297 194.597 209.32 195.022 210.074 195.777C210.828 196.533 211.252 197.558 211.252 198.626C211.252 199.695 210.828 200.719 210.074 201.475C209.32 202.231 208.297 202.655 207.231 202.655H121.27C120.203 202.655 119.18 202.231 118.426 201.475C117.672 200.719 117.248 199.695 117.248 198.626C117.248 197.558 117.672 196.533 118.426 195.777C119.18 195.022 120.203 194.597 121.27 194.597V194.597Z" fill="#CCCCCC"/>
<path d="M104.679 208.198H207.231C208.297 208.198 209.32 208.623 210.074 209.378C210.828 210.134 211.252 211.159 211.252 212.227C211.252 213.296 210.828 214.321 210.074 215.076C209.32 215.832 208.297 216.256 207.231 216.256H104.679C103.612 216.256 102.59 215.832 101.835 215.076C101.081 214.321 100.658 213.296 100.658 212.227C100.658 211.159 101.081 210.134 101.835 209.378C102.59 208.623 103.612 208.198 104.679 208.198Z" fill="#CCCCCC"/>
<path d="M121.27 263.6H207.234C208.3 263.6 209.323 263.176 210.077 262.42C210.832 261.665 211.255 260.64 211.255 259.571C211.255 258.503 210.832 257.478 210.077 256.722C209.323 255.967 208.3 255.542 207.234 255.542H121.27C120.203 255.542 119.18 255.967 118.426 256.722C117.672 257.478 117.248 258.503 117.248 259.571C117.248 260.64 117.672 261.665 118.426 262.42C119.18 263.176 120.203 263.6 121.27 263.6V263.6Z" fill="#CCCCCC"/>
<path d="M104.68 277.199H207.234C208.299 277.198 209.321 276.773 210.074 276.017C210.827 275.262 211.25 274.238 211.25 273.17C211.25 272.102 210.827 271.078 210.074 270.323C209.321 269.567 208.299 269.142 207.234 269.141H104.68C104.152 269.14 103.628 269.244 103.14 269.446C102.651 269.648 102.207 269.945 101.833 270.319C101.459 270.693 101.162 271.137 100.96 271.627C100.758 272.116 100.653 272.64 100.653 273.17C100.653 273.699 100.758 274.224 100.96 274.713C101.162 275.202 101.459 275.647 101.833 276.021C102.207 276.395 102.651 276.692 103.14 276.894C103.628 277.096 104.152 277.2 104.68 277.199Z" fill="#CCCCCC"/>
<path d="M243.031 158.727C235.181 158.727 228.817 152.351 228.817 144.486C228.817 136.621 235.181 130.245 243.031 130.245C250.882 130.245 257.246 136.621 257.246 144.486C257.246 152.351 250.882 158.727 243.031 158.727Z" fill="#735DFB"/>
<path d="M244.44 149.918C244.76 149.919 245.071 149.815 245.327 149.623L245.343 149.611L248.683 147.051C248.838 146.932 248.969 146.784 249.067 146.615C249.165 146.445 249.228 146.258 249.254 146.065C249.28 145.871 249.267 145.674 249.217 145.485C249.167 145.296 249.079 145.119 248.961 144.963C248.842 144.808 248.694 144.678 248.525 144.58C248.356 144.482 248.169 144.419 247.975 144.393C247.782 144.368 247.585 144.381 247.397 144.432C247.208 144.483 247.031 144.57 246.877 144.69L244.713 146.352L239.6 139.669C239.481 139.514 239.333 139.384 239.165 139.286C238.996 139.189 238.81 139.125 238.617 139.1C238.423 139.074 238.227 139.087 238.039 139.137C237.851 139.188 237.674 139.275 237.519 139.394L237.519 139.394L237.551 139.438L237.518 139.394C237.206 139.634 237.002 139.989 236.951 140.38C236.899 140.77 237.004 141.166 237.244 141.479L243.258 149.336C243.397 149.517 243.576 149.664 243.781 149.764C243.985 149.865 244.21 149.917 244.439 149.916L244.44 149.918Z" fill="white"/>
<path d="M227.355 205.427C227.355 207.297 227.722 209.149 228.436 210.878C229.15 212.606 230.196 214.176 231.516 215.499C232.836 216.822 234.403 217.872 236.127 218.588C237.852 219.304 239.701 219.673 241.568 219.673C241.69 219.675 241.812 219.67 241.933 219.658C244.728 219.586 247.44 218.69 249.729 217.082C252.018 215.474 253.783 213.225 254.803 210.617C255.823 208.009 256.053 205.157 255.463 202.419C254.873 199.681 253.491 197.178 251.489 195.223C249.486 193.268 246.953 191.949 244.205 191.429C241.458 190.91 238.619 191.213 236.043 192.303C233.467 193.392 231.269 195.218 229.724 197.552C228.178 199.886 227.355 202.625 227.355 205.427V205.427Z" fill="#CCCCCC"/>
<path d="M243.031 280.612C235.181 280.612 228.817 274.236 228.817 266.371C228.817 258.505 235.181 252.129 243.031 252.129C250.882 252.129 257.246 258.505 257.246 266.371C257.246 274.236 250.882 280.612 243.031 280.612Z" fill="#CCCCCC"/>
<path d="M61.1215 100.9H90.3428C92.4761 100.9 94.5219 100.051 96.0304 98.5392C97.5388 97.028 98.3862 94.9783 98.3862 92.841V71.218C98.3862 71.1233 98.3596 71.0306 98.3094 70.9504C98.2592 70.8702 98.1874 70.8058 98.1024 70.7646C98.0173 70.7234 97.9223 70.707 97.8284 70.7174C97.7345 70.7278 97.6454 70.7644 97.5714 70.8232L60.8093 100.001C60.7275 100.066 60.6679 100.155 60.6388 100.255C60.6096 100.356 60.6124 100.463 60.6467 100.561C60.681 100.66 60.7452 100.746 60.8302 100.806C60.9153 100.867 61.0171 100.9 61.1215 100.9Z" fill="#CCCCCC"/>
<path d="M227.356 205.427C227.355 207.297 227.722 209.149 228.436 210.878C229.15 212.606 230.197 214.176 231.516 215.499C232.836 216.822 234.403 217.872 236.128 218.588C237.852 219.304 239.701 219.673 241.568 219.673C241.69 219.675 241.812 219.67 241.934 219.658C243.77 215.069 244.478 210.105 243.998 205.185C243.518 200.264 241.864 195.531 239.175 191.386C235.868 191.954 232.869 193.674 230.706 196.244C228.543 198.813 227.356 202.066 227.356 205.427V205.427Z" fill="#735DFB"/>
<path d="M211.255 198.63C211.253 197.561 210.829 196.536 210.074 195.78C209.32 195.025 208.297 194.599 207.23 194.597H185.81C184.558 197.147 183.669 199.859 183.168 202.655H207.23C208.296 202.655 209.319 202.231 210.074 201.476C210.828 200.722 211.253 199.698 211.255 198.63V198.63Z" fill="#735DFB"/>
<path d="M182.67 208.198C182.669 210.92 183.028 213.629 183.739 216.256H207.231C208.297 216.256 209.32 215.832 210.074 215.076C210.828 214.321 211.252 213.296 211.252 212.227C211.252 211.159 210.828 210.134 210.074 209.378C209.32 208.623 208.297 208.198 207.231 208.198H182.67Z" fill="#735DFB"/>
<path d="M129.67 257.893C130.276 258.889 131.253 259.603 132.384 259.877C133.516 260.152 134.711 259.965 135.705 259.358L186.937 228.049C187.429 227.749 187.857 227.354 188.197 226.887C188.537 226.42 188.782 225.891 188.918 225.33C189.053 224.768 189.077 224.185 188.988 223.615C188.899 223.044 188.699 222.496 188.399 222.003C188.098 221.51 187.704 221.081 187.238 220.74C186.773 220.4 186.244 220.154 185.684 220.018C185.123 219.882 184.542 219.858 183.972 219.947C183.402 220.036 182.856 220.237 182.363 220.538L131.132 251.846C130.137 252.454 129.425 253.432 129.151 254.566C128.876 255.7 129.063 256.897 129.67 257.893V257.893Z" fill="#3F3D56"/>
<path d="M180.901 226.585C184.519 232.528 189.815 237.262 196.118 240.189C202.421 243.116 209.45 244.105 216.314 243.03C223.178 241.956 229.571 238.866 234.682 234.151C239.794 229.437 243.395 223.31 245.031 216.545C246.667 209.78 246.264 202.681 243.872 196.145C241.481 189.61 237.209 183.932 231.597 179.829C225.985 175.726 219.284 173.382 212.342 173.095C205.401 172.807 198.53 174.588 192.598 178.213C184.653 183.081 178.959 190.907 176.766 199.976C174.573 209.044 176.06 218.614 180.901 226.585ZM233.383 194.513C236.096 198.97 237.429 204.133 237.214 209.349C236.999 214.565 235.244 219.6 232.173 223.817C229.101 228.034 224.851 231.244 219.958 233.041C215.066 234.838 209.752 235.141 204.687 233.912C199.623 232.683 195.036 229.976 191.507 226.136C187.978 222.295 185.665 217.492 184.861 212.334C184.056 207.176 184.796 201.895 186.988 197.158C189.179 192.422 192.723 188.443 197.171 185.724C203.139 182.087 210.302 180.969 217.091 182.617C223.88 184.265 229.739 188.543 233.383 194.513V194.513Z" fill="#3F3D56"/>
<path d="M68.3521 213.901C58.4251 213.901 50.3776 205.838 50.3776 195.893C50.3776 185.947 58.4251 177.884 68.3521 177.884C78.2792 177.884 86.3267 185.947 86.3267 195.893C86.3267 205.838 78.2792 213.901 68.3521 213.901Z" fill="#A0616A"/>
<path d="M69.5138 296.849C69.8604 295.767 69.9749 294.623 69.8498 293.494C69.7247 292.364 69.3627 291.274 68.7877 290.294C68.2126 289.315 67.4374 288.468 66.5129 287.809C65.5885 287.151 64.5355 286.695 63.4231 286.473C63.0706 286.404 62.7138 286.36 62.3552 286.341L43.4215 255.896L60.7164 239.423C61.3772 238.794 61.9071 238.039 62.2753 237.204C62.6436 236.368 62.8429 235.468 62.8618 234.554C62.8808 233.641 62.7189 232.733 62.3856 231.883C62.0523 231.033 61.5542 230.257 60.92 229.601C60.2858 228.944 59.5281 228.42 58.6907 228.059C57.8533 227.698 56.9527 227.506 56.041 227.496C55.1293 227.485 54.2245 227.655 53.3789 227.997C52.5333 228.339 51.7636 228.845 51.1143 229.486L27.2351 253.076L27.187 253.135C26.4484 254.261 26.0918 255.596 26.1702 256.941C26.2485 258.286 26.7577 259.57 27.6221 260.602L54.151 292.037C54.0718 292.289 54.0059 292.545 53.9534 292.804C53.7316 293.919 53.7473 295.068 53.9996 296.176C54.2518 297.284 54.735 298.326 55.4173 299.234C56.0996 300.142 56.9657 300.895 57.9589 301.444C58.952 301.994 60.0498 302.326 61.1803 302.421C61.4088 302.441 61.6362 302.451 61.8624 302.451C63.5643 302.444 65.2203 301.898 66.5943 300.892C67.9684 299.886 68.9901 298.471 69.5138 296.849V296.849Z" fill="#A0616A"/>
<path d="M97.956 446.524L106.928 446.523L111.196 411.851L97.9545 411.852L97.956 446.524Z" fill="#A0616A"/>
<path d="M95.668 455.237L124.598 455.236V454.869C124.598 453.388 124.306 451.921 123.741 450.552C123.175 449.183 122.345 447.94 121.3 446.892C120.254 445.844 119.013 445.014 117.646 444.447C116.28 443.88 114.816 443.588 113.337 443.588H113.337L95.6674 443.589L95.668 455.237Z" fill="#2F2E41"/>
<path d="M8.77757 434.095L16.4867 438.694L37.8599 411.092L26.4821 404.304L8.77757 434.095Z" fill="#A0616A"/>
<path d="M2.36229 440.409L27.2196 455.237L27.4068 454.922C28.1634 453.649 28.6623 452.239 28.875 450.773C29.0878 449.307 29.0102 447.813 28.6467 446.377C28.2833 444.941 27.6411 443.591 26.7567 442.404C25.8724 441.216 24.7633 440.215 23.4927 439.457L23.4921 439.457L8.31013 430.4L2.36229 440.409Z" fill="#2F2E41"/>
<path d="M112.328 431.254C118.338 360.349 121.914 294.478 99.9422 267.607L99.7723 267.399L62.796 282.218L62.7351 282.35C62.6104 282.622 50.3131 309.723 53.1816 327.951L44.0611 369.985L14.3225 419.873C14.0831 420.275 13.9317 420.723 13.8782 421.187C13.8247 421.652 13.8705 422.123 14.0124 422.568C14.1543 423.014 14.3891 423.424 14.7013 423.772C15.0135 424.12 15.396 424.397 15.8233 424.586L28.7468 430.283C29.4761 430.6 30.2954 430.645 31.0545 430.407C31.8136 430.169 32.4619 429.665 32.8806 428.988L65.2305 376.138L83.5028 335.602C83.6021 335.382 83.7709 335.201 83.9831 335.087C84.1954 334.972 84.4393 334.931 84.6773 334.969C84.9153 335.008 85.1341 335.123 85.2999 335.298C85.4658 335.474 85.5694 335.699 85.595 335.939L95.7237 431.326C95.8083 432.137 96.19 432.887 96.7948 433.433C97.3997 433.978 98.1848 434.279 98.9983 434.277H109.045C109.869 434.272 110.662 433.96 111.269 433.401C111.876 432.842 112.254 432.077 112.328 431.254V431.254Z" fill="#2F2E41"/>
<path d="M99.8179 268.169L99.9941 268.085L100.022 267.891C101.403 258.205 99.7679 247.443 95.1623 235.905C92.8922 230.257 88.6727 225.615 83.2724 222.823C77.8722 220.032 71.6506 219.277 65.7413 220.696V220.696C62.3373 221.536 59.1447 223.075 56.3656 225.216C53.5865 227.358 51.2815 230.054 49.5967 233.134C47.9334 236.182 46.9203 239.544 46.6214 243.005C46.3224 246.466 46.7443 249.952 47.8602 253.242C53.6664 270.252 61.1984 286.168 61.2738 286.327L61.4316 286.659L99.8179 268.169Z" fill="#735DFB"/>
<path d="M140.161 244.045C139.271 243.34 138.242 242.833 137.142 242.554C136.042 242.276 134.896 242.234 133.779 242.431C132.661 242.627 131.598 243.058 130.659 243.695C129.719 244.332 128.925 245.161 128.327 246.127C128.139 246.433 127.973 246.753 127.83 247.083L92.7358 254.189L83.3916 232.19C83.0346 231.35 82.5149 230.588 81.8626 229.95C81.2103 229.312 80.4382 228.81 79.5909 228.472C78.7437 228.134 77.8381 227.968 76.9265 227.983C76.0148 227.998 75.1152 228.194 74.2795 228.56C73.4438 228.925 72.6886 229.452 72.0576 230.112C71.4266 230.771 70.9322 231.549 70.603 232.401C70.2737 233.253 70.1162 234.162 70.1395 235.075C70.1628 235.988 70.3665 236.888 70.7387 237.721L84.4313 268.392L84.4694 268.457C85.2635 269.545 86.3864 270.347 87.6715 270.744C88.9566 271.142 90.3353 271.114 91.6032 270.664L130.282 256.777C130.49 256.939 130.707 257.091 130.93 257.231C131.895 257.829 132.974 258.217 134.099 258.368C135.223 258.519 136.366 258.431 137.454 258.109C138.542 257.786 139.55 257.237 140.411 256.498C141.272 255.758 141.968 254.844 142.452 253.816C142.551 253.609 142.64 253.399 142.719 253.187C143.308 251.587 143.378 249.842 142.919 248.2C142.46 246.559 141.494 245.104 140.161 244.045V244.045Z" fill="#A0616A"/>
<path d="M3.41766 215.178C5.14897 212.105 7.67144 209.289 11.0061 208.153C15.3128 206.686 19.9761 208.248 24.4039 209.291C27.8154 210.095 31.3795 210.587 34.8182 209.909C38.2565 209.231 41.5733 207.226 43.1378 204.084C45.4394 199.462 43.5005 193.951 43.6406 188.787C43.7125 185.977 44.4204 183.219 45.7108 180.722C47.0012 178.226 48.8405 176.055 51.09 174.374C53.3395 172.693 55.9405 171.546 58.697 171.018C61.4535 170.491 64.2936 170.597 67.0031 171.329C71.2429 170.104 75.0818 169.99 77.7044 173.256C81.004 173.256 84.1684 174.569 86.5015 176.906C88.8347 179.244 90.1455 182.414 90.1455 185.72H78.2493C78.8133 188.759 78.1687 191.899 76.4533 194.468C74.3532 197.559 70.7016 199.795 69.9987 203.467C69.3172 207.026 71.7318 210.403 74.2646 212.989C76.7971 215.576 79.7351 218.139 80.5259 221.675C81.0104 224.359 80.4602 227.128 78.9865 229.421C77.5153 231.687 75.6902 233.701 73.581 235.386C64.078 243.543 52.7838 249.332 40.621 252.28C32.0556 254.346 22.6869 254.881 14.7353 251.081C11.5545 249.56 8.71965 247.401 6.40699 244.736C4.09432 242.072 2.35323 238.96 1.29184 235.592C0.230454 232.225 -0.128547 228.676 0.237155 225.164C0.602857 221.652 1.68544 218.253 3.41766 215.178V215.178Z" fill="#2F2E41"/>
<path d="M0.731745 456H139.78C139.974 456 140.16 455.923 140.297 455.785C140.435 455.648 140.512 455.461 140.512 455.267C140.512 455.072 140.435 454.886 140.297 454.748C140.16 454.611 139.974 454.534 139.78 454.534H0.731745C0.537651 454.534 0.351517 454.611 0.214272 454.748C0.0770264 454.886 -8.7738e-05 455.072 -8.7738e-05 455.267C-8.7738e-05 455.461 0.0770264 455.648 0.214272 455.785C0.351517 455.923 0.537651 456 0.731745 456Z" fill="#CCCCCC"/>
</g>
<defs>
<clipPath id="clip0_63_1255">
<rect width="423" height="456" fill="white" transform="matrix(-1 0 0 1 423 0)"/>
</clipPath>
</defs>
</svg>
