<svg width="1257" height="1092" viewBox="0 0 1257 1092" fill="none" xmlns="http://www.w3.org/2000/svg">
<path d="M61.7958 898.652H76.3558C80.3424 898.652 83.5318 899.709 85.9238 901.824C88.3505 903.939 89.5638 906.833 89.5638 910.508C89.5638 914.321 88.3678 917.233 85.9758 919.244C83.5838 921.22 80.3598 922.208 76.3038 922.208H68.3998V935H61.7958V898.652ZM75.5238 916.748C80.4811 916.748 82.9598 914.668 82.9598 910.508C82.9598 906.244 80.4811 904.112 75.5238 904.112H68.3998V916.748H75.5238ZM93.7372 896.572H100.289V935H93.7372V896.572ZM120.574 935.78C115.929 935.78 112.254 934.619 109.55 932.296C106.846 929.973 105.494 926.732 105.494 922.572C105.494 918.481 106.69 915.24 109.082 912.848C111.474 910.456 114.889 909.26 119.326 909.26C122.238 909.26 124.717 909.815 126.762 910.924C128.842 912.033 130.402 913.559 131.442 915.5C132.482 917.407 133.002 919.591 133.002 922.052V925.068H111.734C112.185 928.777 115.409 930.632 121.406 930.632C123.001 930.632 124.63 930.493 126.294 930.216C127.958 929.939 129.414 929.557 130.662 929.072V934.116C129.483 934.601 127.958 935 126.086 935.312C124.249 935.624 122.411 935.78 120.574 935.78ZM126.814 920.596C126.745 918.62 126.034 917.095 124.682 916.02C123.365 914.945 121.545 914.408 119.222 914.408C116.934 914.408 115.131 914.963 113.814 916.072C112.497 917.181 111.803 918.689 111.734 920.596H126.814ZM147.374 935.78C144.392 935.78 141.948 935 140.042 933.44C138.135 931.845 137.182 929.713 137.182 927.044C137.182 924.271 138.083 922.104 139.886 920.544C141.688 918.984 144.219 918.204 147.478 918.204C150.632 918.204 153.354 918.845 155.642 920.128V919.452C155.642 917.684 155.087 916.401 153.978 915.604C152.903 914.807 151.152 914.408 148.726 914.408C147.2 914.408 145.692 914.564 144.202 914.876C142.711 915.153 141.394 915.552 140.25 916.072V910.924C141.29 910.439 142.676 910.04 144.41 909.728C146.178 909.416 147.876 909.26 149.506 909.26C153.839 909.26 157.046 910.196 159.126 912.068C161.206 913.905 162.246 916.471 162.246 919.764V935H156.058V932.556C154.983 933.596 153.752 934.393 152.366 934.948C151.014 935.503 149.35 935.78 147.374 935.78ZM148.986 930.996C150.442 930.996 151.759 930.719 152.938 930.164C154.116 929.575 155.018 928.777 155.642 927.772V925.016C153.735 923.664 151.551 922.988 149.09 922.988C145.588 922.988 143.838 924.34 143.838 927.044C143.838 928.361 144.271 929.349 145.138 930.008C146.039 930.667 147.322 930.996 148.986 930.996ZM177.196 935.78C175.393 935.78 173.469 935.572 171.424 935.156C169.378 934.74 167.784 934.168 166.64 933.44V927.876C167.992 928.708 169.604 929.384 171.476 929.904C173.348 930.389 175.116 930.632 176.78 930.632C178.444 930.632 179.657 930.493 180.42 930.216C181.182 929.904 181.564 929.349 181.564 928.552C181.564 927.928 181.356 927.425 180.94 927.044C180.558 926.628 179.917 926.264 179.016 925.952C178.149 925.605 176.797 925.189 174.96 924.704C172.88 924.115 171.233 923.508 170.02 922.884C168.841 922.26 167.94 921.48 167.316 920.544C166.726 919.573 166.432 918.325 166.432 916.8C166.432 914.304 167.42 912.432 169.396 911.184C171.372 909.901 174.041 909.26 177.404 909.26C179.137 909.26 180.853 909.433 182.552 909.78C184.285 910.092 185.637 910.543 186.608 911.132V916.488C185.568 915.864 184.302 915.361 182.812 914.98C181.321 914.599 179.796 914.408 178.236 914.408C176.537 914.408 175.254 914.581 174.388 914.928C173.521 915.24 173.088 915.864 173.088 916.8C173.088 917.424 173.313 917.927 173.764 918.308C174.249 918.655 174.873 918.967 175.636 919.244C176.398 919.487 177.785 919.868 179.796 920.388C181.945 920.977 183.626 921.619 184.84 922.312C186.053 923.005 186.92 923.837 187.44 924.808C187.96 925.779 188.22 926.992 188.22 928.448C188.22 930.667 187.266 932.452 185.36 933.804C183.488 935.121 180.766 935.78 177.196 935.78ZM207.461 935.78C202.815 935.78 199.141 934.619 196.437 932.296C193.733 929.973 192.381 926.732 192.381 922.572C192.381 918.481 193.577 915.24 195.969 912.848C198.361 910.456 201.775 909.26 206.213 909.26C209.125 909.26 211.603 909.815 213.649 910.924C215.729 912.033 217.289 913.559 218.329 915.5C219.369 917.407 219.889 919.591 219.889 922.052V925.068H198.621C199.071 928.777 202.295 930.632 208.293 930.632C209.887 930.632 211.517 930.493 213.181 930.216C214.845 929.939 216.301 929.557 217.549 929.072V934.116C216.37 934.601 214.845 935 212.973 935.312C211.135 935.624 209.298 935.78 207.461 935.78ZM213.701 920.596C213.631 918.62 212.921 917.095 211.569 916.02C210.251 914.945 208.431 914.408 206.109 914.408C203.821 914.408 202.018 914.963 200.701 916.072C199.383 917.181 198.69 918.689 198.621 920.596H213.701ZM253.623 935.78C250.26 935.78 247.747 934.879 246.083 933.076C244.419 931.239 243.587 928.812 243.587 925.796V910.04H250.139V925.172C250.139 928.812 251.837 930.632 255.235 930.632C256.725 930.632 258.129 930.285 259.447 929.592C260.764 928.864 261.873 927.789 262.775 926.368V910.04H269.327V935H262.983V931.62C261.804 933.041 260.4 934.099 258.771 934.792C257.141 935.451 255.425 935.78 253.623 935.78ZM275.585 910.04H281.929V913.056C283.281 911.773 284.754 910.82 286.349 910.196C287.944 909.572 289.764 909.26 291.809 909.26C294.34 909.26 296.593 909.815 298.569 910.924C300.58 911.999 302.14 913.541 303.249 915.552C304.393 917.528 304.965 919.833 304.965 922.468C304.965 925.068 304.393 927.373 303.249 929.384C302.14 931.395 300.58 932.972 298.569 934.116C296.593 935.225 294.34 935.78 291.809 935.78C289.902 935.78 288.1 935.52 286.401 935C284.737 934.445 283.316 933.631 282.137 932.556V946.388H275.585V910.04ZM290.197 930.632C292.554 930.632 294.496 929.869 296.021 928.344C297.546 926.819 298.309 924.86 298.309 922.468C298.309 920.076 297.546 918.135 296.021 916.644C294.496 915.153 292.554 914.408 290.197 914.408C288.325 914.408 286.661 914.911 285.205 915.916C283.749 916.921 282.726 918.273 282.137 919.972V925.016C282.692 926.715 283.697 928.084 285.153 929.124C286.644 930.129 288.325 930.632 290.197 930.632ZM310.167 896.572H316.719V935H310.167V896.572ZM336.536 935.78C333.624 935.78 331.058 935.26 328.84 934.22C326.656 933.145 324.957 931.62 323.744 929.644C322.53 927.633 321.924 925.259 321.924 922.52C321.924 919.851 322.513 917.528 323.692 915.552C324.905 913.541 326.621 911.999 328.84 910.924C331.058 909.815 333.624 909.26 336.536 909.26C339.448 909.26 341.996 909.815 344.18 910.924C346.398 911.999 348.114 913.541 349.328 915.552C350.541 917.528 351.148 919.851 351.148 922.52C351.148 925.259 350.541 927.633 349.328 929.644C348.114 931.62 346.398 933.145 344.18 934.22C341.996 935.26 339.448 935.78 336.536 935.78ZM336.536 930.632C338.928 930.632 340.834 929.887 342.256 928.396C343.677 926.871 344.388 924.912 344.388 922.52C344.388 919.989 343.677 918.013 342.256 916.592C340.869 915.136 338.962 914.408 336.536 914.408C334.109 914.408 332.185 915.136 330.764 916.592C329.377 918.013 328.684 919.989 328.684 922.52C328.684 924.912 329.394 926.871 330.816 928.396C332.237 929.887 334.144 930.632 336.536 930.632ZM364.159 935.78C361.177 935.78 358.733 935 356.827 933.44C354.92 931.845 353.967 929.713 353.967 927.044C353.967 924.271 354.868 922.104 356.671 920.544C358.473 918.984 361.004 918.204 364.263 918.204C367.417 918.204 370.139 918.845 372.427 920.128V919.452C372.427 917.684 371.872 916.401 370.763 915.604C369.688 914.807 367.937 914.408 365.511 914.408C363.985 914.408 362.477 914.564 360.987 914.876C359.496 915.153 358.179 915.552 357.035 916.072V910.924C358.075 910.439 359.461 910.04 361.195 909.728C362.963 909.416 364.661 909.26 366.291 909.26C370.624 909.26 373.831 910.196 375.911 912.068C377.991 913.905 379.031 916.471 379.031 919.764V935H372.843V932.556C371.768 933.596 370.537 934.393 369.151 934.948C367.799 935.503 366.135 935.78 364.159 935.78ZM365.771 930.996C367.227 930.996 368.544 930.719 369.723 930.164C370.901 929.575 371.803 928.777 372.427 927.772V925.016C370.52 923.664 368.336 922.988 365.875 922.988C362.373 922.988 360.623 924.34 360.623 927.044C360.623 928.361 361.056 929.349 361.923 930.008C362.824 930.667 364.107 930.996 365.771 930.996ZM397.134 935.78C394.604 935.78 392.333 935.243 390.322 934.168C388.346 933.059 386.786 931.516 385.642 929.54C384.533 927.529 383.978 925.207 383.978 922.572C383.978 919.972 384.533 917.667 385.642 915.656C386.786 913.645 388.346 912.085 390.322 910.976C392.333 909.832 394.604 909.26 397.134 909.26C401.225 909.26 404.449 910.335 406.806 912.484V896.572H413.358V935H407.014V932.088C405.593 933.405 404.12 934.359 402.594 934.948C401.069 935.503 399.249 935.78 397.134 935.78ZM398.746 930.632C400.618 930.632 402.282 930.129 403.738 929.124C405.194 928.119 406.217 926.767 406.806 925.068V920.024C406.252 918.325 405.229 916.973 403.738 915.968C402.282 914.928 400.618 914.408 398.746 914.408C396.389 914.408 394.448 915.171 392.922 916.696C391.397 918.221 390.634 920.18 390.634 922.572C390.634 924.964 391.397 926.905 392.922 928.396C394.448 929.887 396.389 930.632 398.746 930.632ZM450.455 935.78C447.924 935.78 445.653 935.243 443.643 934.168C441.667 933.059 440.107 931.516 438.963 929.54C437.853 927.529 437.299 925.207 437.299 922.572C437.299 919.972 437.853 917.667 438.963 915.656C440.107 913.645 441.667 912.085 443.643 910.976C445.653 909.832 447.924 909.26 450.455 909.26C454.545 909.26 457.769 910.335 460.127 912.484V896.572H466.679V935H460.335V932.088C458.913 933.405 457.44 934.359 455.915 934.948C454.389 935.503 452.569 935.78 450.455 935.78ZM452.067 930.632C453.939 930.632 455.603 930.129 457.059 929.124C458.515 928.119 459.537 926.767 460.127 925.068V920.024C459.572 918.325 458.549 916.973 457.059 915.968C455.603 914.928 453.939 914.408 452.067 914.408C449.709 914.408 447.768 915.171 446.243 916.696C444.717 918.221 443.955 920.18 443.955 922.572C443.955 924.964 444.717 926.905 446.243 928.396C447.768 929.887 449.709 930.632 452.067 930.632ZM481.311 935.78C478.33 935.78 475.886 935 473.979 933.44C472.072 931.845 471.119 929.713 471.119 927.044C471.119 924.271 472.02 922.104 473.823 920.544C475.626 918.984 478.156 918.204 481.415 918.204C484.57 918.204 487.291 918.845 489.579 920.128V919.452C489.579 917.684 489.024 916.401 487.915 915.604C486.84 914.807 485.09 914.408 482.663 914.408C481.138 914.408 479.63 914.564 478.139 914.876C476.648 915.153 475.331 915.552 474.187 916.072V910.924C475.227 910.439 476.614 910.04 478.347 909.728C480.115 909.416 481.814 909.26 483.443 909.26C487.776 909.26 490.983 910.196 493.063 912.068C495.143 913.905 496.183 916.471 496.183 919.764V935H489.995V932.556C488.92 933.596 487.69 934.393 486.303 934.948C484.951 935.503 483.287 935.78 481.311 935.78ZM482.923 930.996C484.379 930.996 485.696 930.719 486.875 930.164C488.054 929.575 488.955 928.777 489.579 927.772V925.016C487.672 923.664 485.488 922.988 483.027 922.988C479.526 922.988 477.775 924.34 477.775 927.044C477.775 928.361 478.208 929.349 479.075 930.008C479.976 930.667 481.259 930.996 482.923 930.996ZM510.886 935.78C508.148 935.78 506.068 935.017 504.646 933.492C503.225 931.967 502.514 929.817 502.514 927.044V915.032H498.77V910.04H502.514V902.552H509.066V910.04H515.046V915.032H509.066V926.212C509.066 927.807 509.361 928.951 509.95 929.644C510.54 930.303 511.614 930.632 513.174 930.632C514.249 930.632 515.306 930.389 516.346 929.904V934.896C514.856 935.485 513.036 935.78 510.886 935.78ZM529.401 935.78C526.42 935.78 523.976 935 522.069 933.44C520.162 931.845 519.209 929.713 519.209 927.044C519.209 924.271 520.11 922.104 521.913 920.544C523.716 918.984 526.246 918.204 529.505 918.204C532.66 918.204 535.381 918.845 537.669 920.128V919.452C537.669 917.684 537.114 916.401 536.005 915.604C534.93 914.807 533.18 914.408 530.753 914.408C529.228 914.408 527.72 914.564 526.229 914.876C524.738 915.153 523.421 915.552 522.277 916.072V910.924C523.317 910.439 524.704 910.04 526.437 909.728C528.205 909.416 529.904 909.26 531.533 909.26C535.866 909.26 539.073 910.196 541.153 912.068C543.233 913.905 544.273 916.471 544.273 919.764V935H538.085V932.556C537.01 933.596 535.78 934.393 534.393 934.948C533.041 935.503 531.377 935.78 529.401 935.78ZM531.013 930.996C532.469 930.996 533.786 930.719 534.965 930.164C536.144 929.575 537.045 928.777 537.669 927.772V925.016C535.762 923.664 533.578 922.988 531.117 922.988C527.616 922.988 525.865 924.34 525.865 927.044C525.865 928.361 526.298 929.349 527.165 930.008C528.066 930.667 529.349 930.996 531.013 930.996ZM572.691 905.672C571.651 905.672 570.767 905.325 570.039 904.632C569.346 903.939 568.999 903.072 568.999 902.032C568.999 900.992 569.346 900.125 570.039 899.432C570.767 898.704 571.651 898.34 572.691 898.34C573.731 898.34 574.615 898.704 575.343 899.432C576.071 900.125 576.435 900.992 576.435 902.032C576.435 903.072 576.071 903.939 575.343 904.632C574.615 905.325 573.731 905.672 572.691 905.672ZM569.363 910.04H576.019V935H569.363V910.04ZM582.659 910.04H589.003V913.42C590.182 911.999 591.586 910.959 593.215 910.3C594.844 909.607 596.56 909.26 598.363 909.26C601.726 909.26 604.239 910.179 605.903 912.016C607.567 913.819 608.399 916.228 608.399 919.244V935H601.847V919.868C601.847 916.228 600.148 914.408 596.751 914.408C595.26 914.408 593.856 914.772 592.539 915.5C591.222 916.193 590.112 917.251 589.211 918.672V935H582.659V910.04ZM632.096 898.652H637.036V908.688H632.096V898.652ZM641.144 898.652H646.084V908.688H641.144V898.652ZM666.553 935.78C661.422 935.78 657.539 934.445 654.905 931.776C652.305 929.072 651.005 925.432 651.005 920.856V898.652H657.609V920.96C657.609 923.837 658.406 926.039 660.001 927.564C661.63 929.055 663.814 929.8 666.553 929.8C669.257 929.8 671.406 929.055 673.001 927.564C674.63 926.039 675.445 923.837 675.445 920.96V898.652H682.049V920.856C682.049 925.432 680.749 929.072 678.149 931.776C675.549 934.445 671.683 935.78 666.553 935.78ZM688.03 910.04H694.374V913.056C695.726 911.773 697.199 910.82 698.794 910.196C700.389 909.572 702.209 909.26 704.254 909.26C706.785 909.26 709.038 909.815 711.014 910.924C713.025 911.999 714.585 913.541 715.694 915.552C716.838 917.528 717.41 919.833 717.41 922.468C717.41 925.068 716.838 927.373 715.694 929.384C714.585 931.395 713.025 932.972 711.014 934.116C709.038 935.225 706.785 935.78 704.254 935.78C702.347 935.78 700.545 935.52 698.846 935C697.182 934.445 695.761 933.631 694.582 932.556V946.388H688.03V910.04ZM702.642 930.632C704.999 930.632 706.941 929.869 708.466 928.344C709.991 926.819 710.754 924.86 710.754 922.468C710.754 920.076 709.991 918.135 708.466 916.644C706.941 915.153 704.999 914.408 702.642 914.408C700.77 914.408 699.106 914.911 697.65 915.916C696.194 916.921 695.171 918.273 694.582 919.972V925.016C695.137 926.715 696.142 928.084 697.598 929.124C699.089 930.129 700.77 930.632 702.642 930.632ZM722.612 896.572H729.164V935H722.612V896.572ZM748.981 935.78C746.069 935.78 743.504 935.26 741.285 934.22C739.101 933.145 737.402 931.62 736.189 929.644C734.976 927.633 734.369 925.259 734.369 922.52C734.369 919.851 734.958 917.528 736.137 915.552C737.35 913.541 739.066 911.999 741.285 910.924C743.504 909.815 746.069 909.26 748.981 909.26C751.893 909.26 754.441 909.815 756.625 910.924C758.844 911.999 760.56 913.541 761.773 915.552C762.986 917.528 763.593 919.851 763.593 922.52C763.593 925.259 762.986 927.633 761.773 929.644C760.56 931.62 758.844 933.145 756.625 934.22C754.441 935.26 751.893 935.78 748.981 935.78ZM748.981 930.632C751.373 930.632 753.28 929.887 754.701 928.396C756.122 926.871 756.833 924.912 756.833 922.52C756.833 919.989 756.122 918.013 754.701 916.592C753.314 915.136 751.408 914.408 748.981 914.408C746.554 914.408 744.63 915.136 743.209 916.592C741.822 918.013 741.129 919.989 741.129 922.52C741.129 924.912 741.84 926.871 743.261 928.396C744.682 929.887 746.589 930.632 748.981 930.632ZM776.604 935.78C773.623 935.78 771.179 935 769.272 933.44C767.365 931.845 766.412 929.713 766.412 927.044C766.412 924.271 767.313 922.104 769.116 920.544C770.919 918.984 773.449 918.204 776.708 918.204C779.863 918.204 782.584 918.845 784.872 920.128V919.452C784.872 917.684 784.317 916.401 783.208 915.604C782.133 914.807 780.383 914.408 777.956 914.408C776.431 914.408 774.923 914.564 773.432 914.876C771.941 915.153 770.624 915.552 769.48 916.072V910.924C770.52 910.439 771.907 910.04 773.64 909.728C775.408 909.416 777.107 909.26 778.736 909.26C783.069 909.26 786.276 910.196 788.356 912.068C790.436 913.905 791.476 916.471 791.476 919.764V935H785.288V932.556C784.213 933.596 782.983 934.393 781.596 934.948C780.244 935.503 778.58 935.78 776.604 935.78ZM778.216 930.996C779.672 930.996 780.989 930.719 782.168 930.164C783.347 929.575 784.248 928.777 784.872 927.772V925.016C782.965 923.664 780.781 922.988 778.32 922.988C774.819 922.988 773.068 924.34 773.068 927.044C773.068 928.361 773.501 929.349 774.368 930.008C775.269 930.667 776.552 930.996 778.216 930.996ZM809.58 935.78C807.049 935.78 804.778 935.243 802.768 934.168C800.792 933.059 799.232 931.516 798.088 929.54C796.978 927.529 796.424 925.207 796.424 922.572C796.424 919.972 796.978 917.667 798.088 915.656C799.232 913.645 800.792 912.085 802.768 910.976C804.778 909.832 807.049 909.26 809.58 909.26C813.67 909.26 816.894 910.335 819.252 912.484V896.572H825.804V935H819.46V932.088C818.038 933.405 816.565 934.359 815.04 934.948C813.514 935.503 811.694 935.78 809.58 935.78ZM811.192 930.632C813.064 930.632 814.728 930.129 816.184 929.124C817.64 928.119 818.662 926.767 819.252 925.068V920.024C818.697 918.325 817.674 916.973 816.184 915.968C814.728 914.928 813.064 914.408 811.192 914.408C808.834 914.408 806.893 915.171 805.368 916.696C803.842 918.221 803.08 920.18 803.08 922.572C803.08 924.964 803.842 926.905 805.368 928.396C806.893 929.887 808.834 930.632 811.192 930.632ZM850.784 898.652H862.952C866.904 898.652 870.336 899.38 873.248 900.836C876.16 902.292 878.396 904.372 879.956 907.076C881.516 909.78 882.296 912.969 882.296 916.644C882.296 922.676 880.545 927.252 877.044 930.372C873.543 933.457 868.655 935 862.38 935H850.784V898.652ZM862.484 929.54C866.713 929.54 869.955 928.413 872.208 926.16C874.496 923.872 875.64 920.7 875.64 916.644C875.64 914.183 875.137 912.016 874.132 910.144C873.127 908.237 871.688 906.764 869.816 905.724C867.944 904.649 865.725 904.112 863.16 904.112H857.388V929.54H862.484ZM895.077 935.78C892.095 935.78 889.651 935 887.745 933.44C885.838 931.845 884.885 929.713 884.885 927.044C884.885 924.271 885.786 922.104 887.589 920.544C889.391 918.984 891.922 918.204 895.181 918.204C898.335 918.204 901.057 918.845 903.345 920.128V919.452C903.345 917.684 902.79 916.401 901.681 915.604C900.606 914.807 898.855 914.408 896.429 914.408C894.903 914.408 893.395 914.564 891.905 914.876C890.414 915.153 889.097 915.552 887.953 916.072V910.924C888.993 910.439 890.379 910.04 892.113 909.728C893.881 909.416 895.579 909.26 897.209 909.26C901.542 909.26 904.749 910.196 906.829 912.068C908.909 913.905 909.949 916.471 909.949 919.764V935H903.761V932.556C902.686 933.596 901.455 934.393 900.069 934.948C898.717 935.503 897.053 935.78 895.077 935.78ZM896.689 930.996C898.145 930.996 899.462 930.719 900.641 930.164C901.819 929.575 902.721 928.777 903.345 927.772V925.016C901.438 923.664 899.254 922.988 896.793 922.988C893.291 922.988 891.541 924.34 891.541 927.044C891.541 928.361 891.974 929.349 892.841 930.008C893.742 930.667 895.025 930.996 896.689 930.996ZM924.652 935.78C921.913 935.78 919.833 935.017 918.412 933.492C916.991 931.967 916.28 929.817 916.28 927.044V915.032H912.536V910.04H916.28V902.552H922.832V910.04H928.812V915.032H922.832V926.212C922.832 927.807 923.127 928.951 923.716 929.644C924.305 930.303 925.38 930.632 926.94 930.632C928.015 930.632 929.072 930.389 930.112 929.904V934.896C928.621 935.485 926.801 935.78 924.652 935.78ZM943.167 935.78C940.185 935.78 937.741 935 935.835 933.44C933.928 931.845 932.975 929.713 932.975 927.044C932.975 924.271 933.876 922.104 935.679 920.544C937.481 918.984 940.012 918.204 943.271 918.204C946.425 918.204 949.147 918.845 951.435 920.128V919.452C951.435 917.684 950.88 916.401 949.771 915.604C948.696 914.807 946.945 914.408 944.519 914.408C942.993 914.408 941.485 914.564 939.995 914.876C938.504 915.153 937.187 915.552 936.043 916.072V910.924C937.083 910.439 938.469 910.04 940.203 909.728C941.971 909.416 943.669 909.26 945.299 909.26C949.632 909.26 952.839 910.196 954.919 912.068C956.999 913.905 958.039 916.471 958.039 919.764V935H951.851V932.556C950.776 933.596 949.545 934.393 948.159 934.948C946.807 935.503 945.143 935.78 943.167 935.78ZM944.779 930.996C946.235 930.996 947.552 930.719 948.731 930.164C949.909 929.575 950.811 928.777 951.435 927.772V925.016C949.528 923.664 947.344 922.988 944.883 922.988C941.381 922.988 939.631 924.34 939.631 927.044C939.631 928.361 940.064 929.349 940.931 930.008C941.832 930.667 943.115 930.996 944.779 930.996ZM962.986 898.652H967.926V908.688H962.986V898.652ZM972.034 898.652H976.974V908.688H972.034V898.652ZM1000.89 910.04H1007.24V913.056C1008.59 911.773 1010.06 910.82 1011.66 910.196C1013.25 909.572 1015.07 909.26 1017.12 909.26C1019.65 909.26 1021.9 909.815 1023.88 910.924C1025.89 911.999 1027.45 913.541 1028.56 915.552C1029.7 917.528 1030.27 919.833 1030.27 922.468C1030.27 925.068 1029.7 927.373 1028.56 929.384C1027.45 931.395 1025.89 932.972 1023.88 934.116C1021.9 935.225 1019.65 935.78 1017.12 935.78C1015.21 935.78 1013.41 935.52 1011.71 935C1010.05 934.445 1008.62 933.631 1007.45 932.556V946.388H1000.89V910.04ZM1015.51 930.632C1017.86 930.632 1019.8 929.869 1021.33 928.344C1022.85 926.819 1023.62 924.86 1023.62 922.468C1023.62 920.076 1022.85 918.135 1021.33 916.644C1019.8 915.153 1017.86 914.408 1015.51 914.408C1013.63 914.408 1011.97 914.911 1010.51 915.916C1009.06 916.921 1008.03 918.273 1007.45 919.972V925.016C1008 926.715 1009.01 928.084 1010.46 929.124C1011.95 930.129 1013.63 930.632 1015.51 930.632ZM1043.31 935.78C1040.33 935.78 1037.88 935 1035.98 933.44C1034.07 931.845 1033.12 929.713 1033.12 927.044C1033.12 924.271 1034.02 922.104 1035.82 920.544C1037.62 918.984 1040.15 918.204 1043.41 918.204C1046.57 918.204 1049.29 918.845 1051.58 920.128V919.452C1051.58 917.684 1051.02 916.401 1049.91 915.604C1048.84 914.807 1047.09 914.408 1044.66 914.408C1043.13 914.408 1041.63 914.564 1040.14 914.876C1038.64 915.153 1037.33 915.552 1036.18 916.072V910.924C1037.22 910.439 1038.61 910.04 1040.34 909.728C1042.11 909.416 1043.81 909.26 1045.44 909.26C1049.77 909.26 1052.98 910.196 1055.06 912.068C1057.14 913.905 1058.18 916.471 1058.18 919.764V935H1051.99V932.556C1050.92 933.596 1049.69 934.393 1048.3 934.948C1046.95 935.503 1045.28 935.78 1043.31 935.78ZM1044.92 930.996C1046.38 930.996 1047.69 930.719 1048.87 930.164C1050.05 929.575 1050.95 928.777 1051.58 927.772V925.016C1049.67 923.664 1047.48 922.988 1045.02 922.988C1041.52 922.988 1039.77 924.34 1039.77 927.044C1039.77 928.361 1040.2 929.349 1041.07 930.008C1041.97 930.667 1043.26 930.996 1044.92 930.996ZM1077.37 946.96C1075.71 946.96 1074.05 946.804 1072.38 946.492C1070.72 946.18 1069.33 945.764 1068.22 945.244V940.044C1070.93 941.223 1073.98 941.812 1077.37 941.812C1080.43 941.812 1082.61 941.171 1083.93 939.888C1085.28 938.605 1085.95 936.699 1085.95 934.168V932.556C1084.78 933.631 1083.37 934.445 1081.74 935C1080.11 935.52 1078.36 935.78 1076.49 935.78C1073.96 935.78 1071.67 935.225 1069.63 934.116C1067.58 932.972 1065.99 931.395 1064.84 929.384C1063.7 927.373 1063.13 925.068 1063.13 922.468C1063.13 919.833 1063.68 917.528 1064.79 915.552C1065.93 913.541 1067.49 911.999 1069.47 910.924C1071.48 909.815 1073.75 909.26 1076.28 909.26C1078.4 909.26 1080.22 909.555 1081.74 910.144C1083.27 910.699 1084.74 911.635 1086.16 912.952V910.04H1092.51V933.492C1092.51 937.791 1091.26 941.101 1088.76 943.424C1086.3 945.781 1082.51 946.96 1077.37 946.96ZM1077.89 930.632C1079.77 930.632 1081.43 930.129 1082.89 929.124C1084.38 928.084 1085.4 926.715 1085.95 925.016V919.972C1085.37 918.273 1084.34 916.921 1082.89 915.916C1081.43 914.911 1079.77 914.408 1077.89 914.408C1075.54 914.408 1073.6 915.153 1072.07 916.644C1070.55 918.135 1069.78 920.076 1069.78 922.468C1069.78 924.86 1070.55 926.819 1072.07 928.344C1073.6 929.869 1075.54 930.632 1077.89 930.632ZM1112.79 935.78C1108.14 935.78 1104.47 934.619 1101.76 932.296C1099.06 929.973 1097.71 926.732 1097.71 922.572C1097.71 918.481 1098.9 915.24 1101.3 912.848C1103.69 910.456 1107.1 909.26 1111.54 909.26C1114.45 909.26 1116.93 909.815 1118.98 910.924C1121.06 912.033 1122.62 913.559 1123.66 915.5C1124.7 917.407 1125.22 919.591 1125.22 922.052V925.068H1103.95C1104.4 928.777 1107.62 930.632 1113.62 930.632C1115.22 930.632 1116.84 930.493 1118.51 930.216C1120.17 929.939 1121.63 929.557 1122.88 929.072V934.116C1121.7 934.601 1120.17 935 1118.3 935.312C1116.46 935.624 1114.63 935.78 1112.79 935.78ZM1119.03 920.596C1118.96 918.62 1118.25 917.095 1116.9 916.02C1115.58 914.945 1113.76 914.408 1111.44 914.408C1109.15 914.408 1107.35 914.963 1106.03 916.072C1104.71 917.181 1104.02 918.689 1103.95 920.596H1119.03ZM1159.21 935.78C1156.47 935.78 1154.39 935.017 1152.97 933.492C1151.55 931.967 1150.84 929.817 1150.84 927.044V915.032H1147.09V910.04H1150.84V902.552H1157.39V910.04H1163.37V915.032H1157.39V926.212C1157.39 927.807 1157.69 928.951 1158.27 929.644C1158.86 930.303 1159.94 930.632 1161.5 930.632C1162.57 930.632 1163.63 930.389 1164.67 929.904V934.896C1163.18 935.485 1161.36 935.78 1159.21 935.78ZM1182.65 935.78C1179.74 935.78 1177.18 935.26 1174.96 934.22C1172.77 933.145 1171.07 931.62 1169.86 929.644C1168.65 927.633 1168.04 925.259 1168.04 922.52C1168.04 919.851 1168.63 917.528 1169.81 915.552C1171.02 913.541 1172.74 911.999 1174.96 910.924C1177.18 909.815 1179.74 909.26 1182.65 909.26C1185.56 909.26 1188.11 909.815 1190.3 910.924C1192.52 911.999 1194.23 913.541 1195.44 915.552C1196.66 917.528 1197.26 919.851 1197.26 922.52C1197.26 925.259 1196.66 927.633 1195.44 929.644C1194.23 931.62 1192.52 933.145 1190.3 934.22C1188.11 935.26 1185.56 935.78 1182.65 935.78ZM1182.65 930.632C1185.04 930.632 1186.95 929.887 1188.37 928.396C1189.79 926.871 1190.5 924.912 1190.5 922.52C1190.5 919.989 1189.79 918.013 1188.37 916.592C1186.99 915.136 1185.08 914.408 1182.65 914.408C1180.23 914.408 1178.3 915.136 1176.88 916.592C1175.49 918.013 1174.8 919.989 1174.8 922.52C1174.8 924.912 1175.51 926.871 1176.93 928.396C1178.35 929.887 1180.26 930.632 1182.65 930.632ZM184.716 1014.78C182.186 1014.78 179.915 1014.24 177.904 1013.17C175.928 1012.06 174.368 1010.52 173.224 1008.54C172.115 1006.53 171.56 1004.21 171.56 1001.57C171.56 998.972 172.115 996.667 173.224 994.656C174.368 992.645 175.928 991.085 177.904 989.976C179.915 988.832 182.186 988.26 184.716 988.26C188.807 988.26 192.031 989.335 194.388 991.484V975.572H200.94V1014H194.596V1011.09C193.175 1012.41 191.702 1013.36 190.176 1013.95C188.651 1014.5 186.831 1014.78 184.716 1014.78ZM186.328 1009.63C188.2 1009.63 189.864 1009.13 191.32 1008.12C192.776 1007.12 193.799 1005.77 194.388 1004.07V999.024C193.834 997.325 192.811 995.973 191.32 994.968C189.864 993.928 188.2 993.408 186.328 993.408C183.971 993.408 182.03 994.171 180.504 995.696C178.979 997.221 178.216 999.18 178.216 1001.57C178.216 1003.96 178.979 1005.91 180.504 1007.4C182.03 1008.89 183.971 1009.63 186.328 1009.63ZM210.875 984.672C209.835 984.672 208.951 984.325 208.223 983.632C207.529 982.939 207.183 982.072 207.183 981.032C207.183 979.992 207.529 979.125 208.223 978.432C208.951 977.704 209.835 977.34 210.875 977.34C211.915 977.34 212.799 977.704 213.527 978.432C214.255 979.125 214.619 979.992 214.619 981.032C214.619 982.072 214.255 982.939 213.527 983.632C212.799 984.325 211.915 984.672 210.875 984.672ZM207.547 989.04H214.203V1014H207.547V989.04ZM230.567 1014.78C228.764 1014.78 226.84 1014.57 224.795 1014.16C222.749 1013.74 221.155 1013.17 220.011 1012.44V1006.88C221.363 1007.71 222.975 1008.38 224.847 1008.9C226.719 1009.39 228.487 1009.63 230.151 1009.63C231.815 1009.63 233.028 1009.49 233.791 1009.22C234.553 1008.9 234.935 1008.35 234.935 1007.55C234.935 1006.93 234.727 1006.43 234.311 1006.04C233.929 1005.63 233.288 1005.26 232.387 1004.95C231.52 1004.61 230.168 1004.19 228.331 1003.7C226.251 1003.11 224.604 1002.51 223.391 1001.88C222.212 1001.26 221.311 1000.48 220.687 999.544C220.097 998.573 219.803 997.325 219.803 995.8C219.803 993.304 220.791 991.432 222.767 990.184C224.743 988.901 227.412 988.26 230.775 988.26C232.508 988.26 234.224 988.433 235.923 988.78C237.656 989.092 239.008 989.543 239.979 990.132V995.488C238.939 994.864 237.673 994.361 236.183 993.98C234.692 993.599 233.167 993.408 231.607 993.408C229.908 993.408 228.625 993.581 227.759 993.928C226.892 994.24 226.459 994.864 226.459 995.8C226.459 996.424 226.684 996.927 227.135 997.308C227.62 997.655 228.244 997.967 229.007 998.244C229.769 998.487 231.156 998.868 233.167 999.388C235.316 999.977 236.997 1000.62 238.211 1001.31C239.424 1002.01 240.291 1002.84 240.811 1003.81C241.331 1004.78 241.591 1005.99 241.591 1007.45C241.591 1009.67 240.637 1011.45 238.731 1012.8C236.859 1014.12 234.137 1014.78 230.567 1014.78ZM246.792 989.04H253.136V992.056C254.488 990.773 255.961 989.82 257.556 989.196C259.151 988.572 260.971 988.26 263.016 988.26C265.547 988.26 267.8 988.815 269.776 989.924C271.787 990.999 273.347 992.541 274.456 994.552C275.6 996.528 276.172 998.833 276.172 1001.47C276.172 1004.07 275.6 1006.37 274.456 1008.38C273.347 1010.39 271.787 1011.97 269.776 1013.12C267.8 1014.23 265.547 1014.78 263.016 1014.78C261.109 1014.78 259.307 1014.52 257.608 1014C255.944 1013.45 254.523 1012.63 253.344 1011.56V1025.39H246.792V989.04ZM261.404 1009.63C263.761 1009.63 265.703 1008.87 267.228 1007.34C268.753 1005.82 269.516 1003.86 269.516 1001.47C269.516 999.076 268.753 997.135 267.228 995.644C265.703 994.153 263.761 993.408 261.404 993.408C259.532 993.408 257.868 993.911 256.412 994.916C254.956 995.921 253.933 997.273 253.344 998.972V1004.02C253.899 1005.71 254.904 1007.08 256.36 1008.12C257.851 1009.13 259.532 1009.63 261.404 1009.63ZM281.374 975.572H287.926V1014H281.374V975.572ZM303.323 1014.78C300.341 1014.78 297.897 1014 295.991 1012.44C294.084 1010.85 293.131 1008.71 293.131 1006.04C293.131 1003.27 294.032 1001.1 295.835 999.544C297.637 997.984 300.168 997.204 303.427 997.204C306.581 997.204 309.303 997.845 311.591 999.128V998.452C311.591 996.684 311.036 995.401 309.927 994.604C308.852 993.807 307.101 993.408 304.675 993.408C303.149 993.408 301.641 993.564 300.151 993.876C298.66 994.153 297.343 994.552 296.199 995.072V989.924C297.239 989.439 298.625 989.04 300.359 988.728C302.127 988.416 303.825 988.26 305.455 988.26C309.788 988.26 312.995 989.196 315.075 991.068C317.155 992.905 318.195 995.471 318.195 998.764V1014H312.007V1011.56C310.932 1012.6 309.701 1013.39 308.315 1013.95C306.963 1014.5 305.299 1014.78 303.323 1014.78ZM304.935 1010C306.391 1010 307.708 1009.72 308.887 1009.16C310.065 1008.57 310.967 1007.78 311.591 1006.77V1004.02C309.684 1002.66 307.5 1001.99 305.039 1001.99C301.537 1001.99 299.787 1003.34 299.787 1006.04C299.787 1007.36 300.22 1008.35 301.087 1009.01C301.988 1009.67 303.271 1010 304.935 1010ZM327.827 1024.3C326.925 1024.3 325.972 1024.23 324.967 1024.09C323.996 1023.98 323.233 1023.83 322.679 1023.62V1018.63C323.545 1018.97 324.62 1019.15 325.903 1019.15C327.22 1019.15 328.208 1018.85 328.867 1018.26C329.525 1017.67 330.097 1016.74 330.583 1015.46L331.571 1012.86L320.807 989.04H327.411L335.107 1007.24L342.335 989.04H348.887L337.967 1016.24C336.857 1018.97 335.505 1021 333.911 1022.32C332.351 1023.64 330.323 1024.3 327.827 1024.3ZM380.917 1014.78C377.935 1014.78 375.491 1014 373.585 1012.44C371.678 1010.85 370.725 1008.71 370.725 1006.04C370.725 1003.27 371.626 1001.1 373.429 999.544C375.231 997.984 377.762 997.204 381.021 997.204C384.175 997.204 386.897 997.845 389.185 999.128V998.452C389.185 996.684 388.63 995.401 387.521 994.604C386.446 993.807 384.695 993.408 382.269 993.408C380.743 993.408 379.235 993.564 377.745 993.876C376.254 994.153 374.937 994.552 373.793 995.072V989.924C374.833 989.439 376.219 989.04 377.953 988.728C379.721 988.416 381.419 988.26 383.049 988.26C387.382 988.26 390.589 989.196 392.669 991.068C394.749 992.905 395.789 995.471 395.789 998.764V1014H389.601V1011.56C388.526 1012.6 387.295 1013.39 385.909 1013.95C384.557 1014.5 382.893 1014.78 380.917 1014.78ZM382.529 1010C383.985 1010 385.302 1009.72 386.481 1009.16C387.659 1008.57 388.561 1007.78 389.185 1006.77V1004.02C387.278 1002.66 385.094 1001.99 382.633 1001.99C379.131 1001.99 377.381 1003.34 377.381 1006.04C377.381 1007.36 377.814 1008.35 378.681 1009.01C379.582 1009.67 380.865 1010 382.529 1010ZM410.739 1014.78C408.936 1014.78 407.012 1014.57 404.967 1014.16C402.921 1013.74 401.327 1013.17 400.183 1012.44V1006.88C401.535 1007.71 403.147 1008.38 405.019 1008.9C406.891 1009.39 408.659 1009.63 410.323 1009.63C411.987 1009.63 413.2 1009.49 413.963 1009.22C414.725 1008.9 415.107 1008.35 415.107 1007.55C415.107 1006.93 414.899 1006.43 414.483 1006.04C414.101 1005.63 413.46 1005.26 412.559 1004.95C411.692 1004.61 410.34 1004.19 408.503 1003.7C406.423 1003.11 404.776 1002.51 403.563 1001.88C402.384 1001.26 401.483 1000.48 400.859 999.544C400.269 998.573 399.975 997.325 399.975 995.8C399.975 993.304 400.963 991.432 402.939 990.184C404.915 988.901 407.584 988.26 410.947 988.26C412.68 988.26 414.396 988.433 416.095 988.78C417.828 989.092 419.18 989.543 420.151 990.132V995.488C419.111 994.864 417.845 994.361 416.355 993.98C414.864 993.599 413.339 993.408 411.779 993.408C410.08 993.408 408.797 993.581 407.931 993.928C407.064 994.24 406.631 994.864 406.631 995.8C406.631 996.424 406.856 996.927 407.307 997.308C407.792 997.655 408.416 997.967 409.179 998.244C409.941 998.487 411.328 998.868 413.339 999.388C415.488 999.977 417.169 1000.62 418.383 1001.31C419.596 1002.01 420.463 1002.84 420.983 1003.81C421.503 1004.78 421.763 1005.99 421.763 1007.45C421.763 1009.67 420.809 1011.45 418.903 1012.8C417.031 1014.12 414.309 1014.78 410.739 1014.78ZM435.367 1014.78C433.565 1014.78 431.641 1014.57 429.595 1014.16C427.55 1013.74 425.955 1013.17 424.811 1012.44V1006.88C426.163 1007.71 427.775 1008.38 429.647 1008.9C431.519 1009.39 433.287 1009.63 434.951 1009.63C436.615 1009.63 437.829 1009.49 438.591 1009.22C439.354 1008.9 439.735 1008.35 439.735 1007.55C439.735 1006.93 439.527 1006.43 439.111 1006.04C438.73 1005.63 438.089 1005.26 437.187 1004.95C436.321 1004.61 434.969 1004.19 433.131 1003.7C431.051 1003.11 429.405 1002.51 428.191 1001.88C427.013 1001.26 426.111 1000.48 425.487 999.544C424.898 998.573 424.603 997.325 424.603 995.8C424.603 993.304 425.591 991.432 427.567 990.184C429.543 988.901 432.213 988.26 435.575 988.26C437.309 988.26 439.025 988.433 440.723 988.78C442.457 989.092 443.809 989.543 444.779 990.132V995.488C443.739 994.864 442.474 994.361 440.983 993.98C439.493 993.599 437.967 993.408 436.407 993.408C434.709 993.408 433.426 993.581 432.559 993.928C431.693 994.24 431.259 994.864 431.259 995.8C431.259 996.424 431.485 996.927 431.935 997.308C432.421 997.655 433.045 997.967 433.807 998.244C434.57 998.487 435.957 998.868 437.967 999.388C440.117 999.977 441.798 1000.62 443.011 1001.31C444.225 1002.01 445.091 1002.84 445.611 1003.81C446.131 1004.78 446.391 1005.99 446.391 1007.45C446.391 1009.67 445.438 1011.45 443.531 1012.8C441.659 1014.12 438.938 1014.78 435.367 1014.78ZM464.403 1014.78C461.491 1014.78 458.926 1014.26 456.707 1013.22C454.523 1012.15 452.824 1010.62 451.611 1008.64C450.398 1006.63 449.791 1004.26 449.791 1001.52C449.791 998.851 450.38 996.528 451.559 994.552C452.772 992.541 454.488 990.999 456.707 989.924C458.926 988.815 461.491 988.26 464.403 988.26C467.315 988.26 469.863 988.815 472.047 989.924C474.266 990.999 475.982 992.541 477.195 994.552C478.408 996.528 479.015 998.851 479.015 1001.52C479.015 1004.26 478.408 1006.63 477.195 1008.64C475.982 1010.62 474.266 1012.15 472.047 1013.22C469.863 1014.26 467.315 1014.78 464.403 1014.78ZM464.403 1009.63C466.795 1009.63 468.702 1008.89 470.123 1007.4C471.544 1005.87 472.255 1003.91 472.255 1001.52C472.255 998.989 471.544 997.013 470.123 995.592C468.736 994.136 466.83 993.408 464.403 993.408C461.976 993.408 460.052 994.136 458.631 995.592C457.244 997.013 456.551 998.989 456.551 1001.52C456.551 1003.91 457.262 1005.87 458.683 1007.4C460.104 1008.89 462.011 1009.63 464.403 1009.63ZM497.005 1014.78C494.093 1014.78 491.527 1014.26 489.309 1013.22C487.125 1012.18 485.426 1010.67 484.213 1008.7C482.999 1006.72 482.393 1004.35 482.393 1001.57C482.393 998.799 482.999 996.424 484.213 994.448C485.461 992.437 487.177 990.912 489.361 989.872C491.579 988.797 494.162 988.26 497.109 988.26C500.991 988.26 504.094 989.023 506.417 990.548V995.8C504.163 994.205 501.286 993.408 497.785 993.408C495.115 993.408 492.983 994.084 491.389 995.436C489.829 996.753 489.049 998.799 489.049 1001.57C489.049 1004.31 489.829 1006.34 491.389 1007.66C492.983 1008.97 495.081 1009.63 497.681 1009.63C501.182 1009.63 504.198 1008.8 506.729 1007.14V1012.34C505.481 1013.17 504.059 1013.77 502.465 1014.16C500.905 1014.57 499.085 1014.78 497.005 1014.78ZM515.613 984.672C514.573 984.672 513.689 984.325 512.961 983.632C512.267 982.939 511.921 982.072 511.921 981.032C511.921 979.992 512.267 979.125 512.961 978.432C513.689 977.704 514.573 977.34 515.613 977.34C516.653 977.34 517.537 977.704 518.265 978.432C518.993 979.125 519.357 979.992 519.357 981.032C519.357 982.072 518.993 982.939 518.265 983.632C517.537 984.325 516.653 984.672 515.613 984.672ZM512.285 989.04H518.941V1014H512.285V989.04ZM534.733 1014.78C531.752 1014.78 529.308 1014 527.401 1012.44C525.494 1010.85 524.541 1008.71 524.541 1006.04C524.541 1003.27 525.442 1001.1 527.245 999.544C529.048 997.984 531.578 997.204 534.837 997.204C537.992 997.204 540.713 997.845 543.001 999.128V998.452C543.001 996.684 542.446 995.401 541.337 994.604C540.262 993.807 538.512 993.408 536.085 993.408C534.56 993.408 533.052 993.564 531.561 993.876C530.07 994.153 528.753 994.552 527.609 995.072V989.924C528.649 989.439 530.036 989.04 531.769 988.728C533.537 988.416 535.236 988.26 536.865 988.26C541.198 988.26 544.405 989.196 546.485 991.068C548.565 992.905 549.605 995.471 549.605 998.764V1014H543.417V1011.56C542.342 1012.6 541.112 1013.39 539.725 1013.95C538.373 1014.5 536.709 1014.78 534.733 1014.78ZM536.345 1010C537.801 1010 539.118 1009.72 540.297 1009.16C541.476 1008.57 542.377 1007.78 543.001 1006.77V1004.02C541.094 1002.66 538.91 1001.99 536.449 1001.99C532.948 1001.99 531.197 1003.34 531.197 1006.04C531.197 1007.36 531.63 1008.35 532.497 1009.01C533.398 1009.67 534.681 1010 536.345 1010ZM564.308 1014.78C561.57 1014.78 559.49 1014.02 558.068 1012.49C556.647 1010.97 555.936 1008.82 555.936 1006.04V994.032H552.192V989.04H555.936V981.552H562.488V989.04H568.468V994.032H562.488V1005.21C562.488 1006.81 562.783 1007.95 563.372 1008.64C563.962 1009.3 565.036 1009.63 566.596 1009.63C567.671 1009.63 568.728 1009.39 569.768 1008.9V1013.9C568.278 1014.49 566.458 1014.78 564.308 1014.78ZM578.125 984.672C577.085 984.672 576.201 984.325 575.473 983.632C574.779 982.939 574.433 982.072 574.433 981.032C574.433 979.992 574.779 979.125 575.473 978.432C576.201 977.704 577.085 977.34 578.125 977.34C579.165 977.34 580.049 977.704 580.777 978.432C581.505 979.125 581.869 979.992 581.869 981.032C581.869 982.072 581.505 982.939 580.777 983.632C580.049 984.325 579.165 984.672 578.125 984.672ZM574.797 989.04H581.453V1014H574.797V989.04ZM601.665 1014.78C598.753 1014.78 596.187 1014.26 593.969 1013.22C591.785 1012.15 590.086 1010.62 588.873 1008.64C587.659 1006.63 587.053 1004.26 587.053 1001.52C587.053 998.851 587.642 996.528 588.821 994.552C590.034 992.541 591.75 990.999 593.969 989.924C596.187 988.815 598.753 988.26 601.665 988.26C604.577 988.26 607.125 988.815 609.309 989.924C611.527 990.999 613.243 992.541 614.457 994.552C615.67 996.528 616.277 998.851 616.277 1001.52C616.277 1004.26 615.67 1006.63 614.457 1008.64C613.243 1010.62 611.527 1012.15 609.309 1013.22C607.125 1014.26 604.577 1014.78 601.665 1014.78ZM601.665 1009.63C604.057 1009.63 605.963 1008.89 607.385 1007.4C608.806 1005.87 609.517 1003.91 609.517 1001.52C609.517 998.989 608.806 997.013 607.385 995.592C605.998 994.136 604.091 993.408 601.665 993.408C599.238 993.408 597.314 994.136 595.893 995.592C594.506 997.013 593.813 998.989 593.813 1001.52C593.813 1003.91 594.523 1005.87 595.945 1007.4C597.366 1008.89 599.273 1009.63 601.665 1009.63ZM621.456 989.04H627.8V992.42C628.979 990.999 630.383 989.959 632.012 989.3C633.641 988.607 635.357 988.26 637.16 988.26C640.523 988.26 643.036 989.179 644.7 991.016C646.364 992.819 647.196 995.228 647.196 998.244V1014H640.644V998.868C640.644 995.228 638.945 993.408 635.548 993.408C634.057 993.408 632.653 993.772 631.336 994.5C630.019 995.193 628.909 996.251 628.008 997.672V1014H621.456V989.04ZM670.893 989.04H677.445L682.54 1005.94L687.533 989.04H693.253L698.245 1005.94L703.341 989.04H709.893L701.729 1014H695.697L690.393 997.048L685.089 1014H679.057L670.893 989.04ZM718.789 984.672C717.749 984.672 716.865 984.325 716.137 983.632C715.443 982.939 715.097 982.072 715.097 981.032C715.097 979.992 715.443 979.125 716.137 978.432C716.865 977.704 717.749 977.34 718.789 977.34C719.829 977.34 720.713 977.704 721.441 978.432C722.169 979.125 722.533 979.992 722.533 981.032C722.533 982.072 722.169 982.939 721.441 983.632C720.713 984.325 719.829 984.672 718.789 984.672ZM715.461 989.04H722.117V1014H715.461V989.04ZM738.793 1014.78C736.054 1014.78 733.974 1014.02 732.553 1012.49C731.131 1010.97 730.421 1008.82 730.421 1006.04V994.032H726.677V989.04H730.421V981.552H736.973V989.04H742.953V994.032H736.973V1005.21C736.973 1006.81 737.267 1007.95 737.857 1008.64C738.446 1009.3 739.521 1009.63 741.081 1009.63C742.155 1009.63 743.213 1009.39 744.253 1008.9V1013.9C742.762 1014.49 740.942 1014.78 738.793 1014.78ZM748.917 975.572H755.469V992.212C757.826 989.577 760.877 988.26 764.621 988.26C767.984 988.26 770.497 989.179 772.161 991.016C773.825 992.819 774.657 995.228 774.657 998.244V1014H768.105V998.868C768.105 995.228 766.406 993.408 763.009 993.408C761.518 993.408 760.114 993.772 758.797 994.5C757.48 995.193 756.37 996.251 755.469 997.672V1014H748.917V975.572ZM799.393 989.04H805.737V993.044C806.743 991.692 808.164 990.687 810.001 990.028C811.873 989.369 814.005 989.04 816.397 989.04V994.032C813.867 994.032 811.665 994.431 809.793 995.228C807.956 995.991 806.673 997.204 805.945 998.868V1014H799.393V989.04ZM824.261 984.672C823.221 984.672 822.337 984.325 821.609 983.632C820.916 982.939 820.569 982.072 820.569 981.032C820.569 979.992 820.916 979.125 821.609 978.432C822.337 977.704 823.221 977.34 824.261 977.34C825.301 977.34 826.185 977.704 826.913 978.432C827.641 979.125 828.005 979.992 828.005 981.032C828.005 982.072 827.641 982.939 826.913 983.632C826.185 984.325 825.301 984.672 824.261 984.672ZM820.933 989.04H827.589V1014H820.933V989.04ZM843.953 1014.78C842.151 1014.78 840.227 1014.57 838.181 1014.16C836.136 1013.74 834.541 1013.17 833.397 1012.44V1006.88C834.749 1007.71 836.361 1008.38 838.233 1008.9C840.105 1009.39 841.873 1009.63 843.537 1009.63C845.201 1009.63 846.415 1009.49 847.177 1009.22C847.94 1008.9 848.321 1008.35 848.321 1007.55C848.321 1006.93 848.113 1006.43 847.697 1006.04C847.316 1005.63 846.675 1005.26 845.773 1004.95C844.907 1004.61 843.555 1004.19 841.717 1003.7C839.637 1003.11 837.991 1002.51 836.777 1001.88C835.599 1001.26 834.697 1000.48 834.073 999.544C833.484 998.573 833.189 997.325 833.189 995.8C833.189 993.304 834.177 991.432 836.153 990.184C838.129 988.901 840.799 988.26 844.161 988.26C845.895 988.26 847.611 988.433 849.309 988.78C851.043 989.092 852.395 989.543 853.365 990.132V995.488C852.325 994.864 851.06 994.361 849.569 993.98C848.079 993.599 846.553 993.408 844.993 993.408C843.295 993.408 842.012 993.581 841.145 993.928C840.279 994.24 839.845 994.864 839.845 995.8C839.845 996.424 840.071 996.927 840.521 997.308C841.007 997.655 841.631 997.967 842.393 998.244C843.156 998.487 844.543 998.868 846.553 999.388C848.703 999.977 850.384 1000.62 851.597 1001.31C852.811 1002.01 853.677 1002.84 854.197 1003.81C854.717 1004.78 854.977 1005.99 854.977 1007.45C854.977 1009.67 854.024 1011.45 852.117 1012.8C850.245 1014.12 847.524 1014.78 843.953 1014.78ZM860.179 975.572H866.731V1000.01L876.663 989.04H884.359L873.231 1001.26L885.607 1014H877.911L866.731 1002.46V1014H860.179V975.572ZM911.15 994.032H907.458V989.04H911.15V984.724C911.15 981.673 912.051 979.351 913.854 977.756C915.657 976.127 918.031 975.312 920.978 975.312C922.642 975.312 924.098 975.555 925.346 976.04V981.344C924.41 980.928 923.387 980.72 922.278 980.72C920.718 980.72 919.557 981.067 918.794 981.76C918.066 982.453 917.702 983.597 917.702 985.192V989.04H923.786V994.032H917.702V1014H911.15V994.032ZM934.229 1014.78C931.248 1014.78 928.804 1014 926.897 1012.44C924.99 1010.85 924.037 1008.71 924.037 1006.04C924.037 1003.27 924.938 1001.1 926.741 999.544C928.544 997.984 931.074 997.204 934.333 997.204C937.488 997.204 940.209 997.845 942.497 999.128V998.452C942.497 996.684 941.942 995.401 940.833 994.604C939.758 993.807 938.008 993.408 935.581 993.408C934.056 993.408 932.548 993.564 931.057 993.876C929.566 994.153 928.249 994.552 927.105 995.072V989.924C928.145 989.439 929.532 989.04 931.265 988.728C933.033 988.416 934.732 988.26 936.361 988.26C940.694 988.26 943.901 989.196 945.981 991.068C948.061 992.905 949.101 995.471 949.101 998.764V1014H942.913V1011.56C941.838 1012.6 940.608 1013.39 939.221 1013.95C937.869 1014.5 936.205 1014.78 934.229 1014.78ZM935.841 1010C937.297 1010 938.614 1009.72 939.793 1009.16C940.972 1008.57 941.873 1007.78 942.497 1006.77V1004.02C940.59 1002.66 938.406 1001.99 935.945 1001.99C932.444 1001.99 930.693 1003.34 930.693 1006.04C930.693 1007.36 931.126 1008.35 931.993 1009.01C932.894 1009.67 934.177 1010 935.841 1010ZM967.645 1014.78C964.733 1014.78 962.168 1014.26 959.949 1013.22C957.765 1012.18 956.066 1010.67 954.853 1008.7C953.64 1006.72 953.033 1004.35 953.033 1001.57C953.033 998.799 953.64 996.424 954.853 994.448C956.101 992.437 957.817 990.912 960.001 989.872C962.22 988.797 964.802 988.26 967.749 988.26C971.632 988.26 974.734 989.023 977.057 990.548V995.8C974.804 994.205 971.926 993.408 968.425 993.408C965.756 993.408 963.624 994.084 962.029 995.436C960.469 996.753 959.689 998.799 959.689 1001.57C959.689 1004.31 960.469 1006.34 962.029 1007.66C963.624 1008.97 965.721 1009.63 968.321 1009.63C971.822 1009.63 974.838 1008.8 977.369 1007.14V1012.34C976.121 1013.17 974.7 1013.77 973.105 1014.16C971.545 1014.57 969.725 1014.78 967.645 1014.78ZM992.597 1014.78C989.859 1014.78 987.779 1014.02 986.357 1012.49C984.936 1010.97 984.225 1008.82 984.225 1006.04V994.032H980.481V989.04H984.225V981.552H990.777V989.04H996.757V994.032H990.777V1005.21C990.777 1006.81 991.072 1007.95 991.661 1008.64C992.251 1009.3 993.325 1009.63 994.885 1009.63C995.96 1009.63 997.017 1009.39 998.057 1008.9V1013.9C996.567 1014.49 994.747 1014.78 992.597 1014.78ZM1016.04 1014.78C1013.13 1014.78 1010.56 1014.26 1008.34 1013.22C1006.16 1012.15 1004.46 1010.62 1003.25 1008.64C1002.03 1006.63 1001.43 1004.26 1001.43 1001.52C1001.43 998.851 1002.02 996.528 1003.2 994.552C1004.41 992.541 1006.12 990.999 1008.34 989.924C1010.56 988.815 1013.13 988.26 1016.04 988.26C1018.95 988.26 1021.5 988.815 1023.68 989.924C1025.9 990.999 1027.62 992.541 1028.83 994.552C1030.04 996.528 1030.65 998.851 1030.65 1001.52C1030.65 1004.26 1030.04 1006.63 1028.83 1008.64C1027.62 1010.62 1025.9 1012.15 1023.68 1013.22C1021.5 1014.26 1018.95 1014.78 1016.04 1014.78ZM1016.04 1009.63C1018.43 1009.63 1020.34 1008.89 1021.76 1007.4C1023.18 1005.87 1023.89 1003.91 1023.89 1001.52C1023.89 998.989 1023.18 997.013 1021.76 995.592C1020.37 994.136 1018.47 993.408 1016.04 993.408C1013.61 993.408 1011.69 994.136 1010.27 995.592C1008.88 997.013 1008.19 998.989 1008.19 1001.52C1008.19 1003.91 1008.9 1005.87 1010.32 1007.4C1011.74 1008.89 1013.65 1009.63 1016.04 1009.63ZM1035.83 989.04H1042.17V993.044C1043.18 991.692 1044.6 990.687 1046.44 990.028C1048.31 989.369 1050.44 989.04 1052.83 989.04V994.032C1050.3 994.032 1048.1 994.431 1046.23 995.228C1044.39 995.991 1043.11 997.204 1042.38 998.868V1014H1035.83V989.04ZM1065.97 1014.78C1064.17 1014.78 1062.24 1014.57 1060.2 1014.16C1058.15 1013.74 1056.56 1013.17 1055.41 1012.44V1006.88C1056.77 1007.71 1058.38 1008.38 1060.25 1008.9C1062.12 1009.39 1063.89 1009.63 1065.55 1009.63C1067.22 1009.63 1068.43 1009.49 1069.19 1009.22C1069.96 1008.9 1070.34 1008.35 1070.34 1007.55C1070.34 1006.93 1070.13 1006.43 1069.71 1006.04C1069.33 1005.63 1068.69 1005.26 1067.79 1004.95C1066.92 1004.61 1065.57 1004.19 1063.73 1003.7C1061.65 1003.11 1060.01 1002.51 1058.79 1001.88C1057.61 1001.26 1056.71 1000.48 1056.09 999.544C1055.5 998.573 1055.21 997.325 1055.21 995.8C1055.21 993.304 1056.19 991.432 1058.17 990.184C1060.15 988.901 1062.81 988.26 1066.18 988.26C1067.91 988.26 1069.63 988.433 1071.33 988.78C1073.06 989.092 1074.41 989.543 1075.38 990.132V995.488C1074.34 994.864 1073.08 994.361 1071.59 993.98C1070.09 993.599 1068.57 993.408 1067.01 993.408C1065.31 993.408 1064.03 993.581 1063.16 993.928C1062.29 994.24 1061.86 994.864 1061.86 995.8C1061.86 996.424 1062.09 996.927 1062.54 997.308C1063.02 997.655 1063.65 997.967 1064.41 998.244C1065.17 998.487 1066.56 998.868 1068.57 999.388C1070.72 999.977 1072.4 1000.62 1073.61 1001.31C1074.83 1002.01 1075.69 1002.84 1076.21 1003.81C1076.73 1004.78 1076.99 1005.99 1076.99 1007.45C1076.99 1009.67 1076.04 1011.45 1074.13 1012.8C1072.26 1014.12 1069.54 1014.78 1065.97 1014.78ZM1083.81 1014C1083.08 1014 1082.45 1013.76 1081.93 1013.27C1081.41 1012.75 1081.15 1012.13 1081.15 1011.4C1081.15 1010.64 1081.41 1010 1081.93 1009.48C1082.45 1008.96 1083.08 1008.7 1083.81 1008.7C1084.53 1008.7 1085.16 1008.96 1085.68 1009.48C1086.2 1010 1086.46 1010.64 1086.46 1011.4C1086.46 1012.13 1086.2 1012.75 1085.68 1013.27C1085.16 1013.76 1084.53 1014 1083.81 1014Z" fill="#735DFB"/>
<g clip-path="url(#clip0_673_2326)">
<path d="M215.184 800.434L234.121 805.563L262.92 734.944L234.968 727.372L215.184 800.434Z" fill="#FFB6B6"/>
<path d="M209.164 820.013L267.403 835.789L267.603 835.053C269.231 829.04 268.404 822.627 265.305 817.223C262.205 811.82 257.087 807.869 251.075 806.24L251.074 806.24L242.622 795.286L220.587 797.981L215.503 796.604L209.164 820.013Z" fill="#2F2E41"/>
<path d="M345.948 816.87L365.568 816.868L374.902 741.174L345.943 741.176L345.948 816.87Z" fill="#FFB6B6"/>
<path d="M345.256 837.341L405.593 837.338V836.575C405.593 830.346 403.118 824.372 398.714 819.967C394.31 815.562 388.337 813.087 382.108 813.087H382.107L371.085 804.724L350.522 813.088L345.255 813.088L345.256 837.341Z" fill="#2F2E41"/>
<path d="M354.325 380.4L380.657 753.405L338.253 757.163L279.095 480.722L285.65 640.669L262.171 766.468L226.279 749.11L226.875 618.121L179.753 406.445L192.295 380.4H354.325Z" fill="#2F2E41"/>
<path d="M185.766 426.81L185.503 426.44C171.45 406.763 192.586 359.479 195.773 352.624C191.988 351.395 188.745 348.892 186.598 345.541C184.451 342.19 183.531 338.198 183.996 334.245L185.37 322.562L186.803 311.102L176.541 300.839L176.512 300.583L170.606 248.902L162.02 214.576C158.785 201.599 159.06 187.996 162.819 175.161C166.577 162.326 173.683 150.723 183.406 141.542L203.254 138.39L227.375 115.146H266.273L279.61 127.891C304.507 132.258 308.785 130.832 330.171 156.5L320.453 236.301L318.029 247.279L318.036 262.169L324.199 269.02C326.42 271.488 328.033 274.44 328.911 277.641C329.788 280.843 329.906 284.205 329.256 287.46L328.445 291.513C334.802 294.238 340.867 342.657 342.316 349.42L344.481 359.523C346.333 361.967 358.557 378.269 358.557 382.725C358.557 383.394 358.063 384.041 357.004 384.758C348.673 390.4 315.46 430.422 295.081 422.266C273.374 413.585 187.084 426.608 186.214 426.74L185.766 426.81Z" fill="#3F3D56"/>
<path d="M180.54 334.014C180.54 334.014 190.529 277.552 180.465 256.318L140.544 259.17L146.619 339.719L181.518 429.153C180.985 431.909 181.191 434.756 182.115 437.406C183.038 440.056 184.646 442.415 186.775 444.243C188.905 446.07 191.48 447.302 194.239 447.813C196.998 448.323 199.843 448.094 202.486 447.15C205.128 446.205 207.473 444.578 209.283 442.433C211.094 440.289 212.304 437.704 212.793 434.94C213.281 432.176 213.029 429.333 212.064 426.698C211.098 424.063 209.452 421.73 207.293 419.937L180.54 334.014Z" fill="#FFB6B6"/>
<path d="M140.544 226.373L143.015 199.463C143.945 189.335 146.867 179.491 151.615 170.497C156.363 161.503 162.841 153.536 170.678 147.055C175.548 143.058 181.438 140.503 187.683 139.679C193.929 138.854 200.28 139.793 206.02 142.389C213.776 145.961 219.888 152.345 223.118 160.251C226.348 168.158 226.457 176.995 223.421 184.978C214.194 209.181 217.526 234.775 199.534 237.896L201.489 247.197L183.799 304.935L133.415 299.098L140.544 226.373Z" fill="#3F3D56"/>
<path d="M338.412 410.589C336.646 412.771 335.489 415.38 335.058 418.154C334.628 420.927 334.938 423.765 335.958 426.379C336.979 428.993 338.672 431.291 340.868 433.039C343.063 434.787 345.681 435.923 348.458 436.332C351.234 436.741 354.069 436.407 356.674 435.366C359.28 434.324 361.564 432.612 363.294 430.402C365.024 428.193 366.139 425.565 366.525 422.785C366.911 420.005 366.555 417.173 365.493 414.575L382.193 320.035L372.369 239.857L332.663 244.884C326.955 267.679 347.812 321.088 347.812 321.088L338.412 410.589Z" fill="#FFB6B6"/>
<path d="M387.182 277.614L338.919 293.212L320.337 264.219L320.432 254.716C302.177 255.182 290.353 205.271 276.563 183.346C272.022 176.113 270.397 167.425 272.015 159.039C273.634 150.653 278.376 143.195 285.283 138.172C290.402 134.501 296.447 132.336 302.732 131.921C309.018 131.505 315.295 132.856 320.853 135.821C329.808 140.641 337.722 147.183 344.139 155.072C350.557 162.962 355.352 172.042 358.248 181.791L365.943 207.695L387.182 277.614Z" fill="#3F3D56"/>
<path d="M244.199 103.917C268.057 103.917 287.398 84.5733 287.398 60.7117C287.398 36.85 268.057 17.5063 244.199 17.5063C220.341 17.5063 201 36.85 201 60.7117C201 84.5733 220.341 103.917 244.199 103.917Z" fill="#FFB6B6"/>
<path d="M212.849 91.165C212.472 90.8342 212.116 90.4811 211.747 90.1411C211.734 90.176 211.732 90.2117 211.718 90.2465L212.849 91.165Z" fill="#2F2E41"/>
<path d="M279.601 15.0867C277.454 11.6311 274.481 8.76429 270.95 6.74513C268.537 5.57434 266 4.6756 263.388 4.06545L256.552 2.19985C253.049 1.11579 249.445 0.390049 245.796 0.0337907C240.728 -0.216244 235.689 0.93137 231.229 3.35126C226.769 5.77116 223.06 9.37027 220.507 13.7555C218.441 17.4196 216.784 21.9856 212.798 23.3262C209.584 24.4072 206.076 22.8824 202.698 23.1782C200.719 23.4651 198.84 24.2359 197.23 25.4224C195.619 26.6089 194.326 28.1744 193.465 29.9801C191.782 33.614 190.953 37.5854 191.043 41.5894C190.91 50.6799 192.684 59.6973 196.25 68.06C199.817 76.4226 205.096 83.9448 211.747 90.1413C212.862 87.2019 211.026 84.0284 209.574 81.2166C208.105 78.3715 207.198 74.4049 209.658 72.3558C212.395 70.0757 216.781 72.2867 220.019 70.7998C221.054 70.2048 221.927 69.3625 222.558 68.3481C223.189 67.3337 223.559 66.1789 223.635 64.9867C223.948 62.6242 223.621 60.2228 223.769 57.8442C223.915 55.5001 224.521 53.2077 225.553 51.0979C226.585 48.9881 228.022 47.1022 229.783 45.548C231.544 43.9938 233.593 42.8016 235.814 42.0395C238.036 41.2774 240.385 40.9604 242.729 41.1065C242.783 41.1099 242.837 41.1135 242.891 41.1173C250.26 41.6438 257.411 46.68 264.503 44.6081C267.832 43.6356 270.671 41.1594 274.113 40.7429C277.926 40.2816 281.513 42.4337 284.75 44.5002C285.927 39.504 286.077 34.3211 285.192 29.2652C284.306 24.2093 282.404 19.3858 279.601 15.0867Z" fill="#2F2E41"/>
<path d="M505.337 813.067L494.345 795.399L492.149 805.495C491.764 807.263 491.379 809.06 491.022 810.842C487.9 808.175 484.578 805.709 481.328 803.342C471.347 796.097 461.371 788.844 451.4 781.581L454.523 799.691C456.448 810.842 458.458 822.222 463.22 832.417C463.748 833.572 464.318 834.713 464.931 835.826H511.326C511.699 834.792 511.957 833.721 512.096 832.631C512.107 832.561 512.112 832.489 512.109 832.417C512.837 825.501 509.016 818.985 505.337 813.067Z" fill="#F0F0F0"/>
<path d="M559.318 837.562L109.692 838C109.243 837.998 108.814 837.818 108.497 837.5C108.181 837.182 108.003 836.751 108.003 836.302C108.003 835.853 108.181 835.423 108.497 835.105C108.814 834.786 109.243 834.606 109.692 834.604L559.318 834.166C559.767 834.168 560.197 834.348 560.513 834.666C560.83 834.985 561.007 835.415 561.007 835.864C561.007 836.313 560.83 836.743 560.513 837.061C560.197 837.38 559.767 837.56 559.318 837.562Z" fill="#CACACA"/>
<path d="M1024.08 275.779C1023.98 325.696 1005.21 373.771 971.471 410.553C937.729 447.335 891.451 470.162 841.734 474.547C792.017 478.933 742.458 464.559 702.8 434.251C663.143 403.944 636.255 359.896 627.423 310.766C618.591 261.636 628.454 210.979 655.073 168.754C681.691 126.529 723.14 95.7895 771.271 82.5797C819.401 69.3699 870.732 74.645 915.171 97.368C959.609 120.091 993.942 158.618 1011.42 205.375C1011.85 206.549 1012.28 207.723 1012.69 208.909V208.92C1014.54 214.131 1016.16 219.439 1017.57 224.843C1021.9 241.474 1024.09 258.592 1024.08 275.779Z" fill="#504E75"/>
<path d="M800.806 139.977C791.762 135.085 781.72 132.324 771.447 131.903C761.174 131.483 750.94 133.415 741.527 137.551C733.238 141.159 724.511 147.63 721.746 159.317C732.929 152.716 747.404 163.145 750.282 179.875L749.61 180.061C748.091 191.649 751.483 204.265 758.052 211.45C758.541 208.208 759.745 205.115 761.577 202.397C763.41 199.678 765.825 197.402 768.647 195.734C773.474 192.561 778.813 190.256 782.496 184.802C786.863 178.336 787.972 168.886 789.707 160.265C791.442 151.644 794.733 142.379 800.806 139.977Z" fill="#735DFB"/>
<path d="M738.21 238.586C735.113 243.238 730.976 246.157 727.265 249.791C722.979 253.69 720.168 258.946 719.304 264.675C718.834 268.723 719.561 272.838 719.46 276.931C719.36 281.023 717.996 285.63 715.212 286.648C710.818 288.236 707.463 280.073 702.947 279.502C699.358 279.055 696.127 284.702 697.166 289.6C698.206 294.498 703.092 296.667 705.898 293.469C708.436 297.729 706.647 305.457 702.835 306.765C702.432 309.449 702.03 312.121 701.638 314.805C692.001 308.062 682.262 301.207 674.067 291.333C664.952 280.445 659.299 267.081 657.833 252.956C656.771 241.606 658.347 228.623 653.137 219.89C648.967 212.901 641.811 211.357 635.371 211.794C634.197 211.872 633.012 212.006 631.838 212.151C635.636 200.743 640.459 189.702 646.249 179.164C647.56 178.601 648.777 177.843 649.861 176.916C655.854 171.828 658.515 161.529 663.378 154.406C663.691 153.947 664.016 153.5 664.351 153.064C669.326 146.567 675.99 143.223 682.43 140.115C696.685 133.193 711.354 126.182 726.403 127.143L722.121 127.557C717.123 141.557 712.122 155.558 707.117 169.558C706.356 171.705 705.588 173.856 704.813 176.01C701.974 183.972 699.044 192.448 699.48 201.36C699.738 206.638 701.571 212.274 705.059 214.086C708.313 215.763 711.868 213.706 715.01 211.67C716.341 210.821 717.66 209.971 718.99 209.11C723.764 206.034 729.053 202.881 734.095 204.939C738.713 206.817 742.123 213.091 742.771 219.856C743.366 226.432 741.762 233.02 738.21 238.586Z" fill="#735DFB"/>
<path d="M766.604 334.17C752.661 325.583 738.718 316.997 724.774 308.411L725.011 307.801C716.342 311.103 712.742 326.516 714.175 339.12C715.608 351.724 720.466 362.991 722.92 375.273C726.229 392.079 724.98 409.465 719.303 425.626C737.637 405.05 753.863 382.688 767.737 358.874C769.675 355.873 771.152 352.598 772.118 349.158C773.142 345.492 772.777 341.578 771.094 338.165C769.953 336.48 768.41 335.107 766.604 334.17Z" fill="#735DFB"/>
<path d="M711.574 177.958C709.937 181.474 709.685 185.478 710.868 189.172C712.243 192.148 714.739 194.46 717.811 195.604L725.516 199.424C728.079 200.694 730.841 201.978 733.454 200.932C736.606 199.671 738.791 194.73 738.225 190.142C737.624 185.261 734.547 181.903 731.702 179.044C727.72 175.042 723.738 171.04 719.756 167.039L717.512 169.788C715.085 172.156 713.077 174.918 711.574 177.958Z" fill="#735DFB"/>
<path d="M982.774 230.144C986.241 230.96 989.707 231.776 993.173 232.593C992.569 244.301 986.766 255.136 978.984 259.061C975.742 260.694 972.131 261.298 969.447 264.35C967.021 267.124 965.791 271.44 964.662 275.566C962.683 282.768 960.704 289.969 958.725 297.17C956.601 304.931 953.873 313.553 948.349 316.348C943.609 318.752 938.186 315.811 934.541 310.88C930.897 305.949 928.672 299.317 926.514 292.854C926.648 299.899 923.372 306.81 918.732 309.258C914.081 311.707 908.423 309.493 905.315 304.025C903.079 300.1 902.151 294.923 899.96 290.942C897.768 286.961 893.173 284.68 890.781 288.415C889.204 290.897 889.405 294.699 888.623 297.853C888.229 299.946 887.192 301.865 885.657 303.342C884.122 304.819 882.165 305.781 880.058 306.094C878.121 306.049 876.213 305.611 874.45 304.806C872.688 304 871.107 302.844 869.806 301.408C862.959 294.404 858.502 285.413 857.071 275.723C856.101 271.077 856.223 266.268 857.429 261.678C858.804 257.328 862.125 253.973 865.423 254.801C867.592 250.216 863.31 244.133 859.452 244.669C855.584 245.206 852.554 249.355 849.379 252.542C846.215 255.729 841.787 258.043 838.601 254.879C838.672 256.036 838.28 257.175 837.512 258.044C836.744 258.912 835.663 259.441 834.505 259.512C834.391 259.519 834.276 259.522 834.162 259.52C832.043 258.911 830.074 257.868 828.381 256.456C821.081 251.904 811.812 254.924 806.624 263.534C809.866 249.735 814.618 233.901 824.58 230.658C828.65 229.327 833.089 230.423 836.935 228.119C843.744 224.038 845.119 208.618 839.238 202.255C839.987 208.271 839.842 215.293 836.666 219.409C833.491 223.524 826.827 220.84 827.23 214.757C827.14 215.612 826.781 216.417 826.205 217.057C825.629 217.696 824.866 218.136 824.024 218.315C823.183 218.494 822.307 218.402 821.521 218.052C820.735 217.702 820.08 217.112 819.65 216.367C817.537 213.147 817.715 207.88 819.214 204.033C820.758 200.549 822.973 197.403 825.732 194.774C831.043 189.082 836.432 183.323 842.581 179.745C848.742 176.167 855.853 174.959 862.024 178.515C865.278 180.394 868.14 183.525 871.461 185.18C872.241 185.664 873.109 185.99 874.015 186.139C874.921 186.287 875.848 186.256 876.742 186.047C877.636 185.837 878.48 185.454 879.226 184.918C879.972 184.382 880.605 183.705 881.09 182.924C881.127 182.864 881.163 182.803 881.199 182.742C883.67 178.403 882.507 171.962 883.424 166.539C885.067 156.956 894.649 152.471 899.96 158.801C895.991 157.783 891.888 162.48 891.396 168.172C890.893 173.863 893.766 179.611 897.612 181.333C904.075 184.196 910.403 176.994 915.289 170.33C920.387 163.352 925.493 156.378 930.606 149.408C931.422 148.221 932.339 147.106 933.345 146.075C934.947 144.514 937.082 143.62 939.317 143.574C941.553 143.529 943.723 144.335 945.387 145.829C950.552 150.045 952.978 158.689 957.216 164.638C963.365 173.282 972.567 175.384 981.131 177.061C987.515 178.303 993.903 179.551 1000.29 180.807C1004.56 188.735 1008.27 196.943 1011.42 205.375C999.699 210.721 989.757 219.317 982.774 230.144Z" fill="#735DFB"/>
<path d="M1017.57 224.843C1016.26 228.705 1015.54 232.743 1015.44 236.82C1009.97 230.133 1009.09 217.597 1012.69 208.92C1014.54 214.131 1016.16 219.439 1017.57 224.843Z" fill="#735DFB"/>
<path d="M1003.41 364.689C998.624 374.417 993.052 383.74 986.755 392.567C982.73 390.845 978.403 393.92 974.635 396.805C970.699 399.824 965.97 402.765 961.934 400.014C957.808 397.196 956.478 389.313 957.786 383.062C959.289 377.295 961.919 371.883 965.523 367.138C968.877 362.128 972.466 356.929 977.128 354.983C981.802 353.037 987.806 355.788 989.17 362.43L992.479 362.318C990.623 359.769 991.596 354.491 994.089 353.563C996.963 352.478 999.456 356.425 1001.16 359.914C1001.92 361.491 1002.69 363.079 1003.41 364.689Z" fill="#735DFB"/>
<path d="M876.665 317.456C869.551 317.904 863.917 309.145 860.172 300.529C856.428 291.913 853.012 282.059 846.593 277.674C842.926 275.167 838.744 274.824 834.767 273.609C832.51 273.039 830.422 271.94 828.676 270.402C826.929 268.864 825.574 266.932 824.723 264.765L820.211 262.942C813.899 266.098 808.118 270.22 803.078 275.16C797.319 281.279 793.732 289.122 792.87 297.481C792.008 306.515 795.191 316.588 801.138 319.981C805.838 322.662 811.309 320.972 816.069 323.427C822.017 326.494 825.548 335.403 826.885 344.199C828.221 352.996 827.882 362.138 828.839 371.034C829.795 379.93 832.431 389.187 837.885 393.746C844.71 399.451 854.725 394.711 857.788 384.325C859.29 379.231 859.238 373.483 860.362 368.195C862.34 358.883 867.679 351.974 871.913 344.335C876.148 336.696 879.481 326.321 876.665 317.456Z" fill="#735DFB"/>
<path d="M806.373 225.95C807.036 226.56 807.655 227.218 808.225 227.916C808.815 228.934 809.116 230.093 809.096 231.269C809.076 232.445 808.736 233.593 808.111 234.589C808.968 234.54 809.806 234.314 810.571 233.925C811.336 233.537 812.012 232.993 812.556 232.33C813.855 230.851 814.997 229.242 815.964 227.528C816.42 226.941 816.744 226.264 816.918 225.542C817.091 224.82 817.109 224.069 816.969 223.34C816.633 222.381 815.839 221.971 815.282 221.25C814.509 219.84 813.982 218.308 813.723 216.721C813.414 215.234 812.696 213.862 811.651 212.76C810.605 211.658 809.273 210.87 807.804 210.483L808.161 210.551C807.554 210.911 807.075 211.452 806.791 212.098C806.507 212.744 806.432 213.463 806.577 214.154C806.793 215.549 807.689 216.708 807.6 218.131C807.472 220.177 805.427 221.138 805.301 223.185C805.281 224.211 805.666 225.205 806.373 225.95Z" fill="#735DFB"/>
<path d="M794.185 191.172L794.216 191.166C794.435 190.967 794.638 190.751 794.823 190.52L794.185 191.172Z" fill="#735DFB"/>
<path d="M796.319 200.778C797.173 200.029 797.805 199.058 798.145 197.974C798.486 196.889 798.522 195.732 798.25 194.628C797.733 192.301 795.904 190.736 794.217 191.166C793.728 191.662 793.12 192.026 792.451 192.223C791.783 192.42 791.075 192.443 790.395 192.292C789.352 192.023 788.207 191.331 787.302 192.117C786.785 192.704 786.423 193.412 786.249 194.175C785.914 195.203 785.579 196.231 785.245 197.258C785.086 197.626 785.044 198.034 785.126 198.427C785.19 198.584 785.293 198.722 785.426 198.828C785.559 198.934 785.717 199.003 785.885 199.03C787.894 199.623 789.903 200.215 791.912 200.807C792.603 201.126 793.357 201.289 794.118 201.284C794.88 201.279 795.631 201.106 796.319 200.778Z" fill="#735DFB"/>
<path d="M947.974 333.4C947.046 331.879 946.117 330.358 945.188 328.838C944.276 327.077 943.029 325.511 941.518 324.228C941.19 323.953 940.812 323.746 940.404 323.618C939.997 323.49 939.568 323.443 939.142 323.481C938.717 323.519 938.303 323.64 937.924 323.837C937.546 324.035 937.209 324.305 936.935 324.632L936.887 324.692L937 325.56C939.486 328.226 941.181 331.533 941.893 335.108C942.105 336.662 942.031 338.271 942.216 339.831C942.236 340.555 942.398 341.268 942.693 341.929C942.988 342.59 943.411 343.186 943.937 343.684C945.399 344.661 947.116 343.22 948.157 341.462C949.087 340.019 949.504 338.304 949.341 336.594C949.11 335.447 948.644 334.359 947.974 333.4Z" fill="#735DFB"/>
<path d="M962.541 335.378C962.718 333.955 962.603 332.51 962.202 331.133C962.135 329.27 962.629 327.429 963.619 325.85C964.603 324.359 965.349 322.725 965.829 321.005C966.031 320.221 965.994 319.395 965.723 318.633C965.416 317.942 964.671 317.627 964.244 318.174L965.158 318.763C963.924 318.542 962.656 318.604 961.449 318.942C960.761 319.206 960.146 319.631 959.656 320.183C959.167 320.735 958.818 321.396 958.638 322.111C958.487 323.226 958.241 324.326 957.901 325.399C957.356 326.52 956.301 326.893 955.638 327.876C955.185 328.748 954.957 329.719 954.973 330.701C954.99 331.684 955.25 332.646 955.731 333.503C956.564 334.904 957.888 335.945 959.445 336.424C960.561 336.825 962.031 336.846 962.541 335.378Z" fill="#735DFB"/>
<path d="M988.483 343.206C988.887 344.257 989.427 345.249 990.09 346.157C991.332 347.408 993.02 346.639 994.527 346.335C995.894 346.119 997.294 346.278 998.579 346.793C999.864 347.308 1000.99 348.162 1001.82 349.263C1001.24 346.348 999.965 343.616 998.106 341.297C996.247 338.978 993.859 337.138 991.142 335.933C987.611 334.711 983.891 334.129 980.156 334.215L979.518 334.379C981.143 339.112 986.249 339.006 988.483 343.206Z" fill="#735DFB"/>
<path d="M878.61 352.888L878.62 352.908L878.806 352.551L878.61 352.888Z" fill="#735DFB"/>
<path d="M874.675 360.506C873.816 362.064 873.078 363.686 872.467 365.357C871.657 368.063 871.121 370.844 870.867 373.657C870.667 375.257 870.605 377.3 871.607 378.079C871.895 378.27 872.242 378.35 872.584 378.303C872.927 378.257 873.24 378.087 873.467 377.826C874.023 377.237 874.479 376.56 874.815 375.823C876.784 372.43 878.313 368.8 879.365 365.021C880.462 361.012 880.2 356.752 878.62 352.908C877.305 355.441 875.99 357.973 874.675 360.506Z" fill="#735DFB"/>
<path d="M836.709 157.529C837.334 158.141 838.125 158.555 838.983 158.723C839.841 158.89 840.729 158.803 841.538 158.472C843.213 157.739 844.75 156.724 846.081 155.47C847.184 154.655 848.119 153.635 848.836 152.466C849.23 151.767 849.483 150.997 849.58 150.2C849.677 149.404 849.615 148.596 849.399 147.823C849.091 147.083 848.599 146.433 847.971 145.935C847.342 145.438 846.596 145.109 845.805 144.98C843.575 144.318 841.346 143.657 839.116 142.996L840.729 141.542C839.069 140.651 837.233 142.304 836.196 144.351C835.531 145.687 835.067 147.115 834.82 148.587C834.467 150.126 834.454 151.722 834.78 153.267C835.106 154.811 835.764 156.265 836.709 157.529Z" fill="#735DFB"/>
<path d="M876.076 144.312C876.704 145.005 877.573 145.432 878.505 145.508C879.438 145.584 880.364 145.302 881.096 144.72C881.727 144.247 882.25 143.646 882.633 142.957C883.015 142.268 883.248 141.505 883.317 140.72C883.475 138.966 882.607 137.016 881.369 136.865L881.652 135.222C879.266 134.791 876.33 134.705 875.052 137.603C874.62 138.713 874.488 139.917 874.668 141.094C874.848 142.271 875.333 143.381 876.076 144.312Z" fill="#735DFB"/>
<g opacity="0.35">
<path d="M1253.55 285.695C1266.72 279.953 1240.02 276.611 1209.72 275.512C1179.42 274.413 1142.77 274.473 1123.41 271.347C1104.69 268.324 1106.07 262.949 1104.49 258.078C1102.92 253.208 1095.72 248.214 1066.5 247.131C1030.09 245.782 970.049 250.975 942.564 247.857C916.915 244.948 932.161 235.821 894.76 235.472C873.403 235.273 845.89 238.281 822.126 239.008C805.281 239.738 788.405 238.858 771.728 236.379C760.145 234.482 752.077 232.075 739.041 230.399C704.817 225.997 637.856 227.477 578.092 233.118C518.328 238.759 467.099 248.004 438.207 257.16C409.316 266.316 401.334 275.331 408.064 282.976C412.361 287.858 423.358 292.422 450.034 294.384C499.93 298.053 588.765 291.737 640.324 295.076C669.06 296.936 681.808 301.549 707.021 304.073C734.108 306.785 773.76 306.928 812.719 306.864C893.837 306.73 977.029 305.896 1061.86 304.368C1097.29 303.729 1134.42 302.899 1172.12 299.856C1209.82 296.814 1248.28 290.943 1256.23 285.439" fill="white"/>
</g>
<path d="M1024.63 539.311C1006.22 539.311 986.041 538.616 964.095 537.224C850.585 530.015 703.554 504.95 550.087 466.649C396.621 428.348 255.053 381.384 151.463 334.411C101.002 311.529 62.273 289.869 36.3537 270.032C8.91188 249.031 -3.09156 230.726 0.675411 215.627C8.01518 186.21 73.006 179.774 126.234 179.556L126.252 183.834C53.1559 184.134 10.0327 195.793 4.82605 216.663C-1.8064 243.243 52.285 284.74 153.23 330.515C256.591 377.384 397.899 424.258 551.123 462.499C704.346 500.739 851.106 525.76 964.367 532.954C1074.98 539.981 1142.22 528.766 1148.85 502.184C1154.36 480.115 1118.06 447.604 1046.64 410.639L1048.61 406.84C1100.5 433.7 1160.74 472.223 1153 503.22C1149.24 518.32 1130.04 528.838 1095.95 534.482C1076.52 537.699 1052.65 539.311 1024.63 539.311Z" fill="#735DFB"/>
<path d="M322.218 544.882C271.462 544.883 224.276 543.141 182.034 539.626C126.818 535.031 83.0646 527.643 51.9887 517.671C19.0868 507.111 1.63158 493.904 0.107655 478.416C-2.86222 448.245 56.1888 420.344 106.249 402.25L107.703 406.275C38.957 431.121 2.25751 456.592 4.36409 477.998C7.04714 505.262 71.9341 526.17 182.388 535.362C295.487 544.775 444.326 541.439 601.488 525.965C758.65 510.495 905.284 484.745 1014.38 453.46C1120.92 422.907 1180.49 389.748 1177.8 362.484C1175.58 339.848 1130.46 321.426 1050.78 310.608L1051.35 306.369C1109.25 314.229 1178.93 330.271 1182.06 362.065C1183.58 377.553 1169.04 393.91 1138.83 410.682C1110.29 426.524 1068.82 442.3 1015.56 457.572C906.222 488.927 759.318 514.727 601.907 530.224C503.159 539.944 407.653 544.882 322.218 544.882Z" fill="#735DFB"/>
<path d="M624.269 635.24C638.035 635.24 649.195 624.078 649.195 610.309C649.195 596.54 638.035 585.379 624.269 585.379C610.502 585.379 599.342 596.54 599.342 610.309C599.342 624.078 610.502 635.24 624.269 635.24Z" fill="#735DFB"/>
<path d="M133.415 488.051C147.182 488.051 158.342 476.889 158.342 463.12C158.342 449.352 147.182 438.19 133.415 438.19C119.648 438.19 108.488 449.352 108.488 463.12C108.488 476.889 119.648 488.051 133.415 488.051Z" fill="#E6E6E6"/>
<path d="M591.084 105.914C599.512 105.914 606.343 99.0817 606.343 90.653C606.343 82.2244 599.512 75.3917 591.084 75.3917C582.657 75.3917 575.825 82.2244 575.825 90.653C575.825 99.0817 582.657 105.914 591.084 105.914Z" fill="#FF6584"/>
<path d="M498.761 221.12C512.527 221.12 523.688 209.958 523.688 196.19C523.688 182.421 512.527 171.259 498.761 171.259C484.994 171.259 473.834 182.421 473.834 196.19C473.834 209.958 484.994 221.12 498.761 221.12Z" fill="#E6E6E6"/>
<path d="M160.53 544.554C253.829 780.507 533.114 857.185 766.051 765.008C998.988 672.831 977.326 367.186 855.622 355.753C509.2 492.838 519.048 117.281 332.736 117.281C59.8347 167.892 46.6535 345.86 160.53 544.554Z" fill="#735DFB" fill-opacity="0.07"/>
</g>
<defs>
<clipPath id="clip0_673_2326">
<rect width="1257" height="838" fill="white"/>
</clipPath>
</defs>
</svg>
